SplineFontDB: 2.0
FontName: TlwgTypewriter-Oblique
FullName: Tlwg Typewriter Mono Oblique
FamilyName: TlwgTypewriter
Weight: Medium
Copyright: Tlwg Typewriter, Free Thai Pseudo Monospace outline font. Copyright (C) 2003, 2004 Poonlap Veerathanabutr <poonlap@linux.thai.net>
Comments: 2003-11-25: Created. \nPfaEdit 1.0 (http://pfaedit.sf.net).\n\nTLWG is Thai Linux Working Group http://linux.thai.net\n\nThis font was derived from TlwgMono.Most characters have fixed width except some vowels and tone marks.\n
Version: 001.007: 2007-12-07
ItalicAngle: -12
UnderlinePosition: -100
UnderlineWidth: 50
Ascent: 800
Descent: 200
NeedsXUIDChange: 1
FSType: 0
OS2Version: 0
OS2_WeightWidthSlopeOnly: 0
OS2_UseTypoMetrics: 0
CreationTime: 1153666223
ModificationTime: 1200135654
PfmFamily: 49
TTFWeight: 400
TTFWidth: 5
LineGap: 90
VLineGap: 0
Panose: 2 0 6 3 0 0 0 0 0 0
OS2TypoAscent: 0
OS2TypoAOffset: 1
OS2TypoDescent: 0
OS2TypoDOffset: 1
OS2TypoLinegap: 0
OS2WinAscent: 0
OS2WinAOffset: 1
OS2WinDescent: 0
OS2WinDOffset: 1
HheadAscent: 0
HheadAOffset: 1
HheadDescent: 0
HheadDOffset: 1
OS2Vendor: 'PfEd'
Lookup: 4 8 1 "'liga' Standard Ligatures lookup 2"  {"'liga' Standard Ligatures lookup 2 subtable"  } ['liga' ('DFLT' <'dflt' > ) ]
Lookup: 4 8 0 "'frac' Diagonal Fractions lookup 3"  {"'frac' Diagonal Fractions lookup 3 subtable"  } ['frac' ('DFLT' <'dflt' > ) ]
Lookup: 6 0 0 "'ccmp' Thai General Composition"  {"'ccmp' Thai Below Vowel Tone Reordering"  "'ccmp' Thai General Composition"  } ['ccmp' ('thai' <'KUY ' 'PAL ' 'THA ' 'dflt' > ) ]
Lookup: 6 0 0 "'ccmp' Thai Conditional Descender Removal"  {"'ccmp' Thai Conditional Descender Removal"  } ['ccmp' ('thai' <'KUY ' 'PAL ' 'THA ' 'dflt' > ) ]
Lookup: 5 0 0 "Required Thai Descender Removal"  {"Required Thai Descender Removal"  } [' RQD' ('thai' <'PAL ' > ) ]
Lookup: 1 0 0 "Thai Descender Removal Single Substitution"  {"Thai Descender Removal Single Substitution" ("descless" ) } []

StartChar: mu
Encoding: 116 181 0
Width: 600
Flags: W
HStem: -16 40<204.401 359.67> 0 40<489 538.172> 377 40<127.1 204 421.1 519>
VStem: 86 483<-184 417 78.1001 176>
Fore
546 26 m 0x70
 546 15 539 0 514 0 c 2
 439 0 l 1x70
 452 59 l 1
 389 10 320 -16 255 -16 c 0
 214 -16 190 -8 168 16 c 1
 128 -173 l 2
 124 -191 115 -200 101 -200 c 0
 91 -200 86 -195 86 -184 c 0
 86 -181 86 -177 87 -173 c 2
 204 377 l 1
 150 377 l 2
 134 377 127 383 127 393 c 0
 127 403 132 417 159 417 c 2
 254 417 l 1
 189 115 l 2
 187 107 187 100 187 93 c 0
 187 51 215 24 261 24 c 0xb0
 329 24 395 54 463 115 c 1
 519 377 l 1
 445 377 l 2
 428 377 421 383 421 393 c 0
 421 403 426 417 454 417 c 2
 569 417 l 1
 489 40 l 1
 523 40 l 2
 538 40 546 36 546 26 c 0x70
EndSplineSet
EndChar
StartChar: uni0E31
Encoding: 239 3633 1
Width: 0
Flags: W
HStem: 493 64<-166.467 -94.4184> 635 29<-158.491 -87.2668>
VStem: -215 47<532.891 617.495> -86 43<572.207 624.884>
AnchorPoint: "AboveMark" 19 700 basemark 0
AnchorPoint: "AboveBase" 6 500 mark 0
Fore
-135 557 m 0
 -113 557 -86 575 -86 604 c 0
 -86 622 -99 635 -118 635 c 0
 -139 635 -168 615 -168 588 c 0
 -168 570 -154 557 -135 557 c 0
-215 561 m 0
 -215 604 -168 664 -112 664 c 16
 -79 664 -70 655 -56 635 c 16
 -47 621 -43 610 -43 596 c 0
 -43 585 -46 573 -49 557 c 1
 10 563 61 631 92 660 c 9
 127 611 l 17
 76 557 47 533 -15 510 c 16
 -46 498 -71 493 -97 493 c 0
 -137 493 -215 507 -215 561 c 0
EndSplineSet
EndChar
StartChar: uni0E34
Encoding: 242 3636 2
Width: 0
Flags: W
HStem: 500 55<-272 -52 -344 3 -272 -272> 607 59<-219.993 -69.0194>
AnchorPoint: "AboveMark" 9 700 basemark 0
AnchorPoint: "AboveBase" 6 500 mark 0
Fore
-149 607 m 16
 -191 607 -254 603 -272 555 c 9
 -52 555 l 17
 -58 593 -102 607 -149 607 c 16
-136 666 m 0
 -51 666 3 640 3 557 c 0
 3 540 1 521 -4 500 c 9
 -344 500 l 17
 -319 614 -248 666 -136 666 c 0
EndSplineSet
EndChar
StartChar: uni0E35
Encoding: 243 3637 3
Width: 0
Flags: W
HStem: 500 165<-325 -127 -31 -9 -394 26 -31 -31> 500 55<-309 -149> 612 56<-284.172 -170.297>
AnchorPoint: "AboveMark" 6 700 basemark 0
AnchorPoint: "AboveBase" 6 500 mark 0
Fore
-227 612 m 24x60
 -262 612 -290 598 -309 555 c 9
 -149 555 l 17
 -153 585 -186 612 -227 612 c 24x60
-217 668 m 0
 -127 668 -88 621 -54 555 c 9x60
 -31 665 l 25
 26 665 l 25
 -9 500 l 25
 -394 500 l 17x80
 -371 608 -325 668 -217 668 c 0
EndSplineSet
EndChar
StartChar: uni0E37
Encoding: 245 3639 4
Width: 0
Flags: W
HStem: 500 165<-319 -182 -105 -77 -13 2 -383 37 -105 -105> 500 60<-311 -196 -77 -35> 614 54<-283.494 -210.281>
AnchorPoint: "AboveMark" -26 700 basemark 0
AnchorPoint: "AboveBase" 6 500 mark 0
Fore
-248 614 m 0x60
 -264 614 -300 610 -311 560 c 9
 -196 560 l 17
 -203 588 -218 614 -248 614 c 0x60
-242 668 m 16
 -182 668 -148 620 -127 560 c 9x60
 -105 665 l 25
 -55 665 l 25x80
 -77 560 l 25
 -35 560 l 25x40
 -13 665 l 25
 37 665 l 25
 2 500 l 25
 -383 500 l 17x80
 -360 606 -319 668 -242 668 c 16
EndSplineSet
EndChar
StartChar: uni0E47
Encoding: 261 3655 5
Width: 0
Flags: W
HStem: 563 19<-98.5536 -56.3339> 640 41<-242.934 -63.6735>
VStem: -330 59<553.601 615.083> -56 19<529.115 560.69>
AnchorPoint: "AboveBase" -44 500 mark 0
Fore
-72 563 m 0
 -85 563 -99 552 -99 539 c 0
 -99 529 -92 522 -81 522 c 0
 -66 522 -56 536 -56 548 c 0
 -56 556 -60 563 -72 563 c 0
-37 550 m 0
 -37 512 -86 500 -86 500 c 1
 -145 500 l 9
 -192 542 l 25
 -257 500 l 17
 -296 520 -330 526 -330 566 c 0
 -330 654 -217 681 -146 681 c 8
 -92 681 -5 729 -5 729 c 9
 5 695 l 17
 5 695 -87 640 -149 640 c 0
 -242 640 -271 603 -271 578 c 0
 -271 560 -246 552 -246 552 c 9
 -185 585 l 1
 -133 554 l 9
 -109 554 l 17
 -106 571 -86 582 -69 582 c 16
 -48 582 -37 567 -37 550 c 0
EndSplineSet
Substitution2: "Thai Mark High Variant" uni0E47.high
Substitution2: "Thai Phinthu Maitaikhu Reordering" uni0E3A
EndChar
StartChar: uni0E48
Encoding: 262 3656 6
Width: 0
Flags: W
HStem: 701 164<15 37 -20 72 15 15>
AnchorPoint: "AboveMark" 9 700 mark 0
Fore
15 865 m 1
 72 865 l 1
 37 701 l 1
 -20 701 l 1
 15 865 l 1
EndSplineSet
MultipleSubs2: "Thai Tone Nikhahit Attachment" uni0E4D uni0E48
Substitution2: "Thai Tone Low Variant" uni0E48.low
Substitution2: "Thai Sara U Mai Ek Reordering" uni0E38
Substitution2: "Thai Sara UU Mai Ek Reordering" uni0E39
Substitution2: "Thai Phinthu Mai Ek Reordering" uni0E3A
EndChar
StartChar: uni0E49
Encoding: 263 3657 7
Width: 0
Flags: W
HStem: 699 188<-70 -9.77603 -41 -39 -98.7295 -1.29395> 699 114<-130 173 111 113> 699 55<-119 -91.7402 -91.7402 -63 -49.7295 47.7061> 855 32<-84.4555 -22.3357>
VStem: -112 22<789.524 849.436> -22 37<794.742 854.155>
AnchorPoint: "AboveMark" 9 700 mark 0
Fore
-63 789 m 0x1c
 -45 789 -22 806 -22 829 c 0
 -22 844 -33 855 -49 855 c 0
 -67 855 -90 838 -90 815 c 0
 -90 800 -79 789 -63 789 c 0x1c
-112 816 m 0
 -112 841 -83 887 -39 887 c 24x8c
 -4 887 15 860 15 829 c 0
 15 802 -2 784 -8 755 c 1
 -2 754 4 753 10 753 c 0
 42 753 77 768 113 813 c 9
 173 813 l 17x4c
 141 761 131 755 95 728 c 0
 60 703 11 699 -41 699 c 0x8c
 -70 699 -101 700 -130 700 c 9
 -119 754 l 17
 -63 754 l 1x2c
 -63 754 -112 783 -112 816 c 0
EndSplineSet
MultipleSubs2: "Thai Tone Nikhahit Attachment" uni0E4D uni0E49
Substitution2: "Thai Tone Low Variant" uni0E49.low
Substitution2: "Thai Sara U Mai Tho Reordering" uni0E38
Substitution2: "Thai Sara UU Mai Tho Reordering" uni0E39
Substitution2: "Thai Phinthu Mai Tho Reordering" uni0E3A
EndChar
StartChar: uni0E4B
Encoding: 265 3659 8
Width: 0
Flags: W
HStem: 755 53<-48 -10 62 100 -60 112 -48 -48>
AnchorPoint: "AboveMark" 9 700 mark 0
Fore
-10 755 m 1
 -60 755 l 1
 -48 808 l 1
 2 808 l 1
 14 866 l 1
 74 866 l 1
 62 808 l 1
 112 808 l 1
 100 755 l 1
 50 755 l 1
 39 700 l 1
 -21 700 l 1
 -10 755 l 1
EndSplineSet
MultipleSubs2: "Thai Tone Nikhahit Attachment" uni0E4D uni0E4B
Substitution2: "Thai Tone Low Variant" uni0E4B.low
Substitution2: "Thai Sara U Mai Chattawa Reordering" uni0E38
Substitution2: "Thai Sara UU Mai Chattawa Reordering" uni0E39
Substitution2: "Thai Phinthu Mai Chattawa Reordering" uni0E3A
EndChar
StartChar: uni0E4C
Encoding: 266 3660 9
Width: 0
Flags: W
HStem: 696 21<-29.9445 35.8373>
VStem: -64 33<718.011 781.468> 43 29<744.61 771>
AnchorPoint: "AboveMark" -5 700 mark 0
Fore
-2 717 m 0
 20 717 43 737 43 761 c 0
 43 777 31 789 14 789 c 0
 -8 789 -31 769 -31 745 c 0
 -31 729 -19 717 -2 717 c 0
-3 696 m 0
 -37 696 -64 717 -64 745 c 0
 -64 795 -12 805 20 820 c 18
 147 876 l 25
 165 815 l 25
 72 771 l 1
 72 771 73 757 70 744 c 0
 64 717 27 696 -3 696 c 0
EndSplineSet
MultipleSubs2: "Thai Tone Nikhahit Attachment" uni0E4D uni0E4C
Substitution2: "Thai Tone Low Variant" uni0E4C.low
Substitution2: "Thai Sara U Thanthakhat Reordering" uni0E38
Substitution2: "Thai Sara UU Thanthakhat Reordering" uni0E39
Substitution2: "Thai Phinthu Thanthakhat Reordering" uni0E3A
EndChar
StartChar: uni0E4D
Encoding: 267 3661 10
Width: 0
Flags: W
HStem: 500 41<-112.653 -43.1474> 621 47<-105.394 -34.9616>
VStem: -160 45<543.127 610.655> -33 45<550.78 619.58>
AnchorPoint: "AboveMark" -48 700 basemark 0
AnchorPoint: "AboveBase" 6 500 mark 0
Fore
-82 541 m 0
 -57 541 -33 564 -33 590 c 0
 -33 608 -46 621 -65 621 c 0
 -86 621 -115 602 -115 574 c 0
 -115 555 -101 541 -82 541 c 0
-160 565 m 0
 -160 622 -102 668 -55 668 c 0
 -15 668 12 637 12 599 c 0
 12 543 -43 500 -91 500 c 0
 -131 500 -160 527 -160 565 c 0
EndSplineSet
Substitution2: "Thai Mark High Variant" uni0E4D.high
Substitution2: "Thai Sara U Nikhahit Reordering" uni0E38
Substitution2: "Thai Sara UU Nikhahit Reordering" uni0E39
Substitution2: "Thai Phinthu Nikhahit Reordering" uni0E3A
EndChar
StartChar: exclam
Encoding: 1 33 12
Width: 600
Flags: W
HStem: -15 100<262.116 290 290 351.884> 598 20G<412 440.5>
VStem: 246 216<25 588 4 65.8839> 246 122<1.61763 68.3824>
Fore
381 563 m 1xe0
 381 579 393 618 431 618 c 0
 450 618 462 606 462 588 c 0
 462 583 460 573 458 563 c 2
 388 237 l 2
 384 217 357 209 343 209 c 0
 331 209 311 217 311 233 c 2
 311 237 l 1
 381 563 l 1xe0
246 25 m 0
 246 58 279 85 311 85 c 2
 324 85 l 2
 350 85 368 68 368 45 c 0xd0
 368 12 335 -15 303 -15 c 2
 290 -15 l 2
 264 -15 246 2 246 25 c 0
EndSplineSet
EndChar
StartChar: quotedbl
Encoding: 2 34 13
Width: 600
Flags: W
HStem: 315 289<274 308.754 454 488.754>
VStem: 254 328<341 604 521 555.754>
Fore
274 604 m 1
 402 604 l 1
 315 351 l 2
 306 326 295 315 277 315 c 0
 262 315 254 323 254 341 c 0
 254 344 255 347 255 351 c 2
 274 604 l 1
454 604 m 1
 582 604 l 1
 495 351 l 2
 486 326 475 315 457 315 c 0
 442 315 434 323 434 341 c 0
 434 344 435 347 435 351 c 2
 454 604 l 1
EndSplineSet
EndChar
StartChar: numbersign
Encoding: 3 35 14
Width: 600
Flags: W
HStem: 189 41<143.014 246 298 377 430 532.766> 356 41<198.594 293 345 425 476 588.554>
VStem: 136 453<204 382 488.267 608.252>
Fore
589 382 m 0
 589 372 582 356 557 356 c 2
 466 356 l 1
 430 230 l 1
 510 230 l 2
 526 230 533 224 533 214 c 0
 533 204 527 189 501 189 c 2
 418 189 l 1
 354 -36 l 2
 350 -54 341 -62 328 -62 c 0
 319 -62 311 -54 311 -45 c 0
 311 -44 312 -42 312 -41 c 2
 377 189 l 1
 286 189 l 1
 223 -36 l 2
 218 -54 210 -62 197 -62 c 0
 187 -62 181 -55 181 -45 c 0
 181 -40 183 -35 183 -33 c 1
 246 189 l 1
 159 189 l 2
 144 189 136 194 136 204 c 0
 136 215 141 230 168 230 c 2
 257 230 l 1
 293 356 l 1
 215 356 l 2
 199 356 191 361 191 372 c 0
 191 382 198 397 223 397 c 2
 304 397 l 1
 368 622 l 2
 373 639 382 647 395 647 c 0
 405 647 410 641 410 631 c 0
 410 627 409 623 408 619 c 2
 345 397 l 1
 436 397 l 1
 500 622 l 2
 505 639 513 647 526 647 c 0
 537 647 541 641 541 630 c 0
 541 627 541 623 540 619 c 2
 476 397 l 1
 565 397 l 2
 581 397 589 392 589 382 c 0
425 356 m 1
 334 356 l 1
 298 230 l 1
 389 230 l 1
 425 356 l 1
EndSplineSet
EndChar
StartChar: dollar
Encoding: 4 36 15
Width: 600
Flags: W
HStem: 54 39<230.569 291 332 411.554> 449 21G<535 547.5> 538 117<378.746 442.761>
VStem: 225 42<373.663 476.117> 491 42<160.329 267.508>
Fore
319 93 m 0
 411 93 491 148 491 222 c 0
 491 313 333 287 255 341 c 0
 236 357 225 382 225 411 c 0
 225 490 306 565 402 576 c 1
 413 628 l 2
 417 646 426 655 440 655 c 0
 450 655 455 650 455 639 c 0
 455 636 455 632 454 628 c 2
 443 576 l 1
 488 572 508 562 539 534 c 1
 544 553 553 563 566 563 c 0
 577 563 581 558 581 548 c 0
 581 544 581 540 580 536 c 2
 567 476 l 2
 563 458 554 449 541 449 c 0
 529 449 525 454 525 467 c 2
 525 474 l 2
 525 509 475 538 416 538 c 0
 343 538 267 483 267 417 c 0
 267 305 533 383 533 231 c 0
 533 167 482 70 332 54 c 1
 307 -65 l 2
 303 -83 294 -92 281 -92 c 0
 270 -92 265 -87 265 -76 c 0
 265 -73 265 -69 266 -65 c 2
 291 54 l 1
 246 56 197 79 177 108 c 1
 174 92 l 2
 170 74 161 65 148 65 c 0
 137 65 132 70 132 81 c 0
 132 84 132 88 133 92 c 2
 149 171 l 2
 153 189 162 198 176 198 c 0
 187 198 191 193 191 181 c 2
 191 168 l 2
 191 127 248 93 319 93 c 0
EndSplineSet
EndChar
StartChar: percent
Encoding: 5 37 16
Width: 600
Flags: W
HStem: -12 38<316.702 426.693> 198 38<342.928 454.734> 363 38<271.929 382.36> 573 38<299.143 410.286>
VStem: 216 39<417.742 527.476> 260 39<43.9883 152.476> 427 39<445.921 556.703> 472 38<70.2497 180.204>
Fore
260 85 m 0
 260 164 336 236 411 236 c 0
 471 236 510 195 510 138 c 0
 510 55 431 -12 359 -12 c 0
 300 -12 260 30 260 85 c 0
368 26 m 0
 419 26 472 75 472 130 c 0
 472 169 445 198 403 198 c 0
 351 198 299 149 299 94 c 0
 299 56 327 26 368 26 c 0
216 460 m 0
 216 539 292 611 367 611 c 0
 427 611 466 570 466 514 c 0
 466 431 387 363 315 363 c 0
 256 363 216 405 216 460 c 0
323 401 m 0
 370 401 427 446 427 506 c 0
 427 545 400 573 359 573 c 0
 308 573 255 524 255 469 c 0
 255 430 282 401 323 401 c 0
590 367 m 0
 590 357 584 348 568 344 c 2
 163 222 l 2
 158 220 153 219 151 219 c 0
 144 219 137 226 137 234 c 0
 137 241 141 253 160 258 c 2
 565 380 l 2
 569 381 573 382 577 382 c 0
 585 382 590 375 590 367 c 0
EndSplineSet
EndChar
StartChar: ampersand
Encoding: 6 38 17
Width: 600
Flags: W
HStem: -16 41<200.129 315.476> 0 41<422 482.554> 208 41<483 526.766> 452 21G<439.5 483> 478 41<333.039 419.54>
VStem: 131 42<53.6578 187.069> 248 42<356.562 436.014>
Fore
483 26 m 0x7e
 483 16 476 0 451 0 c 2
 393 0 l 1x7e
 372 48 l 1
 333 5 293 -16 247 -16 c 0xbe
 179 -16 131 39 131 109 c 0
 131 180 181 259 277 287 c 1
 256 341 248 361 248 379 c 0
 248 442 317 519 399 519 c 0
 422 519 441 513 461 499 c 1
 469 503 481 510 489 510 c 0
 498 510 504 502 504 493 c 0
 504 478 488 471 483 468 c 2
 448 452 l 1
 431 470 414 478 391 478 c 0
 343 478 290 431 290 381 c 0
 290 362 297 338 314 298 c 2
 388 121 l 1
 416 158 441 201 461 249 c 1
 504 249 l 2
 520 249 527 243 527 233 c 0
 527 223 521 208 495 208 c 2
 483 208 l 1
 458 156 429 110 403 82 c 1
 422 41 l 1
 460 41 l 2
 475 41 483 36 483 26 c 0x7e
286 251 m 1
 207 234 173 165 173 116 c 0
 173 65 207 25 254 25 c 0xbe
 289 25 326 47 356 86 c 1
 286 251 l 1
EndSplineSet
EndChar
StartChar: quotesingle
Encoding: 7 39 18
Width: 600
Flags: W
HStem: 315 289<364 398.754>
VStem: 344 148<341 604 341 341>
Fore
364 604 m 1
 492 604 l 1
 405 351 l 2
 396 326 385 315 367 315 c 0
 352 315 344 323 344 341 c 0
 344 344 345 347 345 351 c 2
 364 604 l 1
EndSplineSet
EndChar
StartChar: parenleft
Encoding: 8 40 19
Width: 600
Flags: W
HStem: 584 20G<561 571>
VStem: 335 247 335 59<-9.44795 276.194>
Fore
436 -101 m 0xa0
 436 -110 426 -124 411 -124 c 0
 401 -124 394 -114 379 -77 c 0
 350 -2 335 70 335 139 c 0xa0
 335 200 341 355 525 570 c 0
 548 597 556 604 566 604 c 0
 576 604 582 597 582 588 c 0xc0
 582 582 579 577 577 573 c 0
 460 423 394 281 394 128 c 0
 394 5 436 -88 436 -101 c 0xa0
EndSplineSet
EndChar
StartChar: parenright
Encoding: 9 41 20
Width: 600
Flags: W
HStem: 584 20G<288.5 301>
VStem: 125 247 313 59<203.1 491.946>
Fore
271 581 m 0xa0
 271 590 281 604 296 604 c 0
 306 604 313 595 328 557 c 0
 358 483 372 412 372 342 c 0xa0
 372 280 365 125 182 -90 c 0
 159 -117 151 -124 141 -124 c 0
 131 -124 125 -117 125 -108 c 0xc0
 125 -102 128 -97 130 -93 c 1
 224 27 313 175 313 354 c 0
 313 475 271 567 271 581 c 0xa0
EndSplineSet
EndChar
StartChar: asterisk
Encoding: 10 42 21
Width: 600
Flags: W
HStem: 250 354<428 454 428 454 428 428>
VStem: 211 375<457 473 459 467 459 459>
Fore
211 459 m 0
 211 473 226 483 236 483 c 0
 240 483 241 482 248 480 c 2
 372 438 l 1
 402 577 l 2
 405 595 414 604 428 604 c 0
 439 604 444 598 444 586 c 0
 444 583 444 580 443 577 c 2
 413 438 l 1
 555 481 l 2
 561 483 568 484 571 484 c 0
 580 484 586 476 586 467 c 0
 586 457 579 448 560 442 c 2
 418 400 l 1
 475 288 l 2
 477 283 478 278 478 274 c 0
 478 263 469 250 454 250 c 0
 446 250 443 253 437 264 c 2
 379 376 l 1
 274 264 l 2
 264 254 258 250 250 250 c 0
 241 250 234 256 234 266 c 0
 234 275 238 279 246 288 c 2
 351 400 l 1
 227 442 l 2
 218 445 211 449 211 459 c 0
EndSplineSet
EndChar
StartChar: plus
Encoding: 11 43 22
Width: 600
Flags: W
HStem: 32 498<307 413 669.64 886.019> 261 41<138.828 334 384 580.362>
VStem: 131 458<274.915 288.527>
Fore
589 287 m 0x60
 589 277 582 261 555 261 c 2
 375 261 l 1x60
 333 59 l 2
 329 41 320 32 307 32 c 0xa0
 296 32 291 37 291 48 c 0
 291 51 291 55 292 59 c 2
 334 261 l 1
 154 261 l 2
 139 261 131 266 131 276 c 0
 131 287 138 302 163 302 c 2
 343 302 l 1x60
 386 503 l 2
 390 521 399 530 413 530 c 0xa0
 423 530 428 525 428 514 c 0
 428 511 428 507 427 503 c 2
 384 302 l 1
 564 302 l 2
 580 302 589 297 589 287 c 0x60
EndSplineSet
EndChar
StartChar: comma
Encoding: 12 44 23
Width: 600
Flags: W
HStem: -145 290<133 238 371 371>
VStem: 109 262<-122 145 -122 -122>
Fore
238 145 m 1
 371 145 l 1
 169 -120 l 2
 155 -139 146 -145 133 -145 c 0
 119 -145 109 -135 109 -122 c 0
 109 -114 112 -112 115 -105 c 2
 238 145 l 1
EndSplineSet
EndChar
StartChar: hyphen
Encoding: 13 45 24
Width: 600
Flags: W
HStem: 258 41<137.594 587.554 163 556 163 163>
VStem: 130 458<271.915 285.79>
Fore
588 284 m 0
 588 274 581 258 556 258 c 2
 154 258 l 2
 138 258 130 263 130 274 c 0
 130 284 137 299 163 299 c 2
 565 299 l 2
 580 299 588 294 588 284 c 0
EndSplineSet
EndChar
StartChar: period
Encoding: 14 46 25
Width: 600
Flags: W
HStem: -15 131<263.714 292 292 358.286>
VStem: 235 152<13.9399 87.2236>
Fore
235 37 m 0
 235 77 273 116 320 116 c 2
 330 116 l 2
 364 116 387 95 387 65 c 0
 387 24 349 -15 302 -15 c 2
 292 -15 l 2
 258 -15 235 7 235 37 c 0
EndSplineSet
EndChar
StartChar: slash
Encoding: 15 47 26
Width: 600
Flags: W
Fore
625 652 m 0
 625 648 625 645 617 633 c 2
 142 -63 l 2
 132 -77 126 -81 116 -81 c 0
 107 -81 100 -74 100 -65 c 0
 100 -57 107 -48 108 -46 c 2
 583 650 l 2
 593 664 599 668 609 668 c 0
 618 668 625 661 625 652 c 0
EndSplineSet
EndChar
StartChar: zero
Encoding: 16 48 27
Width: 600
Flags: W
HStem: -15 41<243.054 377.999> 577 41<351.062 486.999>
VStem: 156 45<102.799 223.473> 528 44<380.915 498.917>
Fore
562 351 m 2
 540 251 l 2
 507 93 408 -15 297 -15 c 0
 208 -15 156 54 156 163 c 0
 156 190 159 220 166 251 c 2
 188 351 l 2
 221 510 320 618 431 618 c 0
 520 618 572 549 572 439 c 0
 572 412 569 383 562 351 c 2
423 577 m 0
 300 577 241 411 228 346 c 2
 209 257 l 2
 203 232 201 205 201 180 c 0
 201 142 207 107 219 79 c 0
 234 45 264 26 306 26 c 0
 348 26 386 45 415 79 c 0
 455 125 487 193 501 257 c 2
 520 346 l 2
 525 371 528 397 528 422 c 0
 528 460 522 496 509 524 c 0
 495 558 465 577 423 577 c 0
EndSplineSet
EndChar
StartChar: one
Encoding: 17 49 28
Width: 600
Flags: W
HStem: 0 41<123.748 289 330 491.554> 592 20G<383.069 446.762>
VStem: 116 376<13.9151 27.7902>
Fore
116 16 m 0
 116 26 123 41 150 41 c 2
 289 41 l 1
 398 557 l 1
 257 515 l 2
 253 514 245 512 243 512 c 0
 235 512 228 520 228 529 c 0
 228 544 242 550 254 554 c 2
 451 612 l 1
 330 41 l 1
 469 41 l 2
 484 41 492 36 492 26 c 0
 492 16 485 0 460 0 c 2
 141 0 l 2
 125 0 116 5 116 16 c 0
EndSplineSet
EndChar
StartChar: two
Encoding: 18 50 29
Width: 600
Flags: W
HStem: 0 41<132 446> 577 41<330.079 484.54>
VStem: 531 41<404.616 531.497>
Fore
204 467 m 0
 204 496 290 618 421 618 c 0
 508 618 572 554 572 476 c 0
 572 391 512 343 380 237 c 0
 275 151 200 92 132 44 c 1
 132 41 l 1
 446 41 l 1
 453 77 l 2
 457 95 466 104 480 104 c 0
 490 104 495 99 495 88 c 0
 495 85 495 81 494 77 c 2
 478 0 l 1
 84 0 l 1
 97 60 l 1
 380 282 l 2
 483 366 531 407 531 470 c 0
 531 529 480 577 413 577 c 0
 345 577 273 532 244 472 c 0
 237 458 230 452 219 452 c 0
 210 452 204 459 204 467 c 0
EndSplineSet
EndChar
StartChar: three
Encoding: 19 51 30
Width: 600
Flags: W
HStem: -15 41<200.217 386.673> 312 41<329.828 431.01> 577 41<328.623 498.962>
VStem: 496 42<124.529 253.877> 536 43<420.098 540.942>
Fore
579 493 m 0xe8
 579 409 507 352 449 330 c 1
 448 330 446 329 444 328 c 1
 504 301 538 253 538 198 c 0
 538 90 417 -15 287 -15 c 0
 201 -15 110 38 110 65 c 0
 110 79 125 88 134 88 c 0
 151 88 190 26 297 26 c 0
 405 26 496 113 496 191 c 0xf0
 496 258 432 312 345 312 c 0
 330 312 322 317 322 327 c 0
 322 338 329 353 354 353 c 0
 404 353 420 354 443 364 c 0
 500 386 536 437 536 485 c 0
 536 539 491 577 423 577 c 0
 367 577 313 557 277 523 c 0
 265 511 261 509 253 509 c 0
 243 509 237 516 237 525 c 0
 237 549 328 618 432 618 c 0
 520 618 579 566 579 493 c 0xe8
EndSplineSet
EndChar
StartChar: four
Encoding: 20 52 31
Width: 600
Flags: W
HStem: 0 41<283.594 385 426 482.554> 169 41<189 412 462 511.172> 563 41<472 496>
VStem: 141 404<169 604 210 259.172>
Fore
276 16 m 0
 276 26 283 41 309 41 c 2
 385 41 l 1
 412 169 l 1
 141 169 l 1
 151 216 l 1
 461 604 l 1
 545 604 l 1
 462 210 l 1
 496 210 l 2
 511 210 519 205 519 195 c 0
 519 184 512 169 487 169 c 2
 453 169 l 1
 426 41 l 1
 460 41 l 2
 475 41 483 36 483 26 c 0
 483 16 476 0 451 0 c 2
 300 0 l 2
 284 0 276 5 276 16 c 0
421 210 m 1
 496 563 l 1
 472 563 l 1
 189 210 l 1
 421 210 l 1
EndSplineSet
EndChar
StartChar: five
Encoding: 21 53 32
Width: 600
Flags: W
HStem: -15 41<209.921 385.502> 354 41<326.163 464.759> 563 41<310 576.252>
VStem: 113 471<79 589 79 79> 505 42<150.83 312.981>
Fore
584 589 m 0xf0
 584 579 578 563 551 563 c 2
 310 563 l 1
 268 365 l 1
 323 386 362 395 406 395 c 0
 493 395 547 336 547 250 c 0xe8
 547 128 445 -15 292 -15 c 0
 184 -15 113 58 113 79 c 0xf0
 113 90 127 102 138 102 c 0
 144 102 147 100 153 93 c 0
 191 49 241 26 299 26 c 0
 430 26 505 148 505 242 c 0xe8
 505 310 462 354 391 354 c 0
 309 354 251 313 235 313 c 0
 226 313 219 319 219 329 c 0
 219 331 220 333 220 335 c 1
 277 604 l 1
 559 604 l 2
 575 604 584 599 584 589 c 0xf0
EndSplineSet
EndChar
StartChar: six
Encoding: 22 54 33
Width: 600
Flags: W
HStem: -15 41<273.924 418.233> 323 41<338.562 471.762> 577 41<451.437 617.346>
VStem: 185 446 185 38<87.384 188> 511 42<129.335 283.409>
Fore
608 563 m 0xf0
 594 563 594 577 547 577 c 0
 437 577 275 475 236 285 c 0
 234 276 231 261 228 242 c 1
 287 324 349 364 420 364 c 0
 498 364 553 302 553 220 c 0
 553 108 453 -15 334 -15 c 0
 240 -15 185 62 185 182 c 0xec
 185 445 384 618 559 618 c 0
 600 618 631 604 631 586 c 0
 631 577 622 563 608 563 c 0xf0
411 323 m 0
 316 323 237 207 223 188 c 1
 228 84 262 26 344 26 c 0
 440 26 511 128 511 212 c 0
 511 275 471 323 411 323 c 0
EndSplineSet
EndChar
StartChar: seven
Encoding: 23 55 34
Width: 600
Flags: W
HStem: -1 21G<290 300> 563 41<266 557>
VStem: 216 390<517 604 517 517>
Fore
553 545 m 1
 557 563 l 1
 266 563 l 1
 258 528 l 2
 254 509 245 500 232 500 c 0
 221 500 216 505 216 517 c 0
 216 520 216 524 217 528 c 2
 233 604 l 1
 606 604 l 1
 593 539 l 1
 319 20 l 2
 311 4 305 -1 295 -1 c 0
 285 -1 279 6 279 15 c 0
 279 20 282 29 284 32 c 2
 553 545 l 1
EndSplineSet
EndChar
StartChar: eight
Encoding: 24 56 35
Width: 600
Flags: W
HStem: -15 41<231.439 387.501> 293 40<300.242 439.315> 577 41<344.075 493.555>
VStem: 143 42<70.6615 205.163> 216 42<370.553 497.2> 483 42<114.294 250.402> 535 41<406.78 537.087>
Fore
576 484 m 0
 576 381 485 333 442 313 c 1
 497 286 525 245 525 194 c 0
 525 85 413 -15 297 -15 c 0
 206 -15 143 46 143 127 c 0
 143 202 191 271 292 313 c 1
 240 343 216 377 216 422 c 0
 216 518 317 618 431 618 c 0
 516 618 576 560 576 484 c 0
371 333 m 0
 446 333 535 390 535 475 c 0
 535 534 490 577 423 577 c 0
 338 577 258 505 258 429 c 0
 258 374 304 333 371 333 c 0
306 26 m 0
 391 26 483 97 483 187 c 0
 483 249 435 293 362 293 c 0
 262 293 185 212 185 135 c 0
 185 72 235 26 306 26 c 0
EndSplineSet
EndChar
StartChar: nine
Encoding: 25 57 36
Width: 600
Flags: W
HStem: -15 41<157.176 323.625> 239 41<302.808 435.48> 577 41<359.888 500.428>
VStem: 143 446 222 42<320.162 473.56> 551 38<415 515.616>
Fore
167 40 m 0xf0
 182 40 179 26 228 26 c 0
 337 26 497 126 539 318 c 0
 541 327 543 342 546 361 c 1
 487 279 425 239 354 239 c 0
 276 239 222 301 222 384 c 0
 222 496 321 618 440 618 c 0
 534 618 589 541 589 421 c 0xec
 589 390 586 357 578 321 c 0
 529 85 341 -15 215 -15 c 0
 174 -15 143 -1 143 17 c 0
 143 28 155 40 167 40 c 0xf0
364 280 m 0
 458 280 535 393 551 415 c 1
 546 519 513 577 431 577 c 0
 340 577 264 480 264 393 c 0
 264 329 304 280 364 280 c 0
EndSplineSet
EndChar
StartChar: colon
Encoding: 26 58 37
Width: 600
Flags: W
HStem: -15 131<263.714 292 292 358.286> 397 20G<359.5 411>
VStem: 235 152<13.9399 87.2236> 299 151<312.763 388.336>
Fore
235 37 m 0xe0
 235 77 273 116 320 116 c 2
 330 116 l 2
 364 116 387 95 387 65 c 0
 387 24 349 -15 302 -15 c 2
 292 -15 l 2
 258 -15 235 7 235 37 c 0xe0
299 337 m 0xd0
 299 375 335 417 384 417 c 2
 394 417 l 2
 428 417 450 395 450 364 c 0
 450 321 408 285 366 285 c 2
 356 285 l 2
 322 285 299 307 299 337 c 0xd0
EndSplineSet
EndChar
StartChar: semicolon
Encoding: 27 59 38
Width: 600
Flags: W
HStem: 397 20G<335.5 387>
VStem: 113 313<-122 364 -150 -122> 275 151<312.763 388.336>
Fore
242 145 m 1xc0
 375 145 l 1
 173 -120 l 2
 159 -139 150 -145 137 -145 c 0
 123 -145 113 -135 113 -122 c 0
 113 -114 116 -112 119 -105 c 2
 242 145 l 1xc0
275 337 m 0xa0
 275 375 311 417 360 417 c 2
 370 417 l 2
 404 417 426 395 426 364 c 0xc0
 426 321 384 285 342 285 c 2
 332 285 l 2
 298 285 275 307 275 337 c 0xa0
EndSplineSet
EndChar
StartChar: less
Encoding: 28 60 39
Width: 600
Flags: W
HStem: 44 474<511 612 612 612>
VStem: 132 496<281 500 281 281>
Fore
536 67 m 0
 536 61 523 44 511 44 c 0
 508 44 504 46 499 49 c 2
 132 281 l 1
 599 513 l 2
 605 516 609 518 612 518 c 0
 621 518 628 509 628 500 c 0
 628 487 617 481 611 478 c 2
 214 281 l 1
 527 84 l 2
 533 80 537 75 537 71 c 0
 537 69 536 68 536 67 c 0
EndSplineSet
EndChar
StartChar: equal
Encoding: 29 61 40
Width: 600
Flags: W
HStem: 190 185<132 149 571 588 158 562 158 158> 190 41<102.828 594.551> 334 41<132.594 624.554>
Fore
625 360 m 0x20
 625 350 618 334 593 334 c 2
 149 334 l 2x20
 133 334 125 339 125 350 c 0
 125 360 132 375 158 375 c 2x80
 602 375 l 2
 617 375 625 370 625 360 c 0x20
595 216 m 0
 595 206 588 190 562 190 c 2x80
 118 190 l 2
 103 190 95 195 95 205 c 0
 95 216 102 231 127 231 c 2
 571 231 l 2x40
 587 231 595 226 595 216 c 0
EndSplineSet
EndChar
StartChar: greater
Encoding: 30 62 41
Width: 600
Flags: W
HStem: 44 474<107 208 208 208>
VStem: 92 496<63 281 63 63>
Fore
183 493 m 0
 183 500 196 518 208 518 c 0
 211 518 216 516 220 513 c 2
 588 281 l 1
 120 49 l 2
 115 46 110 44 107 44 c 0
 97 44 92 53 92 63 c 0
 92 72 97 78 109 84 c 2
 506 281 l 1
 193 478 l 2
 186 482 183 488 183 493 c 0
EndSplineSet
EndChar
StartChar: question
Encoding: 31 63 42
Width: 600
Flags: W
HStem: -15 100<252.125 362.304> 536 41<314.984 500.469>
VStem: 236 143<1.38515 68.3724> 538 43<381.744 500.766>
Fore
581 456 m 0
 581 348 490 296 375 247 c 1
 366 206 l 2
 362 188 353 179 340 179 c 0
 329 179 324 184 324 195 c 0
 324 198 324 202 325 206 c 2
 339 274 l 1
 478 327 538 376 538 445 c 0
 538 499 492 536 418 536 c 0
 373 536 339 528 282 502 c 1
 273 461 l 2
 269 443 260 434 247 434 c 0
 236 434 231 439 231 450 c 0
 231 453 231 457 232 461 c 2
 246 529 l 1
 288 542 343 577 432 577 c 0
 525 577 581 530 581 456 c 0
236 24 m 0
 236 47 256 85 305 85 c 2
 332 85 l 2
 361 85 379 70 379 47 c 0
 379 23 359 -15 311 -15 c 2
 284 -15 l 2
 254 -15 236 0 236 24 c 0
EndSplineSet
EndChar
StartChar: at
Encoding: 32 64 43
Width: 600
Flags: W
HStem: -62 41<227.992 397.501> 147 41<356.189 437.517 429.246 445.789 445.789 450> 376 40<409.167 498> 583 41<350.79 489.718>
VStem: 139 422<122 501 122 198.628> 139 42<62.4468 176.351> 297 42<207.415 313.514> 519 42<464.453 553.424>
Fore
514 171 m 0xf8
 514 162 508 145 482 145 c 2
 449 145 l 1
 450 150 l 1
 429 148 419 147 409 147 c 0
 341 147 297 188 297 246 c 0
 297 326 378 416 504 416 c 2
 506 416 l 1
 516 463 l 2
 518 473 519 483 519 492 c 0
 519 547 483 583 425 583 c 0
 334 583 250 490 222 358 c 2
 188 198 l 2
 183 176 181 154 181 133 c 0xf7
 181 98 188 64 201 36 c 0
 219 -3 251 -21 301 -21 c 0
 392 -21 418 20 433 20 c 0
 443 20 449 13 449 4 c 0
 449 -23 374 -62 286 -62 c 0
 168 -62 139 45 139 122 c 0
 139 146 141 171 147 198 c 2
 182 361 l 2
 214 513 320 624 433 624 c 0
 511 624 561 573 561 501 c 0
 561 489 560 476 557 463 c 2
 499 186 l 1
 508 184 514 179 514 171 c 0xf8
498 376 m 1
 399 376 339 312 339 255 c 0
 339 215 370 188 421 188 c 0
 432 188 446 189 459 192 c 1
 498 376 l 1
EndSplineSet
EndChar
StartChar: A
Encoding: 33 65 44
Width: 600
Flags: W
HStem: 0 41<19.5938 76 117 218.554 391.594 493 536 595.554> 188 41<227 462> 522 41<220.594 357 397 412>
Fore
384 16 m 0
 384 26 391 41 417 41 c 2
 493 41 l 1
 468 188 l 1
 202 188 l 1
 117 41 l 1
 196 41 l 2
 211 41 219 36 219 26 c 0
 219 16 212 0 187 0 c 2
 36 0 l 2
 20 0 12 5 12 16 c 0
 12 26 19 41 45 41 c 2
 76 41 l 1
 357 522 l 1
 237 522 l 2
 221 522 213 527 213 538 c 0
 213 548 220 563 246 563 c 2
 450 563 l 1
 536 41 l 1
 573 41 l 2
 588 41 596 36 596 26 c 0
 596 16 589 0 564 0 c 2
 408 0 l 2
 392 0 384 5 384 16 c 0
462 229 m 1
 412 522 l 1
 397 522 l 1
 227 229 l 1
 462 229 l 1
EndSplineSet
EndChar
StartChar: B
Encoding: 34 66 45
Width: 600
Flags: W
HStem: 0 41<53.5938 133 174 459.712> 272 41<232 473.658> 522 41<164.594 235 276 513.058>
VStem: 535 42<111.179 227.135> 549 42<377.73 490.097>
Fore
46 16 m 0xf0
 46 26 53 41 79 41 c 2
 133 41 l 1
 235 522 l 1
 181 522 l 2
 165 522 157 527 157 538 c 0
 157 548 164 563 190 563 c 2
 448 563 l 2
 534 563 591 514 591 445 c 0xe8
 591 357 511 315 477 298 c 1
 543 272 577 234 577 182 c 0
 577 85 476 0 376 0 c 2
 70 0 l 2
 54 0 46 5 46 16 c 0xf0
379 313 m 2
 472 313 549 367 549 437 c 0
 549 486 505 522 440 522 c 2
 276 522 l 1
 232 313 l 1
 379 313 l 2
382 41 m 2
 470 41 535 113 535 171 c 0xf0
 535 200 520 228 493 246 c 0
 465 265 433 272 372 272 c 2
 223 272 l 1
 174 41 l 1
 382 41 l 2
EndSplineSet
EndChar
StartChar: C
Encoding: 35 67 46
Width: 600
Flags: W
HStem: -16 41<240.556 420.985> 535 41<326.603 509.134>
VStem: 109 43<113.43 229.55 226.523 232.578 232.578 242 248 258.139> 568 66<427.5 552.5>
Fore
557 110 m 0
 557 88 448 -16 319 -16 c 0
 199 -16 109 80 109 195 c 0
 109 211 111 226 114 242 c 2
 132 325 l 2
 156 438 274 576 427 576 c 0
 493 576 548 552 586 507 c 1
 592 536 l 2
 596 554 605 563 619 563 c 0
 629 563 634 558 634 547 c 0
 634 544 634 540 633 536 c 2
 609 424 l 2
 605 406 596 397 582 397 c 0
 572 397 567 403 567 415 c 0
 567 422 568 423 568 432 c 0
 568 488 503 535 419 535 c 0
 308 535 197 438 172 319 c 2
 157 248 l 2
 154 232 152 217 152 202 c 0
 152 103 224 25 327 25 c 0
 459 25 512 125 541 125 c 0
 551 125 557 119 557 110 c 0
EndSplineSet
EndChar
StartChar: D
Encoding: 36 68 47
Width: 600
Flags: W
HStem: 0 41<53.5938 113 154 384.578> 522 41<164.594 215 256 484.702>
VStem: 547 39<302.031 310 318 328.245 328.245 331.215 329.73 447.765>
Fore
46 16 m 0
 46 26 53 41 79 41 c 2
 113 41 l 1
 215 522 l 1
 181 522 l 2
 165 522 157 527 157 538 c 0
 157 548 164 563 190 563 c 2
 410 563 l 2
 520 563 592 481 592 370 c 0
 592 350 590 331 586 310 c 2
 574 254 l 2
 544 112 419 0 290 0 c 2
 70 0 l 2
 54 0 46 5 46 16 c 0
154 41 m 1
 304 41 l 2
 400 41 509 139 531 245 c 2
 547 318 l 2
 550 331 551 344 551 358 c 0
 551 399 538 441 514 472 c 0
 487 507 453 522 399 522 c 2
 256 522 l 1
 154 41 l 1
EndSplineSet
EndChar
StartChar: E
Encoding: 37 69 48
Width: 600
Flags: W
HStem: 0 41<53.5938 133 174 488> 272 41<232 368> 522 41<164.594 235 276 569>
Fore
157 538 m 0
 157 548 164 563 190 563 c 2
 619 563 l 1
 589 424 l 2
 585 406 576 397 562 397 c 0
 552 397 547 402 547 413 c 0
 547 416 547 420 548 424 c 2
 569 522 l 1
 276 522 l 1
 232 313 l 1
 377 313 l 1
 386 358 l 2
 390 376 399 385 413 385 c 0
 423 385 428 380 428 369 c 0
 428 366 428 362 427 358 c 2
 399 227 l 2
 395 209 387 200 374 200 c 0
 363 200 357 206 357 217 c 0
 357 220 357 223 358 227 c 2
 368 272 l 1
 223 272 l 1
 174 41 l 1
 488 41 l 1
 513 160 l 2
 517 178 526 187 540 187 c 0
 550 187 555 182 555 171 c 0
 555 168 555 164 554 160 c 2
 520 0 l 1
 70 0 l 2
 54 0 46 5 46 16 c 0
 46 26 53 41 79 41 c 2
 133 41 l 1
 235 522 l 1
 181 522 l 2
 165 522 157 527 157 538 c 0
EndSplineSet
EndChar
StartChar: F
Encoding: 38 70 49
Width: 600
Flags: W
HStem: 0 41<53.5938 133 174 335.551> 272 41<232 368> 522 41<164.594 235 276 590>
Fore
157 538 m 0
 157 548 164 563 190 563 c 2
 640 563 l 1
 610 424 l 2
 606 406 597 397 583 397 c 0
 573 397 568 402 568 413 c 0
 568 416 568 420 569 424 c 2
 590 522 l 1
 276 522 l 1
 232 313 l 1
 377 313 l 1
 386 358 l 2
 390 376 399 385 412 385 c 0
 423 385 428 380 428 369 c 0
 428 366 428 362 427 358 c 2
 399 227 l 2
 395 209 387 200 373 200 c 0
 363 200 357 206 357 217 c 0
 357 220 357 223 358 227 c 2
 368 272 l 1
 223 272 l 1
 174 41 l 1
 312 41 l 2
 328 41 336 36 336 26 c 0
 336 16 329 0 303 0 c 2
 70 0 l 2
 54 0 46 5 46 16 c 0
 46 26 53 41 79 41 c 2
 133 41 l 1
 235 522 l 1
 181 522 l 2
 165 522 157 527 157 538 c 0
EndSplineSet
EndChar
StartChar: G
Encoding: 39 71 50
Width: 600
Flags: W
HStem: -16 41<232.673 454.946> 209 41<368.828 523 564 603.362> 418 21G<583.5 595.5> 535 41<332.295 528.344>
VStem: 108 42<101.181 214.183 201.908 226.458 226.458 244 244 260.188> 575 60<444.561 553>
Fore
612 235 m 0
 612 225 605 209 578 209 c 2
 564 209 l 1
 528 36 l 1
 461 2 392 -16 330 -16 c 0
 190 -16 108 58 108 178 c 0
 108 199 110 221 115 244 c 2
 131 318 l 2
 159 449 282 576 435 576 c 0
 501 576 553 558 590 522 c 1
 593 536 l 2
 597 554 606 563 620 563 c 0
 631 563 635 558 635 548 c 0
 635 545 635 541 634 536 c 2
 615 445 l 2
 611 427 602 418 589 418 c 0
 578 418 574 424 574 436 c 0
 574 442 575 445 575 451 c 0
 575 498 513 535 429 535 c 0
 274 535 188 393 171 317 c 2
 156 244 l 2
 152 224 150 205 150 187 c 0
 150 85 218 25 341 25 c 0
 393 25 430 33 492 59 c 1
 523 209 l 1
 384 209 l 2
 369 209 361 214 361 224 c 0
 361 235 368 250 393 250 c 2
 587 250 l 2
 603 250 612 245 612 235 c 0
EndSplineSet
EndChar
StartChar: H
Encoding: 40 72 51
Width: 600
Flags: W
HStem: 0 41<63.7478 135 176 252.554 366.594 446 487 555.554> 272 41<234 495> 522 41<195.594 237 278 363.554 477.594 548 589 645.554>
Fore
359 16 m 0
 359 26 366 41 392 41 c 2
 446 41 l 1
 495 272 l 1
 225 272 l 1
 176 41 l 1
 230 41 l 2
 245 41 253 36 253 26 c 0
 253 16 246 0 221 0 c 2
 81 0 l 2
 65 0 56 5 56 16 c 0
 56 26 63 41 90 41 c 2
 135 41 l 1
 237 522 l 1
 212 522 l 2
 196 522 188 527 188 538 c 0
 188 548 195 563 221 563 c 2
 341 563 l 2
 356 563 364 558 364 548 c 0
 364 538 357 522 332 522 c 2
 278 522 l 1
 234 313 l 1
 504 313 l 1
 548 522 l 1
 494 522 l 2
 478 522 470 527 470 538 c 0
 470 548 477 563 503 563 c 2
 623 563 l 2
 638 563 646 558 646 548 c 0
 646 538 639 522 614 522 c 2
 589 522 l 1
 487 41 l 1
 533 41 l 2
 548 41 556 36 556 26 c 0
 556 16 549 0 524 0 c 2
 383 0 l 2
 367 0 359 5 359 16 c 0
EndSplineSet
EndChar
StartChar: I
Encoding: 41 73 52
Width: 600
Flags: W
HStem: 0 41<123.594 288 329 491.551> 522 41<234.594 390 431 602.602>
VStem: 116 487<16 548 16 178.551>
Fore
603 548 m 0
 603 539 597 522 570 522 c 2
 431 522 l 1
 329 41 l 1
 468 41 l 2
 484 41 492 36 492 26 c 0
 492 16 485 0 459 0 c 2
 140 0 l 2
 124 0 116 5 116 16 c 0
 116 26 123 41 149 41 c 2
 288 41 l 1
 390 522 l 1
 251 522 l 2
 235 522 227 527 227 538 c 0
 227 548 234 563 260 563 c 2
 579 563 l 2
 595 563 603 558 603 548 c 0
EndSplineSet
EndChar
StartChar: J
Encoding: 42 74 53
Width: 600
Flags: W
HStem: -16 41<200.043 359.925> 522 41<354.594 530 571 698.554>
Fore
699 548 m 0
 699 538 692 522 667 522 c 2
 571 522 l 1
 495 165 l 2
 474 66 372 -16 269 -16 c 0
 205 -16 158 9 100 74 c 1
 131 223 l 2
 135 241 144 250 158 250 c 0
 168 250 173 245 173 234 c 0
 173 231 173 227 172 223 c 2
 145 93 l 1
 186 47 228 25 278 25 c 0
 359 25 437 87 454 165 c 2
 530 522 l 1
 371 522 l 2
 355 522 347 527 347 538 c 0
 347 548 354 563 380 563 c 2
 676 563 l 2
 691 563 699 558 699 548 c 0
EndSplineSet
EndChar
StartChar: K
Encoding: 43 75 54
Width: 600
Flags: W
HStem: 0 41<53.5938 133 174 271.554 498 576.554> 522 41<164.594 235 276 382.554 493.748 556 613 661.602>
Fore
577 26 m 0
 577 16 570 0 545 0 c 2
 458 0 l 1
 428 203 397 263 308 294 c 1
 212 221 l 1
 174 41 l 1
 249 41 l 2
 264 41 272 36 272 26 c 0
 272 16 265 0 240 0 c 2
 70 0 l 2
 54 0 46 5 46 16 c 0
 46 26 53 41 79 41 c 2
 133 41 l 1
 235 522 l 1
 181 522 l 2
 165 522 157 527 157 538 c 0
 157 548 164 563 190 563 c 2
 360 563 l 2
 375 563 383 558 383 548 c 0
 383 538 376 522 351 522 c 2
 276 522 l 1
 223 273 l 1
 556 522 l 1
 511 522 l 2
 495 522 486 527 486 538 c 0
 486 548 493 563 520 563 c 2
 638 563 l 2
 654 563 662 558 662 548 c 0
 662 539 656 522 629 522 c 2
 613 522 l 1
 349 324 l 1
 437 284 464 233 498 41 c 1
 554 41 l 2
 569 41 577 36 577 26 c 0
EndSplineSet
EndChar
StartChar: L
Encoding: 44 76 55
Width: 600
Flags: W
HStem: 0 41<73.5938 195 236 509> 522 41<184.594 297 338 465.554>
Fore
466 548 m 0
 466 538 459 522 434 522 c 2
 338 522 l 1
 236 41 l 1
 509 41 l 1
 543 201 l 2
 547 219 555 228 569 228 c 0
 579 228 585 222 585 211 c 0
 585 208 585 205 584 201 c 2
 541 0 l 1
 90 0 l 2
 74 0 66 5 66 16 c 0
 66 26 73 41 99 41 c 2
 195 41 l 1
 297 522 l 1
 201 522 l 2
 185 522 177 527 177 538 c 0
 177 548 184 563 210 563 c 2
 443 563 l 2
 458 563 466 558 466 548 c 0
EndSplineSet
EndChar
StartChar: M
Encoding: 45 77 56
Width: 600
Flags: W
HStem: 0 41<21.5938 81 122 219.551 400.594 500 541 597.554> 522 41<141.594 183 224 232 594 602 643 699.554>
Fore
393 16 m 0
 393 26 400 41 426 41 c 2
 500 41 l 1
 602 522 l 1
 594 522 l 1
 362 169 l 1
 316 169 l 1
 232 522 l 1
 224 522 l 1
 122 41 l 1
 196 41 l 2
 212 41 220 36 220 26 c 0
 220 16 213 0 187 0 c 2
 38 0 l 2
 22 0 14 5 14 16 c 0
 14 26 21 41 47 41 c 2
 81 41 l 1
 183 522 l 1
 158 522 l 2
 142 522 134 527 134 538 c 0
 134 548 141 563 167 563 c 2
 266 563 l 1
 349 215 l 1
 577 563 l 1
 677 563 l 2
 692 563 700 558 700 548 c 0
 700 538 693 522 668 522 c 2
 643 522 l 1
 541 41 l 1
 575 41 l 2
 590 41 598 36 598 26 c 0
 598 16 591 0 566 0 c 2
 417 0 l 2
 401 0 393 5 393 16 c 0
EndSplineSet
EndChar
StartChar: N
Encoding: 46 78 57
Width: 600
Flags: W
HStem: 0 41<52.5938 112 153 250.554> 522 41<143.594 214 479.748 571 612 677.554>
Fore
678 548 m 0
 678 538 671 522 646 522 c 2
 612 522 l 1
 501 0 l 1
 449 0 l 1
 251 504 l 1
 153 41 l 1
 228 41 l 2
 243 41 251 36 251 26 c 0
 251 16 244 0 219 0 c 2
 69 0 l 2
 53 0 45 5 45 16 c 0
 45 26 52 41 78 41 c 2
 112 41 l 1
 214 522 l 1
 160 522 l 2
 144 522 136 527 136 538 c 0
 136 548 143 563 169 563 c 2
 275 563 l 1
 473 59 l 1
 571 522 l 1
 497 522 l 2
 481 522 472 527 472 538 c 0
 472 548 479 563 506 563 c 2
 655 563 l 2
 670 563 678 558 678 548 c 0
EndSplineSet
EndChar
StartChar: O
Encoding: 47 79 58
Width: 600
Flags: W
HStem: -16 41<227.573 391.027> 535 41<327.944 493.633>
VStem: 103 42<115.712 325.035> 574 43<230.063 444.51>
Fore
103 205 m 0
 103 390 255 576 422 576 c 0
 540 576 617 484 617 354 c 0
 617 157 454 -16 297 -16 c 0
 180 -16 103 77 103 205 c 0
305 25 m 0
 435 25 574 176 574 344 c 0
 574 455 511 535 414 535 c 0
 275 535 145 374 145 216 c 0
 145 106 209 25 305 25 c 0
EndSplineSet
EndChar
StartChar: P
Encoding: 48 80 59
Width: 600
Flags: W
HStem: 0 41<53.5938 133 174 335.551> 231 41<223 445.197> 522 41<164.594 235 276 500.663>
VStem: 545 42<356.171 479.353>
Fore
587 429 m 0
 587 310 456 231 345 231 c 2
 214 231 l 1
 174 41 l 1
 312 41 l 2
 328 41 336 36 336 26 c 0
 336 16 329 0 303 0 c 2
 70 0 l 2
 54 0 46 5 46 16 c 0
 46 26 53 41 79 41 c 2
 133 41 l 1
 235 522 l 1
 181 522 l 2
 165 522 157 527 157 538 c 0
 157 548 164 563 190 563 c 2
 430 563 l 2
 524 563 587 506 587 429 c 0
357 272 m 2
 447 272 545 337 545 420 c 0
 545 477 495 522 425 522 c 2
 276 522 l 1
 223 272 l 1
 357 272 l 2
EndSplineSet
EndChar
StartChar: Q
Encoding: 49 81 60
Width: 600
Flags: W
HStem: -115 41<352.726 494.283> -89 41<260.633 389.857> -16 41<302 390.055> 535 41<327.387 493.633>
VStem: 103 42<115.749 324.672> 574 43<232.746 444.088>
Fore
103 206 m 0x7c
 103 387 252 576 422 576 c 0
 540 576 617 482 617 354 c 0
 617 169 467 -11 302 -16 c 1
 239 -56 l 1
 270 -50 287 -48 308 -48 c 0x7c
 381 -48 393 -74 429 -74 c 0
 472 -74 500 -43 517 -43 c 0
 526 -43 533 -49 533 -59 c 0
 533 -89 450 -115 418 -115 c 0xbc
 376 -115 357 -89 299 -89 c 0
 269 -89 200 -100 154 -112 c 0
 150 -113 147 -114 144 -114 c 0
 134 -114 128 -107 128 -97 c 0
 128 -88 134 -81 143 -75 c 2
 247 -10 l 1
 157 11 103 98 103 206 c 0x7c
305 25 m 0
 435 25 574 176 574 344 c 0
 574 455 511 535 414 535 c 0
 275 535 145 374 145 216 c 0
 145 106 209 25 305 25 c 0
EndSplineSet
EndChar
StartChar: R
Encoding: 50 82 61
Width: 600
Flags: W
HStem: 0 41<53.5938 133 174 271.554 540 593.554> 251 41<227 350> 522 41<164.594 235 276 501.396>
VStem: 546 42<368.634 480.827>
Fore
594 26 m 0
 594 16 587 0 562 0 c 2
 505 0 l 1
 451 162 419 216 350 251 c 1
 218 251 l 1
 174 41 l 1
 249 41 l 2
 264 41 272 36 272 26 c 0
 272 16 265 0 240 0 c 2
 70 0 l 2
 54 0 46 5 46 16 c 0
 46 26 53 41 79 41 c 2
 133 41 l 1
 235 522 l 1
 181 522 l 2
 165 522 157 527 157 538 c 0
 157 548 164 563 190 563 c 2
 438 563 l 2
 525 563 588 505 588 433 c 0
 588 365 537 301 415 262 c 1
 469 219 489 182 540 41 c 1
 571 41 l 2
 586 41 594 36 594 26 c 0
341 292 m 2
 441 292 546 349 546 425 c 0
 546 478 494 522 429 522 c 2
 276 522 l 1
 227 292 l 1
 341 292 l 2
EndSplineSet
EndChar
StartChar: S
Encoding: 51 83 62
Width: 600
Flags: W
HStem: -16 41<215.196 403.501> 535 41<326.48 497.519>
VStem: 97 65<10.5 134> 201 44<347.473 461.234> 499 45<109.693 228.066> 537 64<441.003 552.5>
Fore
201 394 m 0xf8
 201 483 294 576 421 576 c 0
 480 576 522 558 555 517 c 1
 559 536 l 2
 563 554 572 563 586 563 c 0
 596 563 601 558 601 547 c 0
 601 544 601 540 600 536 c 2
 578 433 l 2
 574 415 565 406 552 406 c 0
 541 406 536 412 536 424 c 0
 536 432 537 432 537 444 c 0xf4
 537 497 488 535 416 535 c 0
 316 535 245 466 245 397 c 0
 245 260 544 362 544 184 c 0
 544 86 447 -16 299 -16 c 0
 230 -16 176 9 145 56 c 1
 139 27 l 2
 135 9 126 0 112 0 c 0
 102 0 97 5 97 16 c 0
 97 19 97 23 98 27 c 2
 122 139 l 2
 125 157 134 166 148 166 c 0
 159 166 164 161 164 150 c 0
 164 141 162 141 162 127 c 0
 162 69 222 25 306 25 c 0
 421 25 499 103 499 174 c 0
 499 295 319 245 234 317 c 0
 212 335 201 362 201 394 c 0xf8
EndSplineSet
EndChar
StartChar: T
Encoding: 52 84 63
Width: 600
Flags: W
HStem: 0 41<158.594 289 330 457.554> 422 21G<176.5 189 593 605> 522 41<224 391 432 598>
VStem: 151 497<16 563 412 445.793>
Fore
151 16 m 0
 151 26 158 41 184 41 c 2
 289 41 l 1
 391 522 l 1
 224 522 l 1
 208 449 l 2
 205 431 196 422 182 422 c 0
 171 422 166 428 166 440 c 0
 166 443 166 446 167 449 c 2
 192 563 l 1
 648 563 l 1
 623 449 l 2
 619 430 612 422 598 422 c 0
 588 422 581 430 581 442 c 0
 581 444 582 447 582 449 c 1
 598 522 l 1
 432 522 l 1
 330 41 l 1
 435 41 l 2
 450 41 458 36 458 26 c 0
 458 16 451 0 426 0 c 2
 175 0 l 2
 159 0 151 5 151 16 c 0
EndSplineSet
EndChar
StartChar: U
Encoding: 53 85 64
Width: 600
Flags: W
HStem: -16 41<229.251 388.311> 522 41<161.178 212 253 358.554 477.773 569 610 675.569>
VStem: 135 42<76.5741 171.627 170.234 173.02 173.02 185 185 201.382>
Fore
676 549 m 0
 676 538 671 522 644 522 c 2
 610 522 l 1
 538 185 l 2
 514 71 409 -16 297 -16 c 0
 199 -16 135 49 135 140 c 0
 135 155 137 170 140 185 c 2
 212 522 l 1
 178 522 l 2
 162 522 154 527 154 538 c 0
 154 548 160 563 187 563 c 2
 336 563 l 2
 351 563 359 558 359 548 c 0
 359 538 352 522 327 522 c 2
 253 522 l 1
 181 185 l 2
 178 173 177 161 177 150 c 0
 177 77 228 25 305 25 c 0
 393 25 478 95 497 185 c 2
 569 522 l 1
 495 522 l 2
 479 522 471 527 471 538 c 0
 471 548 476 563 504 563 c 2
 653 563 l 2
 669 563 676 559 676 549 c 0
EndSplineSet
EndChar
StartChar: V
Encoding: 54 86 65
Width: 600
Flags: W
HStem: 0 21G<263.59 336.261> 522 41<130.178 178 221 322.584 508.178 603 644 699.584>
Fore
707 549 m 0
 707 538 702 522 675 522 c 2
 644 522 l 1
 324 0 l 1
 267 0 l 1
 178 522 l 1
 147 522 l 2
 131 522 123 527 123 538 c 0
 123 548 129 563 156 563 c 2
 307 563 l 2
 322 563 330 559 330 549 c 0
 330 538 325 522 298 522 c 2
 221 522 l 1
 305 41 l 1
 308 41 l 1
 603 522 l 1
 525 522 l 2
 509 522 501 527 501 538 c 0
 501 548 507 563 534 563 c 2
 684 563 l 2
 699 563 707 559 707 549 c 0
EndSplineSet
EndChar
StartChar: W
Encoding: 55 87 66
Width: 600
Flags: W
HStem: 0 21G<122 195 410.65 482.628> 522 41<141.594 173 214 339.602 497.594 610 649 695.554>
Fore
696 548 m 0
 696 538 689 522 664 522 c 2
 649 522 l 1
 476 0 l 1
 412 0 l 1
 385 400 l 1
 185 0 l 1
 122 0 l 1
 173 522 l 1
 158 522 l 2
 142 522 134 527 134 538 c 0
 134 548 141 563 167 563 c 2
 316 563 l 2
 332 563 340 558 340 548 c 0
 340 539 334 522 307 522 c 2
 214 522 l 1
 169 46 l 1
 364 438 l 1
 426 438 l 1
 452 46 l 1
 610 522 l 1
 514 522 l 2
 498 522 490 527 490 538 c 0
 490 548 497 563 523 563 c 2
 673 563 l 2
 688 563 696 558 696 548 c 0
EndSplineSet
EndChar
StartChar: X
Encoding: 56 88 67
Width: 600
Flags: W
HStem: 0 41<50.5938 93 143 229.554 384.594 472 525 564.554> 522 41<172.594 204 256 330.554 502.594 564 615 654.584>
Fore
662 549 m 0
 662 538 657 522 630 522 c 2
 615 522 l 1
 386 288 l 1
 525 41 l 1
 542 41 l 2
 557 41 565 36 565 26 c 0
 565 16 558 0 533 0 c 2
 401 0 l 2
 385 0 377 5 377 16 c 0
 377 26 384 41 410 41 c 2
 472 41 l 1
 352 255 l 1
 143 41 l 1
 207 41 l 2
 222 41 230 36 230 26 c 0
 230 16 223 0 198 0 c 2
 67 0 l 2
 51 0 43 5 43 16 c 0
 43 26 50 41 76 41 c 2
 93 41 l 1
 333 288 l 1
 204 522 l 1
 189 522 l 2
 173 522 165 527 165 538 c 0
 165 548 172 563 198 563 c 2
 308 563 l 2
 323 563 331 558 331 548 c 0
 331 538 324 522 299 522 c 2
 256 522 l 1
 368 321 l 1
 564 522 l 1
 519 522 l 2
 503 522 495 527 495 538 c 0
 495 548 502 563 528 563 c 2
 639 563 l 2
 654 563 662 559 662 549 c 0
EndSplineSet
EndChar
StartChar: Y
Encoding: 57 89 68
Width: 600
Flags: W
HStem: 0 41<159.594 290 331 458.554> 522 41<172.594 213 262 331.554 505.748 563 609 664.609>
Fore
665 548 m 0
 665 537 657 522 633 522 c 2
 609 522 l 1
 376 254 l 1
 331 41 l 1
 436 41 l 2
 451 41 459 36 459 26 c 0
 459 16 452 0 427 0 c 2
 176 0 l 2
 160 0 152 5 152 16 c 0
 152 26 159 41 185 41 c 2
 290 41 l 1
 335 254 l 1
 213 522 l 1
 189 522 l 2
 173 522 165 527 165 538 c 0
 165 548 172 563 198 563 c 2
 309 563 l 2
 324 563 332 558 332 548 c 0
 332 538 325 522 300 522 c 2
 262 522 l 1
 366 295 l 1
 563 522 l 1
 523 522 l 2
 507 522 498 527 498 538 c 0
 498 548 505 563 532 563 c 2
 642 563 l 2
 657 563 665 557 665 548 c 0
EndSplineSet
EndChar
StartChar: Z
Encoding: 58 90 69
Width: 600
Flags: W
HStem: 0 41<151 465> 522 41<273 542>
VStem: 103 487<0 563 1.53064e-18 1.53064e-18>
Fore
497 0 m 1
 103 0 l 1
 116 59 l 1
 541 519 l 1
 542 522 l 1
 273 522 l 1
 248 404 l 2
 244 385 235 376 222 376 c 0
 211 376 206 381 206 393 c 0
 206 396 206 400 207 404 c 2
 241 563 l 1
 590 563 l 1
 577 505 l 1
 152 45 l 1
 151 41 l 1
 465 41 l 1
 495 182 l 2
 499 200 506 209 520 209 c 0
 531 209 537 203 537 192 c 0
 537 189 537 186 536 182 c 2
 497 0 l 1
EndSplineSet
EndChar
StartChar: bracketleft
Encoding: 59 91 70
Width: 600
Flags: W
HStem: -124 41<303 423.554> 563 41<441 569.554>
VStem: 254 316<-124 589 -124 -124>
Fore
570 589 m 0
 570 579 563 563 538 563 c 2
 441 563 l 1
 303 -83 l 1
 400 -83 l 2
 416 -83 424 -88 424 -98 c 0
 424 -108 417 -124 392 -124 c 2
 254 -124 l 1
 408 604 l 1
 546 604 l 2
 562 604 570 599 570 589 c 0
EndSplineSet
EndChar
StartChar: backslash
Encoding: 60 92 71
Width: 600
Flags: W
VStem: 250 225
Fore
250 644 m 0
 250 659 266 668 276 668 c 0
 285 668 289 664 293 650 c 2
 472 -46 l 1
 474 -50 475 -54 475 -57 c 0
 475 -71 460 -81 450 -81 c 0
 440 -81 436 -77 432 -63 c 2
 253 633 l 2
 251 638 250 642 250 644 c 0
EndSplineSet
EndChar
StartChar: bracketright
Encoding: 61 93 72
Width: 600
Flags: W
HStem: -124 41<132.446 261> 563 41<278.446 399>
VStem: 132 316<-109 604 -109 -109>
Fore
132 -109 m 0
 132 -99 139 -83 164 -83 c 2
 261 -83 l 1
 399 563 l 1
 302 563 l 2
 286 563 278 568 278 578 c 0
 278 588 285 604 310 604 c 2
 448 604 l 1
 294 -124 l 1
 156 -124 l 2
 140 -124 132 -119 132 -109 c 0
EndSplineSet
EndChar
StartChar: asciicircum
Encoding: 62 94 73
Width: 600
Flags: W
HStem: 354 261<431 542 431 431>
VStem: 192 375<368 379 370 378 370 370>
Fore
567 378 m 0
 567 368 557 354 542 354 c 0
 534 354 530 357 525 367 c 2
 417 552 l 1
 231 367 l 2
 222 357 216 354 208 354 c 0
 198 354 192 361 192 370 c 0
 192 379 200 387 205 392 c 2
 431 615 l 1
 561 392 l 1
 565 387 567 382 567 378 c 0
EndSplineSet
EndChar
StartChar: underscore
Encoding: 63 95 74
Width: 600
Flags: W
HStem: -125 50<-28 585>
Fore
596 -75 m 1
 585 -125 l 1
 -39 -125 l 1
 -28 -75 l 1
 596 -75 l 1
EndSplineSet
EndChar
StartChar: grave
Encoding: 64 96 75
Width: 600
Flags: W
HStem: 490 149
VStem: 286 144
Fore
286 614 m 0
 286 626 297 639 311 639 c 0
 317 639 321 636 328 630 c 2
 421 530 l 1
 429 517 430 518 430 515 c 0
 430 503 417 490 403 490 c 0
 398 490 393 493 387 499 c 2
 294 599 l 2
 289 605 286 609 286 614 c 0
EndSplineSet
EndChar
StartChar: a
Encoding: 65 97 76
Width: 600
Flags: W
HStem: -16 41<157.823 330.832> 0 41<469 545.554> 217 41<218.697 394.896> 390 41<306.344 462.175>
VStem: 93 42<47.9607 151.17> 486 42<308.305 365.294>
Fore
546 26 m 0x7c
 546 16 539 0 514 0 c 2
 419 0 l 1x7c
 433 67 l 1
 360 10 295 -16 225 -16 c 0xbc
 143 -16 93 24 93 86 c 0
 93 189 206 258 338 258 c 0
 384 258 414 253 469 237 c 1
 484 308 l 2
 485 313 486 318 486 323 c 0
 486 364 444 390 379 390 c 0
 314 390 234 358 220 358 c 0
 211 358 205 365 205 374 c 0
 205 389 219 396 227 399 c 0
 286 418 354 431 391 431 c 0
 474 431 528 390 528 331 c 0
 528 324 527 316 525 308 c 2
 469 41 l 1
 523 41 l 2
 538 41 546 36 546 26 c 0x7c
337 217 m 0
 225 217 135 168 135 94 c 0
 135 52 171 25 232 25 c 0xbc
 303 25 362 49 443 112 c 1
 462 202 l 1
 428 211 381 217 337 217 c 0
EndSplineSet
EndChar
StartChar: b
Encoding: 66 98 77
Width: 600
Flags: W
HStem: -16 41<248.548 413.253> 0 41<32.5938 112> 390 41<318.847 484.602> 563 41<152.594 223>
VStem: 548 43<161.531 326.406>
Fore
145 579 m 0x78
 145 589 152 604 177 604 c 2
 272 604 l 1
 214 328 l 1
 279 399 342 431 416 431 c 0
 522 431 591 358 591 258 c 0
 591 116 457 -16 321 -16 c 0xb8
 248 -16 195 18 163 88 c 1
 144 0 l 1
 49 0 l 2
 33 0 25 5 25 16 c 0
 25 26 32 41 58 41 c 2
 112 41 l 1
 223 563 l 1
 169 563 l 2
 153 563 145 568 145 579 c 0x78
327 25 m 0
 435 25 548 128 548 246 c 0
 548 330 491 390 405 390 c 0
 285 390 184 277 184 169 c 0
 184 87 241 25 327 25 c 0
EndSplineSet
EndChar
StartChar: c
Encoding: 67 99 78
Width: 600
Flags: W
HStem: -16 41<228.088 426.511> 390 41<297.712 487.605>
VStem: 122 42<85.0913 253.424> 534 61<298.168 406>
Fore
122 154 m 0
 122 288 238 431 406 431 c 0
 467 431 517 412 550 376 c 1
 553 389 l 2
 557 408 566 417 580 417 c 0
 590 417 595 412 595 400 c 0
 595 397 595 393 594 389 c 2
 574 298 l 2
 571 280 562 271 549 271 c 0
 538 271 533 276 533 288 c 0
 533 294 534 296 534 303 c 0
 534 352 474 390 394 390 c 0
 252 390 164 270 164 162 c 0
 164 80 222 25 316 25 c 0
 389 25 456 49 519 97 c 0
 528 105 532 107 539 107 c 0
 548 107 554 100 554 91 c 0
 554 62 434 -16 306 -16 c 0
 193 -16 122 53 122 154 c 0
EndSplineSet
EndChar
StartChar: d
Encoding: 68 100 79
Width: 600
Flags: W
HStem: -16 41<208.217 373.537> 0 41<511 587.554> 390 41<277.501 445.77> 563 41<510.594 581>
VStem: 102 42<90.0811 255.901>
Fore
503 579 m 0xb8
 503 589 510 604 535 604 c 2
 630 604 l 1
 511 41 l 1
 565 41 l 2
 580 41 588 36 588 26 c 0
 588 16 581 0 556 0 c 2
 461 0 l 1x78
 480 89 l 1
 418 19 351 -16 276 -16 c 0
 173 -16 102 60 102 160 c 0
 102 304 238 431 371 431 c 0
 446 431 497 398 531 327 c 1
 581 563 l 1
 527 563 l 2
 511 563 503 568 503 579 c 0xb8
288 25 m 0xb8
 398 25 509 126 509 247 c 0
 509 330 452 390 365 390 c 0
 248 390 144 279 144 169 c 0
 144 86 201 25 288 25 c 0xb8
EndSplineSet
EndChar
StartChar: e
Encoding: 69 101 80
Width: 600
Flags: W
HStem: -16 41<220.81 426.776> 199 41<155 529> 390 41<275.636 461.593>
VStem: 104 41<95.9303 192.416 190.477 194.354> 529 42<240.697 324.431>
Fore
383 431 m 0
 510 431 571 343 571 259 c 0
 571 243 568 225 562 199 c 1
 146 199 l 1
 146 193 145 187 145 182 c 0
 145 87 209 25 311 25 c 0
 373 25 451 47 498 79 c 0
 506 84 510 86 515 86 c 0
 524 86 530 79 530 70 c 0
 530 30 386 -16 302 -16 c 0
 184 -16 104 62 104 169 c 0
 104 305 231 431 383 431 c 0
155 240 m 1
 529 240 l 1
 529 246 l 0
 529 334 469 390 374 390 c 0
 277 390 193 332 155 240 c 1
EndSplineSet
EndChar
StartChar: f
Encoding: 70 102 81
Width: 600
Flags: W
HStem: 0 41<115.594 239 280 480.554> 376 41<205.594 310 360 571.554> 551 40<608.634 649> 563 41<420.149 566.479>
Fore
572 402 m 0xd0
 572 392 565 376 540 376 c 2
 351 376 l 1
 280 41 l 1
 458 41 l 2
 473 41 481 36 481 26 c 0
 481 16 474 0 449 0 c 2
 132 0 l 2
 116 0 108 5 108 16 c 0
 108 26 115 41 141 41 c 2
 239 41 l 1
 310 376 l 1
 222 376 l 2
 206 376 198 381 198 392 c 0
 198 402 205 417 231 417 c 2
 319 417 l 1
 332 478 l 2
 347 551 422 604 512 604 c 0xd0
 550 604 618 597 649 591 c 0
 658 588 662 583 662 576 c 0
 662 561 650 551 637 551 c 0xe0
 630 551 552 563 502 563 c 0
 436 563 383 528 373 478 c 2
 360 417 l 1
 549 417 l 2
 564 417 572 412 572 402 c 0xd0
EndSplineSet
EndChar
StartChar: g
Encoding: 71 103 82
Width: 600
Flags: W
HStem: -186 41<146.828 359.869> 10 41<207.309 364.926> 376 41<561 646.554> 390 41<268.81 433.217>
VStem: 105 42<109.374 267.824>
Fore
105 176 m 0xe8
 105 311 235 431 361 431 c 0xd8
 434 431 480 401 511 334 c 1
 529 417 l 1
 624 417 l 2
 639 417 647 412 647 402 c 0
 647 392 640 376 615 376 c 2
 561 376 l 1
 475 -28 l 2
 466 -69 447 -100 410 -132 c 0
 367 -169 326 -186 276 -186 c 2
 162 -186 l 2
 147 -186 139 -181 139 -171 c 0
 139 -160 146 -145 171 -145 c 2
 287 -145 l 2
 355 -145 421 -90 435 -22 c 2
 463 107 l 1
 404 41 343 10 271 10 c 0
 173 10 105 81 105 176 c 0xe8
283 51 m 0
 387 51 491 146 491 257 c 0
 491 335 437 390 355 390 c 0
 241 390 147 286 147 185 c 0
 147 108 202 51 283 51 c 0
EndSplineSet
EndChar
StartChar: h
Encoding: 72 104 83
Width: 600
Flags: W
HStem: 0 41<61.5843 133 174 242.551 375.594 446 487 555.602> 390 41<321.208 471.638> 563 41<173.594 244>
VStem: 498 42<274.491 288 288 298.5 298.5 305.523 302.012 345.861>
Fore
166 579 m 0
 166 589 173 604 198 604 c 2
 293 604 l 1
 239 347 l 1
 303 408 350 431 411 431 c 0
 492 431 543 386 543 320 c 0
 543 311 542 301 540 291 c 2
 487 41 l 1
 532 41 l 2
 548 41 556 36 556 26 c 0
 556 17 550 0 523 0 c 2
 392 0 l 2
 376 0 368 5 368 16 c 0
 368 26 375 41 401 41 c 2
 446 41 l 1
 498 288 l 2
 500 295 500 302 500 309 c 0
 500 330 492 349 476 364 c 0
 457 383 437 390 397 390 c 0
 341 390 309 373 242 309 c 2
 228 296 l 1
 174 41 l 1
 219 41 l 2
 235 41 243 36 243 26 c 0
 243 16 236 0 210 0 c 2
 78 0 l 2
 63 0 54 5 54 16 c 0
 54 26 61 41 87 41 c 2
 133 41 l 1
 244 563 l 1
 190 563 l 2
 174 563 166 568 166 579 c 0
EndSplineSet
EndChar
StartChar: i
Encoding: 73 105 84
Width: 600
Flags: W
HStem: 0 41<102.594 288 329 512.551> 376 41<224.594 359>
VStem: 95 418<13.9151 27.7902>
Fore
217 392 m 0
 217 402 224 417 250 417 c 2
 409 417 l 1
 329 41 l 1
 489 41 l 2
 505 41 513 36 513 26 c 0
 513 16 506 0 480 0 c 2
 119 0 l 2
 103 0 95 5 95 16 c 0
 95 26 102 41 128 41 c 2
 288 41 l 1
 359 376 l 1
 241 376 l 2
 225 376 217 381 217 392 c 0
451 624 m 1
 429 520 l 1
 370 520 l 1
 392 624 l 1
 451 624 l 1
EndSplineSet
EndChar
StartChar: j
Encoding: 74 106 85
Width: 600
Flags: W
HStem: -186 41<118.828 343.131> 376 41<239.594 497>
VStem: 111 436<-171 417 -171 242.043>
Fore
111 -171 m 0
 111 -160 118 -145 143 -145 c 2
 271 -145 l 2
 337 -145 397 -96 411 -28 c 2
 497 376 l 1
 256 376 l 2
 240 376 232 381 232 392 c 0
 232 402 239 417 265 417 c 2
 547 417 l 1
 452 -28 l 2
 432 -121 354 -186 263 -186 c 2
 134 -186 l 2
 119 -186 111 -181 111 -171 c 0
547 624 m 1
 525 520 l 1
 466 520 l 1
 488 624 l 1
 547 624 l 1
EndSplineSet
EndChar
StartChar: k
Encoding: 75 107 86
Width: 600
Flags: W
HStem: 0 41<73.5938 153 366.594 420 478 545.554> 376 41<399.594 438 499 577.554> 563 41<193.594 264>
Fore
359 16 m 0
 359 26 366 41 392 41 c 2
 420 41 l 1
 278 219 l 1
 223 180 l 1
 185 0 l 1
 90 0 l 2
 74 0 66 5 66 16 c 0
 66 26 73 41 99 41 c 2
 153 41 l 1
 264 563 l 1
 210 563 l 2
 194 563 186 568 186 579 c 0
 186 589 193 604 218 604 c 2
 313 604 l 1
 234 229 l 1
 438 376 l 1
 416 376 l 2
 400 376 392 381 392 392 c 0
 392 402 399 417 425 417 c 2
 555 417 l 2
 570 417 578 412 578 402 c 0
 578 392 571 376 546 376 c 2
 499 376 l 1
 314 245 l 1
 478 41 l 1
 523 41 l 2
 538 41 546 36 546 26 c 0
 546 16 539 0 514 0 c 2
 383 0 l 2
 367 0 359 5 359 16 c 0
EndSplineSet
EndChar
StartChar: l
Encoding: 76 108 87
Width: 600
Flags: W
HStem: 0 41<102.594 288 329 512.551> 563 41<265.594 399>
VStem: 95 418<13.9151 27.7902>
Fore
258 579 m 0
 258 589 265 604 290 604 c 2
 448 604 l 1
 329 41 l 1
 489 41 l 2
 505 41 513 36 513 26 c 0
 513 16 506 0 480 0 c 2
 119 0 l 2
 103 0 95 5 95 16 c 0
 95 26 102 41 128 41 c 2
 288 41 l 1
 399 563 l 1
 282 563 l 2
 266 563 258 568 258 579 c 0
EndSplineSet
EndChar
StartChar: m
Encoding: 77 109 88
Width: 600
Flags: W
HStem: 0 41<21.8282 81 121 177.554 331 387.554 541 597.554> 376 41<101.594 152> 390 41<241.967 339.76 450.046 551.104>
VStem: 562 36<306.55 326.5 326.5 334.023 330.262 379.003>
Fore
94 392 m 0xd0
 94 402 101 417 127 417 c 2
 201 417 l 1xd0
 190 365 l 1
 234 413 267 431 309 431 c 0
 352 431 379 408 391 360 c 1
 440 410 478 431 519 431 c 0
 569 431 603 394 603 345 c 0
 603 338 603 331 601 323 c 2
 541 41 l 1
 575 41 l 2
 590 41 598 36 598 26 c 0
 598 16 591 0 566 0 c 2
 492 0 l 1
 560 319 l 2
 561 324 562 329 562 334 c 0
 562 365 539 390 509 390 c 0
 473 390 438 366 387 308 c 1
 331 41 l 1
 365 41 l 2
 380 41 388 36 388 26 c 0
 388 16 381 0 356 0 c 2
 282 0 l 1
 349 316 l 2
 350 321 351 326 351 331 c 0
 351 364 329 390 300 390 c 0xb0
 265 390 228 365 177 308 c 1
 121 41 l 1
 155 41 l 2
 170 41 178 36 178 26 c 0
 178 16 171 0 146 0 c 2
 37 0 l 2
 22 0 14 5 14 16 c 0
 14 26 21 41 47 41 c 2
 81 41 l 1
 152 376 l 1
 118 376 l 2
 102 376 94 381 94 392 c 0xd0
EndSplineSet
EndChar
StartChar: n
Encoding: 78 110 89
Width: 600
Flags: W
HStem: 0 41<63.7478 135 176 243.554 388.594 448 489 545.554> 376 41<155.594 206> 390 41<324.296 472.662>
VStem: 500 43<278.537 288 295 298.5 298.5 308.023 303.262 345.768>
Fore
148 392 m 0xd0
 148 402 155 417 181 417 c 2
 256 417 l 1xd0
 241 348 l 1
 313 412 353 431 415 431 c 0
 494 431 546 385 546 321 c 0
 546 313 545 304 543 295 c 2
 489 41 l 1
 523 41 l 2
 538 41 546 36 546 26 c 0
 546 16 539 0 514 0 c 2
 405 0 l 2
 389 0 381 5 381 16 c 0
 381 26 388 41 414 41 c 2
 448 41 l 1
 500 288 l 2
 502 295 502 302 502 309 c 0
 502 330 494 348 478 364 c 0
 459 384 441 390 402 390 c 0xb0
 331 390 290 355 229 294 c 1
 176 41 l 1
 221 41 l 2
 236 41 244 36 244 26 c 0
 244 16 237 0 212 0 c 2
 81 0 l 2
 65 0 56 5 56 16 c 0
 56 26 63 41 90 41 c 2
 135 41 l 1
 206 376 l 1
 172 376 l 2
 156 376 148 381 148 392 c 0xd0
EndSplineSet
EndChar
StartChar: o
Encoding: 79 111 90
Width: 600
Flags: W
HStem: -16 41<222.08 395.941> 390 41<292.516 467.891>
VStem: 111 42<94.1567 255.018> 535 42<157.585 323.53>
Fore
111 162 m 0
 111 298 243 431 392 431 c 0
 503 431 577 356 577 254 c 0
 577 113 443 -16 297 -16 c 0
 186 -16 111 59 111 162 c 0
305 25 m 0
 423 25 535 129 535 245 c 0
 535 330 474 390 383 390 c 0
 268 390 153 289 153 170 c 0
 153 87 214 25 305 25 c 0
EndSplineSet
EndChar
StartChar: p
Encoding: 80 112 91
Width: 600
Flags: W
HStem: -186 41<-6.17174 72 113 234.551> 10 41<250.549 423.787> 376 41<112.594 183> 390 41<315.448 489.121>
VStem: 551 42<172.745 329.119>
Fore
105 392 m 0xe8
 105 402 112 417 138 417 c 2
 233 417 l 1xe8
 215 335 l 1
 283 404 339 431 415 431 c 0xd8
 523 431 593 362 593 266 c 0
 593 137 472 10 325 10 c 0
 248 10 199 40 167 106 c 1
 113 -145 l 1
 211 -145 l 2
 227 -145 235 -150 235 -160 c 0
 235 -170 228 -186 202 -186 c 2
 9 -186 l 2
 -6 -186 -14 -181 -14 -171 c 0
 -14 -160 -7 -145 18 -145 c 2
 72 -145 l 1
 183 376 l 1
 129 376 l 2
 113 376 105 381 105 392 c 0xe8
333 51 m 0
 447 51 551 149 551 255 c 0
 551 334 493 390 405 390 c 0xd8
 297 390 187 297 187 186 c 0
 187 108 246 51 333 51 c 0
EndSplineSet
EndChar
StartChar: q
Encoding: 81 113 92
Width: 600
Flags: W
HStem: -186 41<307.828 430 471 548.551> 10 41<210.769 384.856> 376 41<582 667.554> 390 41<274.449 448.188>
VStem: 105 42<112.532 269.322>
Fore
105 176 m 0xe8
 105 305 225 431 374 431 c 0xd8
 451 431 499 401 532 335 c 1
 550 417 l 1
 645 417 l 2
 660 417 668 412 668 402 c 0
 668 392 661 376 636 376 c 2
 582 376 l 1
 471 -145 l 1
 525 -145 l 2
 541 -145 549 -150 549 -160 c 0
 549 -170 542 -186 516 -186 c 2
 323 -186 l 2
 308 -186 300 -181 300 -171 c 0
 300 -160 307 -145 332 -145 c 2
 430 -145 l 1
 484 106 l 1
 424 40 361 10 283 10 c 0
 176 10 105 80 105 176 c 0xe8
293 51 m 0
 398 51 512 140 512 255 c 0
 512 333 453 390 365 390 c 0
 252 390 147 295 147 186 c 0
 147 108 206 51 293 51 c 0
EndSplineSet
EndChar
StartChar: r
Encoding: 82 114 93
Width: 600
Flags: W
HStem: 0 41<88.1726 216 257 451.172> 376 41<189.173 287> 386 41<452.633 567.691>
Fore
189 393 m 0xc0
 189 407 204 417 221 417 c 2
 337 417 l 1xc0
 315 315 l 1
 426 399 481 427 532 427 c 0
 561 427 581 418 602 396 c 0
 615 383 619 376 619 368 c 0
 619 358 609 344 593 344 c 0
 586 344 584 345 579 352 c 0
 560 375 542 386 520 386 c 0xa0
 475 386 435 363 304 262 c 1
 257 41 l 1
 436 41 l 2
 451 41 459 35 459 25 c 0
 459 10 446 0 427 0 c 2
 111 0 l 2
 96 0 88 6 88 17 c 0
 88 31 103 41 120 41 c 2
 216 41 l 1
 287 376 l 1
 212 376 l 2
 197 376 189 382 189 393 c 0xc0
EndSplineSet
EndChar
StartChar: s
Encoding: 83 115 94
Width: 600
Flags: W
HStem: -16 41<204.692 408.832> 390 41<286.012 472.701>
VStem: 108 58<13.8563 109.403> 190 45<281.841 349.119> 478 46<79.5795 172.517> 499 58<323 400>
Fore
190 300 m 0xf8
 190 367 271 431 387 431 c 0
 444 431 485 416 514 385 c 1
 515 390 520 417 542 417 c 0
 552 417 557 412 557 400 c 0
 557 397 557 393 556 389 c 2
 541 320 l 2
 537 302 528 293 515 293 c 0
 504 293 499 299 499 312 c 2
 499 323 l 2xf4
 499 364 454 390 382 390 c 0
 302 390 235 351 235 308 c 0
 235 294 243 280 258 270 c 0
 308 233 417 262 491 206 c 0
 512 189 524 163 524 136 c 0
 524 60 433 -16 298 -16 c 0
 233 -16 186 1 152 38 c 1
 150 27 l 2
 146 9 137 0 124 0 c 0
 113 0 108 5 108 16 c 0
 108 19 108 23 109 27 c 2
 126 110 l 2
 130 128 139 137 153 137 c 0
 163 137 169 131 169 121 c 0
 169 117 166 105 166 98 c 0
 166 57 224 25 303 25 c 0
 399 25 478 72 478 127 c 0
 478 252 190 160 190 300 c 0xf8
EndSplineSet
EndChar
StartChar: t
Encoding: 84 116 95
Width: 600
Flags: W
HStem: -16 41<228.664 428.533> 376 41<133.748 225 275 517.554> 543 20G<279 291.5>
VStem: 126 392<389.915 403.79> 165 42<46.9651 107.648>
Fore
126 392 m 0xf0
 126 402 133 417 160 417 c 2
 234 417 l 1
 259 536 l 2
 263 554 272 563 286 563 c 0
 297 563 301 558 301 548 c 0
 301 545 301 541 300 536 c 2
 275 417 l 1
 495 417 l 2
 510 417 518 412 518 402 c 0xf0
 518 392 511 376 486 376 c 2
 266 376 l 1
 209 109 l 2
 208 103 207 97 207 92 c 0
 207 51 242 25 303 25 c 0
 359 25 434 42 478 65 c 0
 487 70 490 71 495 71 c 0
 504 71 510 63 510 54 c 0
 510 20 373 -16 297 -16 c 0
 214 -16 165 21 165 81 c 0xe8
 165 89 166 98 168 107 c 2
 225 376 l 1
 151 376 l 2
 135 376 126 381 126 392 c 0xf0
EndSplineSet
EndChar
StartChar: u
Encoding: 85 117 96
Width: 600
Flags: W
HStem: -16 41<206.897 354.586> 0 41<489 545.554> 376 41<133.594 204 427.748 519>
VStem: 145 42<44.2629 102.488 98.9769 106 106 131.262>
Fore
546 26 m 0x70
 546 16 539 0 514 0 c 2
 439 0 l 1x70
 453 66 l 1
 387 12 320 -16 254 -16 c 0
 185 -16 145 22 145 83 c 0
 145 93 146 104 148 115 c 2
 204 376 l 1
 150 376 l 2
 134 376 126 381 126 392 c 0
 126 402 133 417 159 417 c 2
 254 417 l 1
 189 115 l 2
 188 109 187 103 187 97 c 0
 187 56 216 25 261 25 c 0xb0
 328 25 396 55 463 115 c 1
 519 376 l 1
 445 376 l 2
 429 376 420 381 420 392 c 0
 420 402 427 417 454 417 c 2
 569 417 l 1
 489 41 l 1
 523 41 l 2
 538 41 546 36 546 26 c 0x70
EndSplineSet
EndChar
StartChar: v
Encoding: 86 118 97
Width: 600
Flags: W
HStem: 0 417<146 336 -263 -165.398> 376 41<120.594 178 223 320.602 454.594 539 582 654.554>
Fore
655 402 m 0x40
 655 392 648 376 623 376 c 2
 582 376 l 1x40
 336 0 l 1
 266 0 l 1x80
 178 376 l 1
 137 376 l 2x40
 121 376 113 381 113 392 c 0
 113 402 120 417 146 417 c 2
 297 417 l 2x80
 313 417 321 412 321 402 c 0
 321 393 315 376 288 376 c 2
 223 376 l 1
 302 41 l 1
 321 41 l 1
 539 376 l 1
 471 376 l 2
 455 376 447 381 447 392 c 0
 447 402 454 417 480 417 c 2
 632 417 l 2
 647 417 655 412 655 402 c 0x40
EndSplineSet
EndChar
StartChar: w
Encoding: 87 119 98
Width: 600
Flags: W
HStem: 0 417<160 195 146 441 -14 146> 376 41<120.594 156 195 279.554 495.594 562 604 654.554>
VStem: 160 35<56 188 188 216 216 376>
Fore
655 402 m 0x60
 655 392 648 376 623 376 c 2
 604 376 l 1x60
 441 0 l 1
 391 0 l 1
 355 259 l 1
 211 0 l 1
 160 0 l 1xa0
 156 376 l 1
 137 376 l 2x60
 121 376 113 381 113 392 c 0
 113 402 120 417 146 417 c 2
 257 417 l 2xa0
 272 417 280 412 280 402 c 0
 280 392 273 376 248 376 c 2
 195 376 l 1
 199 56 l 1
 339 311 l 1
 390 311 l 1
 425 56 l 1
 562 376 l 1
 512 376 l 2
 496 376 488 381 488 392 c 0
 488 402 495 417 521 417 c 2
 632 417 l 2
 647 417 655 412 655 402 c 0x60
EndSplineSet
EndChar
StartChar: x
Encoding: 88 120 99
Width: 600
Flags: W
HStem: 0 417<190 522 -180 -89.4459> 0 41<61.5938 96 152 242.554 373.594 464 522 553.554> 376 41<164.594 188 246 316.584 452.594 517 572 610.554>
Fore
611 402 m 0x20
 611 392 604 376 579 376 c 2
 572 376 l 1
 376 219 l 1
 522 41 l 1
 531 41 l 2x60
 546 41 554 36 554 26 c 0
 554 16 547 0 522 0 c 2
 390 0 l 2x80
 374 0 366 5 366 16 c 0
 366 26 373 41 399 41 c 2
 464 41 l 1
 340 190 l 1
 152 41 l 1
 220 41 l 2x40
 235 41 243 36 243 26 c 0
 243 16 236 0 211 0 c 2x80
 78 0 l 2
 62 0 54 5 54 16 c 0
 54 26 61 41 87 41 c 2
 96 41 l 1
 318 219 l 1
 188 376 l 1
 181 376 l 2x60
 165 376 157 381 157 392 c 0
 157 402 164 417 190 417 c 2
 301 417 l 2x80
 316 417 324 413 324 403 c 0
 324 392 319 376 292 376 c 2
 246 376 l 1
 352 246 l 1
 517 376 l 1
 469 376 l 2x20
 453 376 445 381 445 392 c 0
 445 402 452 417 478 417 c 2x80
 588 417 l 2
 603 417 611 412 611 402 c 0x20
EndSplineSet
EndChar
StartChar: y
Encoding: 89 121 100
Width: 600
Flags: W
HStem: -186 41<28.8283 180 221 309.551> 376 41<141.594 174 221 304.554 475.594 546 588 633.554>
Fore
21 -171 m 0
 21 -160 28 -145 53 -145 c 2
 180 -145 l 1
 282 0 l 1
 174 376 l 1
 158 376 l 2
 142 376 134 381 134 392 c 0
 134 402 141 417 167 417 c 2
 282 417 l 2
 297 417 305 412 305 402 c 0
 305 392 298 376 273 376 c 2
 221 376 l 1
 315 45 l 1
 546 376 l 1
 492 376 l 2
 476 376 468 381 468 392 c 0
 468 402 475 417 501 417 c 2
 611 417 l 2
 626 417 634 412 634 402 c 0
 634 392 627 376 602 376 c 2
 588 376 l 1
 221 -145 l 1
 286 -145 l 2
 302 -145 310 -150 310 -160 c 0
 310 -170 303 -186 277 -186 c 2
 44 -186 l 2
 29 -186 21 -181 21 -171 c 0
EndSplineSet
EndChar
StartChar: z
Encoding: 90 122 101
Width: 600
Flags: W
HStem: 0 41<180 457> 376 41<245 496>
VStem: 115 448<0 417 1.53064e-18 1.53064e-18>
Fore
563 417 m 1
 555 381 l 1
 180 41 l 1
 457 41 l 1
 469 97 l 2
 472 115 481 124 495 124 c 0
 506 124 511 118 511 106 c 0
 511 103 511 100 510 97 c 2
 489 0 l 1
 115 0 l 1
 123 36 l 1
 496 376 l 1
 245 376 l 1
 233 321 l 2
 229 303 220 294 207 294 c 0
 196 294 191 299 191 310 c 0
 191 313 191 317 192 321 c 2
 213 417 l 1
 563 417 l 1
EndSplineSet
EndChar
StartChar: braceleft
Encoding: 91 123 102
Width: 600
Flags: W
HStem: -124 41<324.488 381.665> 563 41<452.807 513.152>
VStem: 247 281<234 589 226.5 233.546> 274 42<-75.8252 -29 -31.5 -26.5 -26.5 -2.63514> 315 43<137.635 161.5 161.5 168.546 165.023 210.959>
Fore
382 -98 m 0xd0
 382 -114 369 -124 353 -124 c 0
 306 -124 274 -90 274 -44 c 0xd0
 274 -36 275 -27 277 -19 c 2
 314 154 l 2
 315 159 315 164 315 169 c 0xc8
 315 197 298 216 268 219 c 0
 254 220 247 224 247 234 c 0
 247 243 252 259 276 261 c 0
 313 264 342 289 350 326 c 2
 387 499 l 2
 400 558 452 604 507 604 c 0
 520 604 528 598 528 589 c 0xe0
 528 568 510 564 497 563 c 0
 464 560 435 533 428 499 c 2
 391 326 l 2
 383 285 367 264 329 240 c 1
 350 222 358 206 358 183 c 0xc8
 358 174 357 165 355 154 c 2
 318 -19 l 2
 317 -24 316 -29 316 -34 c 0
 316 -61 333 -80 359 -83 c 0
 375 -85 382 -88 382 -98 c 0xd0
EndSplineSet
EndChar
StartChar: bar
Encoding: 92 124 103
Width: 600
Flags: W
HStem: 584 20G<421.5 433.5>
VStem: 258 186<-106 586 -106 -106>
Fore
443 577 m 2
 299 -97 l 2
 296 -115 287 -124 274 -124 c 0
 263 -124 258 -118 258 -106 c 0
 258 -103 258 -100 259 -97 c 2
 403 577 l 2
 406 595 415 604 428 604 c 0
 439 604 444 598 444 586 c 0
 444 583 444 580 443 577 c 2
EndSplineSet
EndChar
StartChar: braceright
Encoding: 93 125 104
Width: 600
Flags: W
HStem: -124 41<188.848 249.193> 563 41<320.335 377.512>
VStem: 174 281<-109 246 -94.5461 -87.5> 344 43<269.041 314.977 311.454 318.5 318.5 342.365> 384 41<482.635 506.5 506.5 511.5 509 555.825>
Fore
320 578 m 0xc8
 320 594 333 604 349 604 c 0
 396 604 428 570 428 524 c 0
 428 516 427 507 425 499 c 2xc8
 388 326 l 2
 387 321 387 316 387 311 c 0xd0
 387 283 404 264 434 261 c 0
 448 260 455 256 455 246 c 0
 455 237 450 221 426 219 c 0
 389 216 360 191 352 154 c 2
 315 -19 l 2
 302 -78 250 -124 195 -124 c 0
 182 -124 174 -118 174 -109 c 0xe0
 174 -88 192 -84 205 -83 c 0
 238 -80 267 -53 274 -19 c 2
 311 154 l 2
 319 195 335 216 373 240 c 1
 352 258 344 274 344 297 c 0xd0
 344 306 345 315 347 326 c 2
 384 499 l 2
 385 504 386 509 386 514 c 0
 386 541 369 560 343 563 c 0
 327 565 320 568 320 578 c 0xc8
EndSplineSet
EndChar
StartChar: asciitilde
Encoding: 94 126 105
Width: 600
Flags: W
HStem: 212 41<399.597 490.578> 307 41<228.317 321.834>
VStem: 145 429<246 314 246 246>
Fore
434 212 m 0
 362 212 332 307 277 307 c 0
 251 307 238 298 182 242 c 0
 174 233 168 230 160 230 c 0
 151 230 145 237 145 246 c 0
 145 255 158 271 182 294 c 0
 225 333 253 348 286 348 c 0
 318 348 331 340 376 297 c 0
 412 261 424 253 440 253 c 0
 464 253 491 270 524 305 c 0
 544 327 548 330 558 330 c 0
 568 330 574 323 574 314 c 0
 574 299 495 212 434 212 c 0
EndSplineSet
EndChar
StartChar: exclamdown
Encoding: 96 161 107
Width: 600
Flags: W
HStem: 317 100<333.944 361 361 422.177>
VStem: 222 217<-185 378 -207 -145.823> 317 122<333.792 399.503>
Fore
222 -185 m 0xc0
 222 -180 224 -172 228 -161 c 2
 315 165 l 2
 320 185 328 193 342 193 c 0
 352 193 357 187 357 176 c 0
 357 172 357 169 356 165 c 2
 305 -161 l 2
 304 -166 301 -216 254 -216 c 0
 235 -216 222 -203 222 -185 c 0xc0
439 378 m 0
 439 350 413 317 374 317 c 2
 361 317 l 2
 335 317 317 334 317 357 c 0xa0
 317 393 354 417 383 417 c 2
 396 417 l 2
 422 417 439 400 439 378 c 0
EndSplineSet
EndChar
StartChar: cent
Encoding: 97 162 108
Width: 600
Flags: W
HStem: -13 21G<292.5 304.5> 127 38<264.369 307 348 439.206> 458 39<427 485.896>
VStem: 175 388<272 462 774.378 893.465> 175 41<211.632 358.601> 508 55<392 462>
Fore
342 165 m 0xec
 434 165 477 215 496 215 c 0
 505 215 511 210 511 201 c 0
 511 162 400 129 348 127 c 1
 324 14 l 2
 320 -4 311 -13 298 -13 c 0
 287 -13 282 -8 282 3 c 0
 282 6 282 10 283 14 c 2
 307 127 l 1
 225 136 175 195 175 272 c 0
 175 348 224 423 292 463 c 0
 319 478 342 487 385 496 c 1
 408 603 l 2
 412 621 421 630 435 630 c 0
 445 630 450 625 450 614 c 0
 450 611 450 607 449 603 c 2
 427 497 l 1
 465 497 503 483 523 461 c 1
 528 472 537 478 547 478 c 0
 557 478 563 472 563 462 c 0xf0
 563 459 563 456 562 453 c 2
 549 392 l 2
 545 373 536 364 523 364 c 0
 512 364 508 370 508 383 c 2
 508 392 l 2
 508 432 470 458 408 458 c 0
 292 458 216 365 216 279 c 0
 216 212 266 165 342 165 c 0xec
EndSplineSet
EndChar
StartChar: sterling
Encoding: 98 163 109
Width: 600
Flags: W
HStem: 0 41<89.2871 160.332 191 484.142> 273 41<125.129 251 292 406.986> 537 41<347.799 469.593>
VStem: 89 452 252 40<173.953 273 314 347.081 347.081 366.06 356.571 479.426>
Fore
292 273 m 1xe8
 286 155 226 76 191 41 c 1
 443 41 l 2
 468 41 490 60 499 92 c 0
 504 108 511 115 524 115 c 0
 534 115 541 109 541 99 c 0
 541 71 500 0 436 0 c 2
 113 0 l 2
 97 0 89 5 89 16 c 0xf0
 89 30 103 40 117 40 c 0
 161 42 241 131 252 273 c 1
 148 273 l 2
 132 273 125 279 125 290 c 0
 125 299 131 314 157 314 c 2
 251 314 l 1
 247 350 245 375 245 394 c 0
 245 517 350 578 421 578 c 0
 494 578 532 520 532 498 c 0
 532 487 518 476 508 476 c 0
 488 476 483 537 413 537 c 0
 371 537 287 500 287 399 c 0
 287 383 291 319 292 314 c 1
 391 314 l 2
 406 314 414 309 414 299 c 0
 414 288 409 273 382 273 c 2
 292 273 l 1xe8
EndSplineSet
EndChar
StartChar: currency
Encoding: 99 164 110
Width: 600
Flags: W
HStem: 127 41<271.899 409.113> 417 41<314.113 454.432>
VStem: 193 42<216.907 338.91> 489 43<245.976 370.294>
Fore
521 119 m 0
 521 108 510 95 496 95 c 0
 490 95 485 98 480 106 c 2
 435 162 l 1
 398 138 364 127 327 127 c 0
 290 127 259 139 233 162 c 1
 165 106 l 2
 155 97 150 95 144 95 c 0
 133 95 127 102 127 111 c 0
 127 121 134 128 143 135 c 2
 211 191 l 1
 199 213 193 235 193 258 c 0
 193 312 223 364 253 394 c 1
 210 450 l 2
 204 456 202 459 202 464 c 0
 202 477 214 489 227 489 c 0
 234 489 237 486 244 478 c 2
 288 423 l 1
 322 446 360 458 397 458 c 0
 434 458 469 445 492 423 c 1
 559 478 l 2
 570 487 574 489 581 489 c 0
 590 489 597 483 597 473 c 0
 597 459 588 454 583 450 c 2
 516 394 l 1
 527 373 532 351 532 328 c 0
 532 281 509 228 472 191 c 1
 515 135 l 2
 518 130 521 124 521 119 c 0
336 168 m 0
 413 168 489 239 489 318 c 0
 489 375 449 417 389 417 c 0
 315 417 235 349 235 268 c 0
 235 211 277 168 336 168 c 0
EndSplineSet
EndChar
StartChar: yen
Encoding: 100 165 111
Width: 600
Flags: W
HStem: 0 41<177.594 289 330 438.554> 141 37<171.716 310 359 502.305> 238 37<191.124 324 392 518.516> 522 41<172.594 213 260 330.554 506.594 562 609 664.554>
Fore
528 262 m 0
 528 243 517 238 503 238 c 2
 372 238 l 1
 359 178 l 1
 490 178 l 2
 502 178 508 175 508 166 c 0
 508 155 503 141 482 141 c 2
 351 141 l 1
 330 41 l 1
 416 41 l 2
 431 41 439 36 439 26 c 0
 439 16 432 0 407 0 c 2
 194 0 l 2
 178 0 170 5 170 16 c 0
 170 26 177 41 203 41 c 2
 289 41 l 1
 310 141 l 1
 180 141 l 2
 167 141 161 144 161 153 c 0
 161 173 174 178 188 178 c 2
 318 178 l 1
 331 238 l 1
 201 238 l 2
 188 238 182 241 182 250 c 0
 182 275 199 275 208 275 c 2
 324 275 l 1
 213 522 l 1
 189 522 l 2
 173 522 165 527 165 538 c 0
 165 548 172 563 198 563 c 2
 308 563 l 2
 323 563 331 558 331 548 c 0
 331 538 324 522 299 522 c 2
 260 522 l 1
 363 295 l 1
 562 522 l 1
 523 522 l 2
 507 522 499 527 499 538 c 0
 499 548 506 563 532 563 c 2
 642 563 l 2
 657 563 665 558 665 548 c 0
 665 538 658 522 633 522 c 2
 609 522 l 1
 392 275 l 1
 510 275 l 2
 524 275 528 271 528 262 c 0
EndSplineSet
EndChar
StartChar: brokenbar
Encoding: 101 166 112
Width: 600
Flags: W
HStem: 584 20G<421.5 433.5>
VStem: 258 186<-106 586 -389.325 -88.8221>
Fore
443 577 m 2
 386 310 l 2
 382 292 373 283 360 283 c 0
 350 283 345 288 345 299 c 0
 345 302 345 306 346 310 c 2
 403 577 l 2
 406 595 415 604 428 604 c 0
 439 604 444 598 444 586 c 0
 444 583 444 580 443 577 c 2
356 170 m 2
 299 -97 l 2
 296 -115 287 -124 274 -124 c 0
 263 -124 258 -118 258 -106 c 0
 258 -103 258 -100 259 -97 c 2
 316 170 l 2
 320 188 329 197 342 197 c 0
 352 197 357 192 357 181 c 0
 357 178 357 174 356 170 c 2
EndSplineSet
EndChar
StartChar: section
Encoding: 102 167 113
Width: 600
Flags: W
HStem: -62 40<141 374.99> 402 39<201.798 263> 563 40<340.833 575>
VStem: 140 44<306.583 384.249> 258 41<442.82 524.86> 416 42<16.4192 98.0725> 531 44<156.335 237.926>
Fore
258 467 m 0
 258 534 332 603 412 603 c 2
 624 603 l 1
 601 494 l 2
 598 479 589 470 576 470 c 0
 565 470 559 476 559 487 c 0
 559 489 559 491 560 494 c 2
 575 563 l 1
 407 563 l 2
 357 563 299 524 299 475 c 0
 299 443 328 416 421 358 c 2
 471 327 l 2
 543 283 575 245 575 204 c 0
 575 151 535 110 453 101 c 1
 457 92 458 83 458 73 c 0
 458 11 395 -62 299 -62 c 2
 92 -62 l 1
 115 49 l 2
 119 64 128 73 142 73 c 0
 152 73 157 68 157 58 c 0
 157 55 157 52 156 49 c 2
 141 -22 l 1
 306 -22 l 2
 375 -22 416 28 416 64 c 0
 416 95 386 127 310 175 c 2
 253 211 l 2
 176 260 140 302 140 343 c 0
 140 382 177 434 263 441 c 1
 259 450 258 458 258 467 c 0
268 402 m 0
 226 402 184 381 184 350 c 0
 184 322 218 286 286 243 c 2
 340 208 l 2
 389 177 415 157 430 139 c 1
 439 143 531 138 531 191 c 0
 531 220 499 258 446 290 c 2
 389 326 l 2
 333 361 309 379 287 403 c 1
 280 402 280 402 268 402 c 0
EndSplineSet
EndChar
StartChar: dieresis
Encoding: 103 168 114
Width: 600
Flags: W
HStem: 511 100<273.886 343.91 494.886 564.91>
VStem: 258 102<526.892 594.25> 479 102<526.892 594.25>
Fore
258 552 m 0
 258 586 294 611 320 611 c 0
 344 611 360 594 360 571 c 0
 360 536 326 511 299 511 c 0
 275 511 258 529 258 552 c 0
479 552 m 0
 479 586 515 611 541 611 c 0
 565 611 581 594 581 571 c 0
 581 536 547 511 520 511 c 0
 496 511 479 529 479 552 c 0
EndSplineSet
EndChar
StartChar: copyright
Encoding: 104 169 115
Width: 600
Flags: W
HStem: -15 41<207.163 408.804> 111 36<273.281 401.099> 414 36<315.536 431.15> 537 41<310.116 510.462>
VStem: 57 41<137.051 329.822> 205 38<176.754 247.738 245.977 249.5 249.5 275.75> 621 42<234.476 427.22>
Fore
464 188 m 0
 464 169 397 111 326 111 c 0
 257 111 205 165 205 232 c 0
 205 241 206 250 208 260 c 2
 218 305 l 2
 235 385 312 450 388 450 c 0
 420 450 440 443 470 421 c 1
 473 435 482 443 493 443 c 0
 502 443 507 437 507 428 c 2
 507 423 l 1
 493 358 l 2
 491 346 482 338 471 338 c 0
 462 338 457 344 457 354 c 2
 457 361 l 2
 457 390 424 414 381 414 c 0
 323 414 266 364 253 302 c 2
 245 263 l 2
 243 255 243 247 243 239 c 0
 243 187 279 147 333 147 c 0
 405 147 427 202 451 202 c 0
 459 202 464 196 464 188 c 0
57 221 m 0
 57 406 236 578 423 578 c 0
 565 578 663 477 663 344 c 0
 663 164 492 -15 293 -15 c 0
 153 -15 57 88 57 221 c 0
302 26 m 0
 469 26 621 175 621 335 c 0
 621 450 536 537 414 537 c 0
 248 537 98 384 98 229 c 0
 98 114 183 26 302 26 c 0
EndSplineSet
EndChar
StartChar: ordfeminine
Encoding: 105 170 116
Width: 600
Flags: W
HStem: 282 37<269.11 382.742 466 498.798> 420 35<300.877 421.714> 537 37<355.645 460.978>
VStem: 229 38<321.834 389.125> 466 38<490.211 530.1>
Fore
511 304 m 0
 511 289 497 282 484 282 c 2
 421 282 l 1
 426 308 l 1
 381 286 352 279 313 279 c 0
 261 279 229 304 229 342 c 0
 229 404 299 455 385 455 c 0
 408 455 427 452 456 446 c 1
 465 490 l 2
 466 493 466 496 466 499 c 0
 466 522 445 537 410 537 c 0
 372 537 326 514 315 514 c 0
 307 514 302 521 302 529 c 0
 302 543 313 549 320 552 c 0
 353 564 396 574 420 574 c 0
 471 574 504 547 504 507 c 0
 504 502 503 496 502 490 c 2
 466 319 l 1
 492 319 l 2
 505 319 511 314 511 304 c 0
379 420 m 0
 305 420 267 378 267 349 c 0
 267 329 288 316 321 316 c 0
 359 316 396 327 435 350 c 1
 448 409 l 1
 433 415 402 420 379 420 c 0
EndSplineSet
EndChar
StartChar: guillemotleft
Encoding: 106 171 117
Width: 600
Flags: W
HStem: 0 417<292 381 381 381>
Fore
317 25 m 0
 317 12 305 0 292 0 c 0
 286 0 280 4 273 11 c 2
 107 209 l 1
 357 406 l 2
 367 414 374 417 381 417 c 0
 390 417 397 411 397 402 c 0
 397 391 391 386 381 377 c 2
 202 209 l 1
 310 40 l 2
 315 32 317 29 317 25 c 0
546 25 m 0
 546 12 534 0 521 0 c 0
 515 0 509 4 502 11 c 2
 336 209 l 1
 586 406 l 2
 596 414 603 417 610 417 c 0
 619 417 626 411 626 402 c 0
 626 391 620 386 610 377 c 2
 431 209 l 1
 539 40 l 2
 544 32 546 29 546 25 c 0
EndSplineSet
EndChar
StartChar: logicalnot
Encoding: 107 172 118
Width: 600
Flags: W
HStem: 397 41<167.828 571>
VStem: 160 461<421.644 424.527 412 438 412 412>
Fore
160 412 m 0
 160 423 167 438 192 438 c 2
 621 438 l 1
 569 195 l 2
 566 177 557 168 543 168 c 0
 532 168 527 174 527 186 c 0
 527 189 527 192 528 195 c 2
 571 397 l 1
 183 397 l 2
 168 397 160 402 160 412 c 0
EndSplineSet
EndChar
StartChar: registered
Encoding: 109 174 120
Width: 600
Flags: W
HStem: -15 41<207.163 408.804> 120 36<181.004 230 266 313.374 464 490.374> 258 36<295 351> 407 36<242.004 284 320 448.663> 537 41<310.116 510.462>
VStem: 57 41<137.051 329.822> 456 36<319.916 398.007> 621 42<234.476 427.22>
Fore
496 143 m 0
 496 136 491 120 472 120 c 2
 433 120 l 1
 412 198 383 246 351 258 c 1
 288 258 l 1
 266 156 l 1
 302 156 l 2
 312 156 319 151 319 143 c 0
 319 136 314 120 295 120 c 2
 199 120 l 2
 187 120 181 126 181 134 c 0
 181 141 187 156 206 156 c 2
 230 156 l 1
 284 407 l 1
 260 407 l 2
 248 407 242 413 242 421 c 0
 242 428 248 443 267 443 c 2
 405 443 l 2
 458 443 492 413 492 370 c 0
 492 315 446 280 403 269 c 1
 431 243 438 228 464 156 c 1
 479 156 l 2
 489 156 496 151 496 143 c 0
351 294 m 2
 430 294 456 335 456 363 c 0
 456 389 433 407 397 407 c 2
 320 407 l 1
 295 294 l 1
 351 294 l 2
57 221 m 0
 57 406 236 578 423 578 c 0
 565 578 663 477 663 344 c 0
 663 164 492 -15 293 -15 c 0
 153 -15 57 88 57 221 c 0
302 26 m 0
 469 26 621 175 621 335 c 0
 621 450 536 537 414 537 c 0
 248 537 98 384 98 229 c 0
 98 114 183 26 302 26 c 0
EndSplineSet
EndChar
StartChar: macron
Encoding: 110 175 121
Width: 600
Flags: W
HStem: 536 40<279.594 556.406 304 532 304 304>
VStem: 272 292<549.21 562.79>
Fore
564 561 m 0
 564 551 557 536 532 536 c 2
 296 536 l 2
 280 536 272 541 272 551 c 0
 272 561 279 576 304 576 c 2
 540 576 l 2
 556 576 564 571 564 561 c 0
EndSplineSet
EndChar
StartChar: degree
Encoding: 111 176 122
Width: 600
Flags: W
HStem: 346 41<323.726 449.546> 595 41<358.88 483.362>
VStem: 256 42<412.184 535.309> 510 42<448.541 569.555>
Fore
256 461 m 0
 256 552 343 636 435 636 c 0
 505 636 552 587 552 521 c 0
 552 433 468 346 374 346 c 0
 304 346 256 395 256 461 c 0
382 387 m 0
 450 387 510 451 510 512 c 0
 510 559 476 595 426 595 c 0
 362 595 298 537 298 469 c 0
 298 422 332 387 382 387 c 0
EndSplineSet
EndChar
StartChar: plusminus
Encoding: 112 177 123
Width: 600
Flags: W
HStem: 0 40<82.5938 525.584> 301 40<146.594 343 392 582.352>
Fore
597 326 m 0
 597 309 582 301 564 301 c 2
 384 301 l 1
 350 139 l 2
 346 121 337 112 324 112 c 0
 313 112 308 117 308 128 c 0
 308 131 308 135 309 139 c 2
 343 301 l 1
 163 301 l 2
 147 301 139 306 139 316 c 0
 139 326 146 341 171 341 c 2
 351 341 l 1
 386 502 l 2
 390 520 398 529 412 529 c 0
 422 529 428 523 428 512 c 0
 428 509 428 506 427 502 c 2
 392 341 l 1
 572 341 l 2
 588 341 597 337 597 326 c 0
75 15 m 0
 75 25 82 40 108 40 c 2
 510 40 l 2
 525 40 533 35 533 25 c 0
 533 15 526 0 501 0 c 2
 99 0 l 2
 83 0 75 5 75 15 c 0
EndSplineSet
EndChar
StartChar: twosuperior
Encoding: 113 178 124
Width: 600
Flags: W
HStem: 259 36<282 432> 576 36<357.64 465.08>
VStem: 432 37<298.094 317.967> 477 37<476.764 563.476>
Fore
514 529 m 0
 514 472 473 442 282 295 c 1
 432 295 l 1
 432 298 l 1
 435 310 444 318 455 318 c 0
 464 318 469 313 469 304 c 0
 469 302 469 300 468 298 c 1
 460 259 l 1
 230 259 l 1
 239 302 l 1
 397 425 l 2
 461 477 477 494 477 522 c 0
 477 552 451 576 417 576 c 0
 383 576 348 555 332 524 c 0
 327 513 320 508 311 508 c 0
 303 508 298 514 298 522 c 0
 298 546 353 612 425 612 c 0
 477 612 514 575 514 529 c 0
EndSplineSet
EndChar
StartChar: threesuperior
Encoding: 114 179 125
Width: 600
Flags: W
HStem: 251 36<288.287 419.567> 431 36<375.139 440.539> 576 36<354.972 471.82>
VStem: 457 37<322.063 413.659> 480 37<487.885 566.347>
Fore
517 538 m 0xe8
 517 483 467 454 453 446 c 1
 481 427 494 405 494 378 c 0
 494 314 426 251 348 251 c 0
 300 251 246 279 246 301 c 0
 246 310 256 321 266 321 c 0
 282 321 297 287 356 287 c 0
 401 287 457 322 457 371 c 0xf0
 457 405 426 430 380 431 c 0
 368 432 362 437 362 445 c 0
 362 449 364 459 375 465 c 0
 378 467 378 467 403 467 c 0
 451 467 480 503 480 530 c 0
 480 557 457 576 422 576 c 0
 360 576 347 539 330 539 c 0
 321 539 315 545 315 553 c 0
 315 577 379 612 430 612 c 0
 482 612 517 581 517 538 c 0xe8
EndSplineSet
EndChar
StartChar: acute
Encoding: 115 180 126
Width: 600
Flags: W
HStem: 490 149<404 561 561 561>
VStem: 388 189
Fore
577 623 m 0
 577 609 565 602 560 599 c 2
 425 499 l 2
 415 492 410 490 404 490 c 0
 395 490 388 496 388 506 c 0
 388 520 399 525 405 530 c 2
 540 630 l 2
 550 637 555 639 561 639 c 0
 570 639 577 633 577 623 c 0
EndSplineSet
EndChar
StartChar: paragraph
Encoding: 117 182 127
Width: 600
Flags: W
HStem: -62 41<159.238 280 321 337.596 433 509.365> 260 47<273.267 342.036> 563 41<339.916 403 445 517 557 647.515>
VStem: 152 496<-45 589 -34.5 -23.5> 163 72<348.113 401 395.5 406.5 406.5 414 414 422.45>
Fore
648 589 m 0xf0
 648 581 642 563 618 563 c 2
 557 563 l 1
 433 -21 l 1
 495 -21 l 2
 509 -21 517 -26 517 -36 c 0
 517 -46 511 -62 486 -62 c 2
 388 -62 l 2
 375 -62 367 -56 367 -45 c 0
 367 -33 378 -22 393 -21 c 1
 517 563 l 1
 445 563 l 1
 321 -21 l 1
 331 -22 338 -28 338 -36 c 0
 338 -45 332 -62 308 -62 c 2
 174 -62 l 2
 160 -62 152 -56 152 -45 c 0xf0
 152 -31 164 -21 183 -21 c 2
 280 -21 l 1
 339 260 l 1
 199 269 163 335 163 385 c 0xe8
 163 392 164 399 165 406 c 2
 175 453 l 2
 194 543 296 604 426 604 c 2
 626 604 l 2
 640 604 648 598 648 589 c 0xf0
349 307 m 1
 403 558 l 1
 324 550 256 504 245 451 c 2
 237 414 l 2
 236 409 235 404 235 399 c 0xe8
 235 353 281 314 349 307 c 1
EndSplineSet
EndChar
StartChar: periodcentered
Encoding: 118 183 128
Width: 600
Flags: W
HStem: 217 131<312.714 341 341 407.286>
VStem: 284 152<245.94 319.224>
Fore
284 269 m 0
 284 309 322 348 369 348 c 2
 379 348 l 2
 413 348 436 327 436 297 c 0
 436 256 398 217 351 217 c 2
 341 217 l 2
 307 217 284 239 284 269 c 0
EndSplineSet
EndChar
StartChar: cedilla
Encoding: 119 184 129
Width: 600
Flags: W
HStem: -173 38<221.517 314.45> -20 20G<269.802 312>
VStem: 318 38<-129.051 -82.8466>
Fore
267 -135 m 0
 292 -135 318 -123 318 -100 c 0
 318 -87 304 -81 277 -81 c 2
 257 -81 l 1
 274 0 l 1
 312 0 l 1
 302 -47 l 1
 337 -48 356 -64 356 -92 c 0
 356 -141 314 -173 261 -173 c 0
 240 -173 181 -159 181 -138 c 0
 181 -124 193 -114 206 -114 c 0
 219 -114 235 -135 267 -135 c 0
EndSplineSet
EndChar
StartChar: onesuperior
Encoding: 120 185 130
Width: 600
Flags: W
HStem: 259 353<330 333 445 449 445 449 449 449> 259 36<250.029 315.177 315.177 346 382 458.57>
VStem: 250 219<259.091 284.703>
Fore
250 273 m 0x60
 250 282 254 296 285 296 c 0
 293 296 324 296 346 295 c 1x60
 403 563 l 1
 333 542 l 2
 329 541 326 540 324 540 c 0
 317 540 311 547 311 555 c 0
 311 575 330 578 449 612 c 1xa0
 382 295 l 1
 453 295 l 2x60
 463 295 469 290 469 281 c 0
 469 263 453 259 445 259 c 2xa0
 267 259 l 2
 256 259 250 264 250 273 c 0x60
EndSplineSet
EndChar
StartChar: ordmasculine
Encoding: 121 186 131
Width: 600
Flags: W
HStem: 284 37<309.109 438.526> 540 37<345.589 476.503>
VStem: 242 38<350.653 474.726> 505 38<386.757 511.333>
Fore
242 399 m 0
 242 493 333 577 424 577 c 0
 495 577 543 528 543 462 c 0
 543 368 452 284 361 284 c 0
 291 284 242 334 242 399 c 0
369 321 m 0
 433 321 505 379 505 453 c 0
 505 503 470 540 416 540 c 0
 348 540 280 478 280 408 c 0
 280 358 317 321 369 321 c 0
EndSplineSet
EndChar
StartChar: guillemotright
Encoding: 122 187 132
Width: 600
Flags: W
HStem: 0 417<83 172 172 172>
Fore
147 392 m 0
 147 407 162 417 172 417 c 0
 178 417 184 413 190 406 c 2
 355 208 l 1
 106 11 l 2
 97 3 90 0 83 0 c 0
 73 0 67 7 67 16 c 0
 67 26 73 31 83 40 c 2
 260 208 l 1
 154 377 l 2
 148 385 147 388 147 392 c 0
377 392 m 0
 377 407 392 417 402 417 c 0
 408 417 414 413 420 406 c 2
 585 208 l 1
 336 11 l 2
 327 3 320 0 313 0 c 0
 303 0 297 7 297 16 c 0
 297 26 303 31 313 40 c 2
 490 208 l 1
 384 377 l 2
 378 385 377 388 377 392 c 0
EndSplineSet
EndChar
StartChar: onequarter
Encoding: 123 188 133
Width: 600
Flags: W
HStem: 0 36<471 493.693 493.693 518 554 572.118> 93 36<428 530 573 598.305> 259 36<75.0287 140.177 140.177 171 207 283.118> 543 20G<161.333 223.746> 592 20G<214.5 269.773>
Fore
75 273 m 0
 75 282 79 296 110 296 c 0
 118 296 149 296 171 295 c 1
 228 563 l 1
 158 542 l 2
 154 541 151 540 149 540 c 0
 142 540 136 547 136 555 c 0
 136 575 155 578 274 612 c 1
 207 295 l 1
 278 295 l 2
 289 295 295 290 295 281 c 0
 295 268 283 259 270 259 c 2
 92 259 l 2
 81 259 75 264 75 273 c 0
605 498 m 0
 605 494 604 488 593 477 c 2
 154 63 l 2
 144 53 140 51 134 51 c 0
 124 51 118 58 118 67 c 0
 118 71 119 77 131 88 c 2
 569 502 l 2
 580 512 583 514 589 514 c 0
 599 514 605 507 605 498 c 0
584 22 m 0
 584 9 572 0 559 0 c 2
 474 0 l 2
 463 0 456 5 456 13 c 0
 456 18 459 29 471 35 c 1
 477 36 477 36 518 36 c 1
 530 93 l 1
 381 93 l 1
 388 127 l 1
 562 345 l 1
 619 345 l 1
 573 129 l 1
 586 129 l 2
 598 129 604 123 604 115 c 0
 604 106 598 93 575 93 c 2
 566 93 l 1
 554 36 l 1
 567 36 l 2
 578 36 584 31 584 22 c 0
537 129 m 1
 576 309 l 1
 574 309 l 1
 428 129 l 1
 537 129 l 1
EndSplineSet
LCarets2: 2 0 0 
Ligature2: "'frac' Diagonal Fractions lookup 3 subtable" one slash four
Ligature2: "'frac' Diagonal Fractions lookup 3 subtable" one fraction four
EndChar
StartChar: onehalf
Encoding: 124 189 134
Width: 600
Flags: W
HStem: 0 36<395 545> 259 36<82.0287 147.177 147.177 178 214 290.57> 317 36<470.64 578.08> 543 20G<168.333 230.746> 592 20G<221.5 276.773>
VStem: 545 37<39.0938 58.9671> 590 37<217.764 304.476>
Fore
598 498 m 0
 598 494 597 488 586 477 c 2
 147 63 l 2
 137 53 133 51 127 51 c 0
 117 51 111 58 111 67 c 0
 111 71 112 77 124 88 c 2
 562 502 l 2
 573 512 576 514 582 514 c 0
 592 514 598 507 598 498 c 0
82 273 m 0
 82 282 86 296 117 296 c 0
 125 296 156 296 178 295 c 1
 235 563 l 1
 165 542 l 2
 161 541 158 540 156 540 c 0
 149 540 143 547 143 555 c 0
 143 575 162 578 281 612 c 1
 214 295 l 1
 285 295 l 2
 295 295 301 290 301 281 c 0
 301 263 285 259 277 259 c 2
 99 259 l 2
 88 259 82 264 82 273 c 0
627 270 m 0
 627 213 586 183 395 36 c 1
 545 36 l 1
 545 39 l 1
 548 51 557 59 568 59 c 0
 577 59 582 54 582 45 c 0
 582 43 582 41 581 39 c 1
 573 0 l 1
 343 0 l 1
 352 43 l 1
 510 166 l 2
 574 218 590 235 590 263 c 0
 590 293 564 317 530 317 c 0
 496 317 461 296 445 265 c 0
 440 254 433 249 424 249 c 0
 416 249 411 255 411 263 c 0
 411 287 466 353 538 353 c 0
 590 353 627 316 627 270 c 0
EndSplineSet
LCarets2: 2 0 0 
Ligature2: "'frac' Diagonal Fractions lookup 3 subtable" one slash two
Ligature2: "'frac' Diagonal Fractions lookup 3 subtable" one fraction two
EndChar
StartChar: threequarters
Encoding: 125 190 135
Width: 600
Flags: W
HStem: 0 36<471 493.693 493.693 518 554 572.118> 93 36<428 530 573 598.305> 251 36<113.287 244.567> 431 36<200.139 265.539> 576 36<179.972 296.82>
VStem: 282 37<322.063 413.659> 305 37<487.885 566.347>
Fore
342 538 m 0xfa
 342 483 292 454 278 446 c 1
 306 427 319 405 319 378 c 0
 319 314 251 251 173 251 c 0
 125 251 71 279 71 301 c 0
 71 310 81 321 91 321 c 0
 107 321 122 287 181 287 c 0
 226 287 282 322 282 371 c 0xfc
 282 405 251 430 205 431 c 0
 193 432 187 437 187 445 c 0
 187 449 189 459 200 465 c 0
 203 467 203 467 228 467 c 0
 276 467 305 503 305 530 c 0
 305 557 282 576 247 576 c 0
 185 576 172 539 155 539 c 0
 146 539 140 545 140 553 c 0
 140 577 204 612 255 612 c 0
 307 612 342 581 342 538 c 0xfa
604 498 m 0
 604 494 603 488 592 477 c 2
 153 63 l 2
 143 53 139 51 133 51 c 0
 123 51 117 58 117 67 c 0
 117 76 121 80 130 88 c 2
 568 502 l 2
 579 512 582 514 588 514 c 0
 598 514 604 507 604 498 c 0
584 22 m 0
 584 9 572 0 559 0 c 2
 474 0 l 2
 463 0 456 5 456 13 c 0
 456 18 459 29 471 35 c 1
 477 36 477 36 518 36 c 1
 530 93 l 1
 381 93 l 1
 388 127 l 1
 562 345 l 1
 619 345 l 1
 573 129 l 1
 586 129 l 2
 598 129 604 123 604 115 c 0
 604 106 598 93 575 93 c 2
 566 93 l 1
 554 36 l 1
 567 36 l 2
 578 36 584 31 584 22 c 0
537 129 m 1
 576 309 l 1
 574 309 l 1
 428 129 l 1
 537 129 l 1
EndSplineSet
LCarets2: 2 0 0 
Ligature2: "'frac' Diagonal Fractions lookup 3 subtable" three slash four
Ligature2: "'frac' Diagonal Fractions lookup 3 subtable" three fraction four
EndChar
StartChar: questiondown
Encoding: 126 191 136
Width: 600
Flags: W
HStem: -175 41<185.749 336.062> 317 100<322.273 433.575>
VStem: 105 43<-99.0043 18.8815> 306 143<332.788 400.587>
Fore
105 -55 m 0
 105 57 200 108 311 155 c 1
 320 196 l 2
 323 214 332 223 345 223 c 0
 356 223 362 217 362 205 c 0
 362 202 362 199 361 196 c 2
 346 128 l 1
 208 75 148 26 148 -43 c 0
 148 -97 194 -134 268 -134 c 0
 313 -134 345 -126 404 -100 c 1
 412 -59 l 2
 416 -41 425 -32 438 -32 c 0
 449 -32 454 -37 454 -48 c 0
 454 -51 454 -55 453 -59 c 2
 439 -126 l 1
 331 -175 282 -175 254 -175 c 0
 162 -175 105 -128 105 -55 c 0
449 378 m 0
 449 341 417 317 380 317 c 2
 353 317 l 2
 323 317 306 333 306 356 c 0
 306 382 328 417 375 417 c 2
 402 417 l 2
 432 417 449 402 449 378 c 0
EndSplineSet
EndChar
StartChar: Agrave
Encoding: 127 192 137
Width: 600
Flags: W
HStem: 0 41<19.5938 76 117 218.554 391.594 493 536 595.554> 188 41<227 462> 522 41<220.594 357 397 412>
Fore
384 16 m 0
 384 26 391 41 417 41 c 2
 493 41 l 1
 468 188 l 1
 202 188 l 1
 117 41 l 1
 196 41 l 2
 211 41 219 36 219 26 c 0
 219 16 212 0 187 0 c 2
 36 0 l 2
 20 0 12 5 12 16 c 0
 12 26 19 41 45 41 c 2
 76 41 l 1
 357 522 l 1
 237 522 l 2
 221 522 213 527 213 538 c 0
 213 548 220 563 246 563 c 2
 450 563 l 1
 536 41 l 1
 573 41 l 2
 588 41 596 36 596 26 c 0
 596 16 589 0 564 0 c 2
 408 0 l 2
 392 0 384 5 384 16 c 0
462 229 m 1
 412 522 l 1
 397 522 l 1
 227 229 l 1
 462 229 l 1
328 765 m 0
 328 780 343 789 353 789 c 0
 359 789 363 786 370 780 c 2
 463 680 l 1
 471 668 471 669 471 666 c 0
 471 662 466 640 445 640 c 0
 440 640 435 643 429 649 c 2
 336 749 l 2
 330 756 328 760 328 765 c 0
EndSplineSet
EndChar
StartChar: Aacute
Encoding: 128 193 138
Width: 600
Flags: W
HStem: 0 41<19.5938 76 117 218.554 391.594 493 536 595.554> 188 41<227 462> 522 41<220.594 357 397 412>
Fore
384 16 m 0
 384 26 391 41 417 41 c 2
 493 41 l 1
 468 188 l 1
 202 188 l 1
 117 41 l 1
 196 41 l 2
 211 41 219 36 219 26 c 0
 219 16 212 0 187 0 c 2
 36 0 l 2
 20 0 12 5 12 16 c 0
 12 26 19 41 45 41 c 2
 76 41 l 1
 357 522 l 1
 237 522 l 2
 221 522 213 527 213 538 c 0
 213 548 220 563 246 563 c 2
 450 563 l 1
 536 41 l 1
 573 41 l 2
 588 41 596 36 596 26 c 0
 596 16 589 0 564 0 c 2
 408 0 l 2
 392 0 384 5 384 16 c 0
462 229 m 1
 412 522 l 1
 397 522 l 1
 227 229 l 1
 462 229 l 1
547 773 m 0
 547 759 535 752 530 749 c 2
 395 649 l 2
 384 642 380 640 374 640 c 0
 364 640 358 647 358 657 c 0
 358 666 364 671 375 680 c 2
 510 780 l 2
 520 787 525 789 531 789 c 0
 540 789 547 783 547 773 c 0
EndSplineSet
EndChar
StartChar: Acircumflex
Encoding: 129 194 139
Width: 600
Flags: W
HStem: 0 41<19.5938 76 117 218.554 391.594 493 536 595.554> 188 41<227 462> 522 41<220.594 357 397 412>
Fore
384 16 m 0
 384 26 391 41 417 41 c 2
 493 41 l 1
 468 188 l 1
 202 188 l 1
 117 41 l 1
 196 41 l 2
 211 41 219 36 219 26 c 0
 219 16 212 0 187 0 c 2
 36 0 l 2
 20 0 12 5 12 16 c 0
 12 26 19 41 45 41 c 2
 76 41 l 1
 357 522 l 1
 237 522 l 2
 221 522 213 527 213 538 c 0
 213 548 220 563 246 563 c 2
 450 563 l 1
 536 41 l 1
 573 41 l 2
 588 41 596 36 596 26 c 0
 596 16 589 0 564 0 c 2
 408 0 l 2
 392 0 384 5 384 16 c 0
462 229 m 1
 412 522 l 1
 397 522 l 1
 227 229 l 1
 462 229 l 1
559 666 m 0
 559 654 549 640 534 640 c 0
 529 640 524 643 518 648 c 2
 429 736 l 1
 304 648 l 2
 296 643 289 640 284 640 c 0
 274 640 268 647 268 656 c 0
 268 671 283 678 286 680 c 2
 441 789 l 1
 550 681 l 2
 557 674 559 671 559 666 c 0
EndSplineSet
EndChar
StartChar: Atilde
Encoding: 130 195 140
Width: 600
Flags: W
HStem: 0 41<19.5938 76 117 218.554 391.594 493 536 595.554> 188 41<227 462> 522 41<220.594 357 397 412> 666 87<280 372 479 568> 666 41<437.632 530.811> 714 41<317.907 411.408>
Fore
384 16 m 0xe0
 384 26 391 41 417 41 c 2
 493 41 l 1
 468 188 l 1
 202 188 l 1
 117 41 l 1
 196 41 l 2
 211 41 219 36 219 26 c 0
 219 16 212 0 187 0 c 2
 36 0 l 2
 20 0 12 5 12 16 c 0
 12 26 19 41 45 41 c 2
 76 41 l 1
 357 522 l 1
 237 522 l 2
 221 522 213 527 213 538 c 0
 213 548 220 563 246 563 c 2
 450 563 l 1
 536 41 l 1
 573 41 l 2
 588 41 596 36 596 26 c 0
 596 16 589 0 564 0 c 2
 408 0 l 2
 392 0 384 5 384 16 c 0xe0
462 229 m 1
 412 522 l 1
 397 522 l 1
 227 229 l 1
 462 229 l 1
485 707 m 0xec
 522 707 546 753 568 753 c 0
 577 753 584 746 584 736 c 0
 584 723 565 710 555 702 c 0
 524 676 502 666 479 666 c 0xf0
 426 666 399 714 365 714 c 0
 322 714 306 669 280 669 c 0
 270 669 264 675 264 684 c 0
 264 701 323 755 372 755 c 0
 421 755 451 707 485 707 c 0xec
EndSplineSet
EndChar
StartChar: Adieresis
Encoding: 131 196 141
Width: 600
Flags: W
HStem: 0 41<19.5938 76 117 218.554 391.594 493 536 595.554> 188 41<227 462> 522 41<220.594 357 397 412> 661 100<278.845 347.826 499.845 568.587>
VStem: 262 102<677.107 743.965> 483 102<677.449 743.965>
Fore
384 16 m 0
 384 26 391 41 417 41 c 2
 493 41 l 1
 468 188 l 1
 202 188 l 1
 117 41 l 1
 196 41 l 2
 211 41 219 36 219 26 c 0
 219 16 212 0 187 0 c 2
 36 0 l 2
 20 0 12 5 12 16 c 0
 12 26 19 41 45 41 c 2
 76 41 l 1
 357 522 l 1
 237 522 l 2
 221 522 213 527 213 538 c 0
 213 548 220 563 246 563 c 2
 450 563 l 1
 536 41 l 1
 573 41 l 2
 588 41 596 36 596 26 c 0
 596 16 589 0 564 0 c 2
 408 0 l 2
 392 0 384 5 384 16 c 0
462 229 m 1
 412 522 l 1
 397 522 l 1
 227 229 l 1
 462 229 l 1
262 701 m 0
 262 727 289 761 324 761 c 0
 348 761 364 744 364 721 c 0
 364 686 330 661 302 661 c 0
 279 661 262 679 262 701 c 0
483 701 m 0
 483 727 510 761 545 761 c 0
 569 761 585 744 585 721 c 0
 585 686 550 661 524 661 c 0
 500 661 483 678 483 701 c 0
EndSplineSet
EndChar
StartChar: Aring
Encoding: 132 197 142
Width: 600
Flags: W
HStem: 0 41<19.5938 76 117 218.554 391.594 493 536 595.554> 188 41<227 462> 522 41<220.594 357 397 412> 630 33<376.187 468.748> 778 33<391.473 483.813>
VStem: 335 34<670.576 755.502> 491 34<685.661 770.246>
Fore
384 16 m 0
 384 26 391 41 417 41 c 2
 493 41 l 1
 468 188 l 1
 202 188 l 1
 117 41 l 1
 196 41 l 2
 211 41 219 36 219 26 c 0
 219 16 212 0 187 0 c 2
 36 0 l 2
 20 0 12 5 12 16 c 0
 12 26 19 41 45 41 c 2
 76 41 l 1
 357 522 l 1
 237 522 l 2
 221 522 213 527 213 538 c 0
 213 548 220 563 246 563 c 2
 450 563 l 1
 536 41 l 1
 573 41 l 2
 588 41 596 36 596 26 c 0
 596 16 589 0 564 0 c 2
 408 0 l 2
 392 0 384 5 384 16 c 0
462 229 m 1
 412 522 l 1
 397 522 l 1
 227 229 l 1
 462 229 l 1
335 703 m 0
 335 763 396 811 449 811 c 0
 494 811 525 781 525 739 c 0
 525 678 465 630 411 630 c 0
 366 630 335 662 335 703 c 0
418 663 m 0
 460 663 491 701 491 732 c 0
 491 758 471 778 442 778 c 0
 400 778 369 740 369 709 c 0
 369 683 389 663 418 663 c 0
EndSplineSet
EndChar
StartChar: AE
Encoding: 133 198 143
Width: 600
Flags: W
HStem: 0 41<20.5938 83 124 172.554 228.594 306 347 558> 189 41<216 337> 273 41<405 474> 522 41<238.594 318 358 408 449 640>
Fore
221 16 m 0
 221 26 228 41 254 41 c 2
 306 41 l 1
 337 189 l 1
 196 189 l 1
 124 41 l 1
 150 41 l 2
 165 41 173 36 173 26 c 0
 173 16 166 0 141 0 c 2
 37 0 l 2
 21 0 13 5 13 16 c 0
 13 26 20 41 46 41 c 2
 83 41 l 1
 318 522 l 1
 255 522 l 2
 239 522 231 527 231 538 c 0
 231 548 238 563 264 563 c 2
 690 563 l 1
 657 411 l 2
 654 393 645 384 631 384 c 0
 620 384 615 390 615 402 c 0
 615 405 615 408 616 411 c 2
 640 522 l 1
 449 522 l 1
 405 314 l 1
 483 314 l 1
 489 342 l 2
 493 360 501 369 514 369 c 0
 525 369 530 364 530 353 c 0
 530 350 530 346 529 342 c 2
 508 246 l 2
 504 228 496 219 483 219 c 0
 472 219 467 226 467 237 c 0
 467 240 467 243 468 246 c 2
 474 273 l 1
 396 273 l 1
 347 41 l 1
 558 41 l 1
 577 134 l 2
 582 153 589 160 603 160 c 0
 613 160 619 153 619 143 c 0
 619 140 619 137 618 134 c 2
 590 0 l 1
 245 0 l 2
 229 0 221 5 221 16 c 0
346 230 m 1
 408 522 l 1
 358 522 l 1
 216 230 l 1
 346 230 l 1
EndSplineSet
EndChar
StartChar: Ccedilla
Encoding: 134 199 144
Width: 600
Flags: W
HStem: -173 38<226.495 319.45> -16 41<314 420.852> 535 41<326.603 509.134>
VStem: 109 43<113.719 229.906 227.234 232.578 232.578 242 248 258.139> 323 38<-129.051 -82.8466> 568 66<427.5 552.5>
Fore
557 110 m 0
 557 82 433 -16 327 -16 c 2
 314 -16 l 1
 307 -47 l 1
 342 -48 361 -64 361 -92 c 0
 361 -141 319 -173 266 -173 c 0
 245 -173 186 -159 186 -138 c 0
 186 -124 198 -114 211 -114 c 0
 223 -114 242 -135 272 -135 c 0
 297 -135 323 -123 323 -100 c 0
 323 -87 309 -81 282 -81 c 2
 262 -81 l 1
 276 -12 l 1
 235 -1 213 8 189 28 c 0
 139 69 109 131 109 197 c 0
 109 212 111 227 114 242 c 2
 132 325 l 2
 156 438 274 576 427 576 c 0
 493 576 548 552 586 507 c 1
 592 536 l 2
 596 554 605 563 619 563 c 0
 629 563 634 558 634 547 c 0
 634 544 634 540 633 536 c 2
 609 424 l 2
 605 406 596 397 582 397 c 0
 572 397 567 403 567 415 c 0
 567 422 568 423 568 432 c 0
 568 488 503 535 419 535 c 0
 308 535 197 438 172 319 c 2
 157 248 l 2
 154 232 152 217 152 202 c 0
 152 103 224 25 327 25 c 0
 459 25 512 125 541 125 c 0
 551 125 557 119 557 110 c 0
EndSplineSet
EndChar
StartChar: Egrave
Encoding: 135 200 145
Width: 600
Flags: W
HStem: 0 41<53.5938 133 174 488> 272 41<232 368> 522 41<164.594 235 276 569>
Fore
157 538 m 0
 157 548 164 563 190 563 c 2
 619 563 l 1
 589 424 l 2
 585 406 576 397 562 397 c 0
 552 397 547 402 547 413 c 0
 547 416 547 420 548 424 c 2
 569 522 l 1
 276 522 l 1
 232 313 l 1
 377 313 l 1
 386 358 l 2
 390 376 399 385 413 385 c 0
 423 385 428 380 428 369 c 0
 428 366 428 362 427 358 c 2
 399 227 l 2
 395 209 387 200 374 200 c 0
 363 200 357 206 357 217 c 0
 357 220 357 223 358 227 c 2
 368 272 l 1
 223 272 l 1
 174 41 l 1
 488 41 l 1
 513 160 l 2
 517 178 526 187 540 187 c 0
 550 187 555 182 555 171 c 0
 555 168 555 164 554 160 c 2
 520 0 l 1
 70 0 l 2
 54 0 46 5 46 16 c 0
 46 26 53 41 79 41 c 2
 133 41 l 1
 235 522 l 1
 181 522 l 2
 165 522 157 527 157 538 c 0
339 765 m 0
 339 780 354 789 364 789 c 0
 370 789 374 786 381 780 c 2
 474 680 l 1
 482 667 483 668 483 665 c 0
 483 653 470 640 456 640 c 0
 451 640 446 643 440 649 c 2
 347 749 l 2
 341 756 339 760 339 765 c 0
EndSplineSet
EndChar
StartChar: Eacute
Encoding: 136 201 146
Width: 600
Flags: W
HStem: 0 41<53.5938 133 174 488> 272 41<232 368> 522 41<164.594 235 276 569>
Fore
157 538 m 0
 157 548 164 563 190 563 c 2
 619 563 l 1
 589 424 l 2
 585 406 576 397 562 397 c 0
 552 397 547 402 547 413 c 0
 547 416 547 420 548 424 c 2
 569 522 l 1
 276 522 l 1
 232 313 l 1
 377 313 l 1
 386 358 l 2
 390 376 399 385 413 385 c 0
 423 385 428 380 428 369 c 0
 428 366 428 362 427 358 c 2
 399 227 l 2
 395 209 387 200 374 200 c 0
 363 200 357 206 357 217 c 0
 357 220 357 223 358 227 c 2
 368 272 l 1
 223 272 l 1
 174 41 l 1
 488 41 l 1
 513 160 l 2
 517 178 526 187 540 187 c 0
 550 187 555 182 555 171 c 0
 555 168 555 164 554 160 c 2
 520 0 l 1
 70 0 l 2
 54 0 46 5 46 16 c 0
 46 26 53 41 79 41 c 2
 133 41 l 1
 235 522 l 1
 181 522 l 2
 165 522 157 527 157 538 c 0
565 773 m 0
 565 759 553 752 548 749 c 2
 413 649 l 2
 402 642 398 640 392 640 c 0
 382 640 376 647 376 657 c 0
 376 666 382 671 393 680 c 2
 528 780 l 2
 538 787 543 789 549 789 c 0
 558 789 565 783 565 773 c 0
EndSplineSet
EndChar
StartChar: Ecircumflex
Encoding: 137 202 147
Width: 600
Flags: W
HStem: 0 41<53.5938 133 174 488> 272 41<232 368> 522 41<164.594 235 276 569>
Fore
157 538 m 0
 157 548 164 563 190 563 c 2
 619 563 l 1
 589 424 l 2
 585 406 576 397 562 397 c 0
 552 397 547 402 547 413 c 0
 547 416 547 420 548 424 c 2
 569 522 l 1
 276 522 l 1
 232 313 l 1
 377 313 l 1
 386 358 l 2
 390 376 399 385 413 385 c 0
 423 385 428 380 428 369 c 0
 428 366 428 362 427 358 c 2
 399 227 l 2
 395 209 387 200 374 200 c 0
 363 200 357 206 357 217 c 0
 357 220 357 223 358 227 c 2
 368 272 l 1
 223 272 l 1
 174 41 l 1
 488 41 l 1
 513 160 l 2
 517 178 526 187 540 187 c 0
 550 187 555 182 555 171 c 0
 555 168 555 164 554 160 c 2
 520 0 l 1
 70 0 l 2
 54 0 46 5 46 16 c 0
 46 26 53 41 79 41 c 2
 133 41 l 1
 235 522 l 1
 181 522 l 2
 165 522 157 527 157 538 c 0
577 666 m 0
 577 654 567 640 552 640 c 0
 547 640 542 643 536 648 c 2
 447 736 l 1
 322 648 l 2
 314 643 307 640 302 640 c 0
 292 640 286 647 286 656 c 0
 286 671 301 678 304 680 c 2
 459 789 l 1
 568 681 l 2
 575 674 577 671 577 666 c 0
EndSplineSet
EndChar
StartChar: Edieresis
Encoding: 138 203 148
Width: 600
Flags: W
HStem: 0 41<53.5938 133 174 488> 272 41<232 368> 522 41<164.594 235 276 569> 661 100<297.845 366.587 518.845 587.826>
VStem: 281 102<677.449 743.965> 502 102<677.107 743.965>
Fore
157 538 m 0
 157 548 164 563 190 563 c 2
 619 563 l 1
 589 424 l 2
 585 406 576 397 562 397 c 0
 552 397 547 402 547 413 c 0
 547 416 547 420 548 424 c 2
 569 522 l 1
 276 522 l 1
 232 313 l 1
 377 313 l 1
 386 358 l 2
 390 376 399 385 413 385 c 0
 423 385 428 380 428 369 c 0
 428 366 428 362 427 358 c 2
 399 227 l 2
 395 209 387 200 374 200 c 0
 363 200 357 206 357 217 c 0
 357 220 357 223 358 227 c 2
 368 272 l 1
 223 272 l 1
 174 41 l 1
 488 41 l 1
 513 160 l 2
 517 178 526 187 540 187 c 0
 550 187 555 182 555 171 c 0
 555 168 555 164 554 160 c 2
 520 0 l 1
 70 0 l 2
 54 0 46 5 46 16 c 0
 46 26 53 41 79 41 c 2
 133 41 l 1
 235 522 l 1
 181 522 l 2
 165 522 157 527 157 538 c 0
281 701 m 0
 281 727 308 761 343 761 c 0
 367 761 383 744 383 721 c 0
 383 686 348 661 322 661 c 0
 298 661 281 678 281 701 c 0
502 701 m 0
 502 727 529 761 564 761 c 0
 588 761 604 744 604 721 c 0
 604 686 570 661 542 661 c 0
 519 661 502 679 502 701 c 0
EndSplineSet
EndChar
StartChar: Igrave
Encoding: 139 204 149
Width: 600
Flags: W
HStem: 0 41<123.594 288 329 491.551> 522 41<234.594 390 431 602.602>
VStem: 116 487<16 548 16 178.551>
Fore
603 548 m 0
 603 539 597 522 570 522 c 2
 431 522 l 1
 329 41 l 1
 468 41 l 2
 484 41 492 36 492 26 c 0
 492 16 485 0 459 0 c 2
 140 0 l 2
 124 0 116 5 116 16 c 0
 116 26 123 41 149 41 c 2
 288 41 l 1
 390 522 l 1
 251 522 l 2
 235 522 227 527 227 538 c 0
 227 548 234 563 260 563 c 2
 579 563 l 2
 595 563 603 558 603 548 c 0
354 765 m 0
 354 780 369 789 379 789 c 0
 385 789 389 786 396 780 c 2
 489 680 l 1
 497 668 497 669 497 666 c 0
 497 662 492 640 471 640 c 0
 466 640 461 643 455 649 c 2
 362 749 l 2
 356 756 354 760 354 765 c 0
EndSplineSet
EndChar
StartChar: Iacute
Encoding: 140 205 150
Width: 600
Flags: W
HStem: 0 41<123.594 288 329 491.551> 522 41<234.594 390 431 602.602>
VStem: 116 493<16 773 16 178.551>
Fore
603 548 m 0
 603 539 597 522 570 522 c 2
 431 522 l 1
 329 41 l 1
 468 41 l 2
 484 41 492 36 492 26 c 0
 492 16 485 0 459 0 c 2
 140 0 l 2
 124 0 116 5 116 16 c 0
 116 26 123 41 149 41 c 2
 288 41 l 1
 390 522 l 1
 251 522 l 2
 235 522 227 527 227 538 c 0
 227 548 234 563 260 563 c 2
 579 563 l 2
 595 563 603 558 603 548 c 0
609 773 m 0
 609 759 597 752 592 749 c 2
 457 649 l 2
 446 642 442 640 436 640 c 0
 426 640 420 647 420 657 c 0
 420 666 426 671 437 680 c 2
 572 780 l 2
 582 787 587 789 593 789 c 0
 602 789 609 783 609 773 c 0
EndSplineSet
EndChar
StartChar: Icircumflex
Encoding: 141 206 151
Width: 600
Flags: W
HStem: 0 41<123.594 288 329 491.551> 522 41<234.594 390 431 602.602>
VStem: 116 487<16 548 16 178.551>
Fore
603 548 m 0
 603 539 597 522 570 522 c 2
 431 522 l 1
 329 41 l 1
 468 41 l 2
 484 41 492 36 492 26 c 0
 492 16 485 0 459 0 c 2
 140 0 l 2
 124 0 116 5 116 16 c 0
 116 26 123 41 149 41 c 2
 288 41 l 1
 390 522 l 1
 251 522 l 2
 235 522 227 527 227 538 c 0
 227 548 234 563 260 563 c 2
 579 563 l 2
 595 563 603 558 603 548 c 0
586 666 m 0
 586 654 576 640 561 640 c 0
 556 640 551 643 545 648 c 2
 456 736 l 1
 331 648 l 2
 323 643 316 640 311 640 c 0
 301 640 295 647 295 656 c 0
 295 671 310 678 313 680 c 2
 468 789 l 1
 577 681 l 2
 584 674 586 671 586 666 c 0
EndSplineSet
EndChar
StartChar: Idieresis
Encoding: 142 207 152
Width: 600
Flags: W
HStem: 0 41<123.594 288 329 491.551> 522 41<234.594 390 431 602.602> 661 100<305.845 374.587 527.845 596.587>
VStem: 116 497<16 721 192.845 261.587> 289 102<677.449 743.965> 511 102<677.449 743.965>
Fore
603 548 m 0xf0
 603 539 597 522 570 522 c 2
 431 522 l 1
 329 41 l 1
 468 41 l 2
 484 41 492 36 492 26 c 0
 492 16 485 0 459 0 c 2
 140 0 l 2
 124 0 116 5 116 16 c 0
 116 26 123 41 149 41 c 2
 288 41 l 1
 390 522 l 1
 251 522 l 2
 235 522 227 527 227 538 c 0
 227 548 234 563 260 563 c 2
 579 563 l 2
 595 563 603 558 603 548 c 0xf0
289 701 m 0xe8
 289 727 316 761 351 761 c 0
 375 761 391 744 391 721 c 0
 391 686 356 661 330 661 c 0
 306 661 289 678 289 701 c 0xe8
511 701 m 0xe4
 511 727 538 761 573 761 c 0
 597 761 613 744 613 721 c 0xf0
 613 686 578 661 552 661 c 0
 528 661 511 678 511 701 c 0xe4
EndSplineSet
EndChar
StartChar: Eth
Encoding: 143 208 153
Width: 600
Flags: W
HStem: 0 41<53.5938 113 154 383.312> 272 41<68.5938 162 212 396.554> 522 41<164.594 215 256 484>
VStem: 547 39<302.812 310 319 326.894 326.894 332.102 329.498 448.496>
Fore
46 16 m 0
 46 26 53 41 79 41 c 2
 113 41 l 1
 162 272 l 1
 85 272 l 2
 69 272 61 277 61 288 c 0
 61 298 68 313 94 313 c 2
 171 313 l 1
 215 522 l 1
 181 522 l 2
 165 522 157 527 157 538 c 0
 157 548 164 563 190 563 c 2
 410 563 l 2
 518 563 592 478 592 366 c 0
 592 348 590 329 586 310 c 2
 574 254 l 2
 544 115 416 0 290 0 c 2
 70 0 l 2
 54 0 46 5 46 16 c 0
397 298 m 0
 397 288 390 272 365 272 c 2
 203 272 l 1
 154 41 l 1
 304 41 l 2
 398 41 509 140 531 245 c 2
 547 319 l 2
 550 332 551 345 551 358 c 0
 551 399 538 441 514 472 c 0
 487 507 453 522 399 522 c 2
 256 522 l 1
 212 313 l 1
 374 313 l 2
 389 313 397 308 397 298 c 0
EndSplineSet
EndChar
StartChar: Ntilde
Encoding: 144 209 154
Width: 600
Flags: W
HStem: 0 41<52.5938 112 153 250.554> 522 41<143.594 214 479.748 571 612 677.554> 666 87<305 397 504 593> 666 41<462.632 555.811> 714 41<342.907 436.408>
Fore
678 548 m 0xc0
 678 538 671 522 646 522 c 2
 612 522 l 1
 501 0 l 1
 449 0 l 1
 251 504 l 1
 153 41 l 1
 228 41 l 2
 243 41 251 36 251 26 c 0
 251 16 244 0 219 0 c 2
 69 0 l 2
 53 0 45 5 45 16 c 0
 45 26 52 41 78 41 c 2
 112 41 l 1
 214 522 l 1
 160 522 l 2
 144 522 136 527 136 538 c 0
 136 548 143 563 169 563 c 2
 275 563 l 1
 473 59 l 1
 571 522 l 1
 497 522 l 2
 481 522 472 527 472 538 c 0
 472 548 479 563 506 563 c 2
 655 563 l 2
 670 563 678 558 678 548 c 0xc0
510 707 m 0xd8
 547 707 571 753 593 753 c 0
 602 753 609 746 609 736 c 0
 609 723 590 710 580 702 c 0
 549 676 527 666 504 666 c 0xe0
 451 666 424 714 390 714 c 0
 347 714 331 669 305 669 c 0
 295 669 289 675 289 684 c 0
 289 701 348 755 397 755 c 0
 446 755 476 707 510 707 c 0xd8
EndSplineSet
EndChar
StartChar: Ograve
Encoding: 145 210 155
Width: 600
Flags: W
HStem: -16 41<227.573 391.027> 535 41<327.944 493.633>
VStem: 103 42<115.712 325.035> 574 43<230.063 444.51>
Fore
103 205 m 0
 103 390 255 576 422 576 c 0
 540 576 617 484 617 354 c 0
 617 157 454 -16 297 -16 c 0
 180 -16 103 77 103 205 c 0
305 25 m 0
 435 25 574 176 574 344 c 0
 574 455 511 535 414 535 c 0
 275 535 145 374 145 216 c 0
 145 106 209 25 305 25 c 0
348 765 m 0
 348 780 363 789 373 789 c 0
 379 789 383 786 390 780 c 2
 483 680 l 1
 491 668 491 669 491 666 c 0
 491 662 486 640 465 640 c 0
 460 640 455 643 449 649 c 2
 356 749 l 2
 350 756 348 760 348 765 c 0
EndSplineSet
EndChar
StartChar: Oacute
Encoding: 146 211 156
Width: 600
Flags: W
HStem: -16 41<227.573 391.027> 535 41<327.944 493.633>
VStem: 103 42<115.712 325.035> 574 43<230.063 444.51>
Fore
103 205 m 0
 103 390 255 576 422 576 c 0
 540 576 617 484 617 354 c 0
 617 157 454 -16 297 -16 c 0
 180 -16 103 77 103 205 c 0
305 25 m 0
 435 25 574 176 574 344 c 0
 574 455 511 535 414 535 c 0
 275 535 145 374 145 216 c 0
 145 106 209 25 305 25 c 0
580 773 m 0
 580 759 568 752 563 749 c 2
 428 649 l 2
 417 642 413 640 407 640 c 0
 398 640 391 646 391 656 c 0
 391 670 402 675 408 680 c 2
 543 780 l 2
 553 787 558 789 564 789 c 0
 573 789 580 783 580 773 c 0
EndSplineSet
EndChar
StartChar: Ocircumflex
Encoding: 147 212 157
Width: 600
Flags: W
HStem: -16 41<227.573 391.027> 535 41<327.944 493.633>
VStem: 103 42<115.712 325.035> 574 43<230.063 444.51>
Fore
103 205 m 0
 103 390 255 576 422 576 c 0
 540 576 617 484 617 354 c 0
 617 157 454 -16 297 -16 c 0
 180 -16 103 77 103 205 c 0
305 25 m 0
 435 25 574 176 574 344 c 0
 574 455 511 535 414 535 c 0
 275 535 145 374 145 216 c 0
 145 106 209 25 305 25 c 0
586 666 m 0
 586 654 576 640 561 640 c 0
 556 640 551 643 545 648 c 2
 456 736 l 1
 331 648 l 2
 323 643 316 640 311 640 c 0
 301 640 295 647 295 656 c 0
 295 671 310 678 313 680 c 2
 468 789 l 1
 577 681 l 2
 584 674 586 671 586 666 c 0
EndSplineSet
EndChar
StartChar: Otilde
Encoding: 148 213 158
Width: 600
Flags: W
HStem: -16 41<227.573 391.027> 535 41<327.944 493.633> 666 87<313 405 512 601> 666 41<470.632 563.811> 714 41<350.907 444.408>
VStem: 103 42<115.712 325.035> 574 43<230.063 444.51>
Fore
103 205 m 0xc6
 103 390 255 576 422 576 c 0
 540 576 617 484 617 354 c 0
 617 157 454 -16 297 -16 c 0
 180 -16 103 77 103 205 c 0xc6
305 25 m 0
 435 25 574 176 574 344 c 0
 574 455 511 535 414 535 c 0
 275 535 145 374 145 216 c 0
 145 106 209 25 305 25 c 0
518 707 m 0xde
 555 707 579 753 601 753 c 0
 610 753 617 746 617 736 c 0
 617 723 598 710 588 702 c 0
 557 676 535 666 512 666 c 0xe6
 459 666 432 714 398 714 c 0
 355 714 339 669 313 669 c 0
 303 669 297 675 297 684 c 0
 297 701 356 755 405 755 c 0
 454 755 484 707 518 707 c 0xde
EndSplineSet
EndChar
StartChar: Odieresis
Encoding: 149 214 159
Width: 600
Flags: W
HStem: -16 41<227.573 391.027> 535 41<327.944 493.633> 661 100<305.845 374.587 526.845 595.826>
VStem: 103 42<115.712 325.035> 289 102<677.449 743.965> 510 102<677.107 743.965> 574 43<230.063 444.51>
Fore
103 205 m 0xfa
 103 390 255 576 422 576 c 0
 540 576 617 484 617 354 c 0
 617 157 454 -16 297 -16 c 0
 180 -16 103 77 103 205 c 0xfa
305 25 m 0
 435 25 574 176 574 344 c 0
 574 455 511 535 414 535 c 0
 275 535 145 374 145 216 c 0
 145 106 209 25 305 25 c 0
289 701 m 0
 289 727 316 761 351 761 c 0
 375 761 391 744 391 721 c 0
 391 686 356 661 330 661 c 0
 306 661 289 678 289 701 c 0
510 701 m 0xfc
 510 727 537 761 572 761 c 0
 596 761 612 744 612 721 c 0
 612 686 578 661 550 661 c 0
 527 661 510 679 510 701 c 0xfc
EndSplineSet
EndChar
StartChar: multiply
Encoding: 150 215 160
Width: 600
Flags: W
HStem: 100 364<238 482 238 238>
VStem: 143 434<115 448 115 115>
Fore
212 440 m 0
 212 450 222 464 238 464 c 0
 244 464 247 461 253 453 c 2
 366 311 l 1
 538 453 l 2
 549 462 554 464 560 464 c 0
 569 464 577 457 577 448 c 0
 577 438 571 432 561 424 c 2
 389 282 l 1
 501 139 l 2
 507 133 508 129 508 124 c 0
 508 109 492 100 482 100 c 0
 476 100 472 102 465 110 c 2
 354 253 l 1
 181 110 l 2
 172 103 166 100 160 100 c 0
 150 100 143 106 143 115 c 0
 143 129 156 137 158 139 c 2
 331 282 l 1
 218 424 l 1
 214 431 212 435 212 440 c 0
EndSplineSet
EndChar
StartChar: Oslash
Encoding: 151 216 161
Width: 600
Flags: W
HStem: -16 41<227.007 389.405> 535 41<326.569 492.89> 585 20G<667.5 675.5>
VStem: 102 43<145.708 322.764> 575 42<232.227 414.816>
Fore
617 353 m 0
 617 166 461 -16 297 -16 c 0
 237 -16 187 7 152 51 c 1
 69 -31 l 2
 60 -40 55 -43 49 -43 c 0
 40 -43 35 -37 35 -29 c 0
 35 -21 40 -15 46 -9 c 2
 134 78 l 1
 113 117 102 159 102 204 c 0
 102 385 250 576 422 576 c 0
 482 576 527 555 566 510 c 1
 650 593 l 2
 659 602 664 605 671 605 c 0
 680 605 685 599 685 591 c 0
 685 583 681 579 673 571 c 2
 585 483 l 1
 606 447 617 402 617 353 c 0
414 535 m 0
 273 535 145 369 145 216 c 0
 145 180 153 145 168 112 c 1
 533 476 l 1
 502 516 463 535 414 535 c 0
305 25 m 0
 438 25 575 180 575 343 c 0
 575 381 567 417 551 449 c 1
 185 84 l 1
 216 45 256 25 305 25 c 0
EndSplineSet
EndChar
StartChar: Ugrave
Encoding: 152 217 162
Width: 600
Flags: W
HStem: -16 41<229.251 388.311> 522 41<161.178 212 253 358.554 477.773 569 610 675.569>
VStem: 135 42<76.5741 171.627 170.234 173.02 173.02 185 185 201.382>
Fore
676 549 m 0
 676 538 671 522 644 522 c 2
 610 522 l 1
 538 185 l 2
 514 71 409 -16 297 -16 c 0
 199 -16 135 49 135 140 c 0
 135 155 137 170 140 185 c 2
 212 522 l 1
 178 522 l 2
 162 522 154 527 154 538 c 0
 154 548 160 563 187 563 c 2
 336 563 l 2
 351 563 359 558 359 548 c 0
 359 538 352 522 327 522 c 2
 253 522 l 1
 181 185 l 2
 178 173 177 161 177 150 c 0
 177 77 228 25 305 25 c 0
 393 25 478 95 497 185 c 2
 569 522 l 1
 495 522 l 2
 479 522 471 527 471 538 c 0
 471 548 476 563 504 563 c 2
 653 563 l 2
 669 563 676 559 676 549 c 0
351 765 m 0
 351 780 366 789 376 789 c 0
 382 789 386 786 393 780 c 2
 486 680 l 1
 494 667 495 668 495 665 c 0
 495 653 482 640 468 640 c 0
 463 640 458 643 452 649 c 2
 359 749 l 2
 353 756 351 760 351 765 c 0
EndSplineSet
EndChar
StartChar: Uacute
Encoding: 153 218 163
Width: 600
Flags: W
HStem: -16 41<229.251 388.311> 522 41<161.178 212 253 358.554 477.773 569 610 675.569>
VStem: 135 42<76.5741 171.627 170.234 173.02 173.02 185 185 201.382>
Fore
676 549 m 0
 676 538 671 522 644 522 c 2
 610 522 l 1
 538 185 l 2
 514 71 409 -16 297 -16 c 0
 199 -16 135 49 135 140 c 0
 135 155 137 170 140 185 c 2
 212 522 l 1
 178 522 l 2
 162 522 154 527 154 538 c 0
 154 548 160 563 187 563 c 2
 336 563 l 2
 351 563 359 558 359 548 c 0
 359 538 352 522 327 522 c 2
 253 522 l 1
 181 185 l 2
 178 173 177 161 177 150 c 0
 177 77 228 25 305 25 c 0
 393 25 478 95 497 185 c 2
 569 522 l 1
 495 522 l 2
 479 522 471 527 471 538 c 0
 471 548 476 563 504 563 c 2
 653 563 l 2
 669 563 676 559 676 549 c 0
577 773 m 0
 577 759 565 752 560 749 c 2
 425 649 l 2
 414 642 410 640 404 640 c 0
 394 640 388 647 388 657 c 0
 388 666 394 671 405 680 c 2
 540 780 l 2
 550 787 555 789 561 789 c 0
 570 789 577 783 577 773 c 0
EndSplineSet
EndChar
StartChar: Ucircumflex
Encoding: 154 219 164
Width: 600
Flags: W
HStem: -16 41<229.251 388.311> 522 41<161.178 212 253 358.554 477.773 569 610 675.569>
VStem: 135 42<76.5741 171.627 170.234 173.02 173.02 185 185 201.382>
Fore
676 549 m 0
 676 538 671 522 644 522 c 2
 610 522 l 1
 538 185 l 2
 514 71 409 -16 297 -16 c 0
 199 -16 135 49 135 140 c 0
 135 155 137 170 140 185 c 2
 212 522 l 1
 178 522 l 2
 162 522 154 527 154 538 c 0
 154 548 160 563 187 563 c 2
 336 563 l 2
 351 563 359 558 359 548 c 0
 359 538 352 522 327 522 c 2
 253 522 l 1
 181 185 l 2
 178 173 177 161 177 150 c 0
 177 77 228 25 305 25 c 0
 393 25 478 95 497 185 c 2
 569 522 l 1
 495 522 l 2
 479 522 471 527 471 538 c 0
 471 548 476 563 504 563 c 2
 653 563 l 2
 669 563 676 559 676 549 c 0
586 666 m 0
 586 654 576 640 561 640 c 0
 556 640 551 643 545 648 c 2
 456 736 l 1
 331 648 l 2
 323 643 316 640 311 640 c 0
 301 640 295 647 295 656 c 0
 295 671 310 678 313 680 c 2
 468 789 l 1
 577 681 l 2
 584 674 586 671 586 666 c 0
EndSplineSet
EndChar
StartChar: Udieresis
Encoding: 155 220 165
Width: 600
Flags: W
HStem: -16 41<229.251 388.311> 522 41<161.178 212 253 358.554 477.773 569 610 675.569> 661 100<305.845 374.587 526.845 595.826>
VStem: 135 42<76.5741 171.627 170.234 173.02 173.02 185 185 201.382> 289 102<677.449 743.965> 510 102<677.107 743.965>
Fore
676 549 m 0
 676 538 671 522 644 522 c 2
 610 522 l 1
 538 185 l 2
 514 71 409 -16 297 -16 c 0
 199 -16 135 49 135 140 c 0
 135 155 137 170 140 185 c 2
 212 522 l 1
 178 522 l 2
 162 522 154 527 154 538 c 0
 154 548 160 563 187 563 c 2
 336 563 l 2
 351 563 359 558 359 548 c 0
 359 538 352 522 327 522 c 2
 253 522 l 1
 181 185 l 2
 178 173 177 161 177 150 c 0
 177 77 228 25 305 25 c 0
 393 25 478 95 497 185 c 2
 569 522 l 1
 495 522 l 2
 479 522 471 527 471 538 c 0
 471 548 476 563 504 563 c 2
 653 563 l 2
 669 563 676 559 676 549 c 0
289 701 m 0
 289 727 316 761 351 761 c 0
 375 761 391 744 391 721 c 0
 391 686 356 661 330 661 c 0
 306 661 289 678 289 701 c 0
510 701 m 0
 510 727 537 761 572 761 c 0
 596 761 612 744 612 721 c 0
 612 686 578 661 550 661 c 0
 527 661 510 679 510 701 c 0
EndSplineSet
EndChar
StartChar: Yacute
Encoding: 156 221 166
Width: 600
Flags: W
HStem: 0 41<159.594 290 331 458.554> 522 41<172.594 213 262 331.554 505.748 563 609 664.609>
Fore
665 548 m 0
 665 537 657 522 633 522 c 2
 609 522 l 1
 376 254 l 1
 331 41 l 1
 436 41 l 2
 451 41 459 36 459 26 c 0
 459 16 452 0 427 0 c 2
 176 0 l 2
 160 0 152 5 152 16 c 0
 152 26 159 41 185 41 c 2
 290 41 l 1
 335 254 l 1
 213 522 l 1
 189 522 l 2
 173 522 165 527 165 538 c 0
 165 548 172 563 198 563 c 2
 309 563 l 2
 324 563 332 558 332 548 c 0
 332 538 325 522 300 522 c 2
 262 522 l 1
 366 295 l 1
 563 522 l 1
 523 522 l 2
 507 522 498 527 498 538 c 0
 498 548 505 563 532 563 c 2
 642 563 l 2
 657 563 665 557 665 548 c 0
577 773 m 0
 577 759 565 752 560 749 c 2
 425 649 l 2
 414 642 410 640 404 640 c 0
 394 640 388 647 388 657 c 0
 388 666 394 671 405 680 c 2
 540 780 l 2
 550 787 555 789 561 789 c 0
 570 789 577 783 577 773 c 0
EndSplineSet
EndChar
StartChar: Thorn
Encoding: 157 222 167
Width: 600
Flags: W
HStem: 0 41<53.5938 133 174 335.551> 131 41<202 427.877> 422 41<263 479.244> 522 41<164.594 235 276 446.602>
VStem: 524 41<255.044 380.114>
Fore
565 330 m 0
 565 226 456 131 324 131 c 2
 193 131 l 1
 174 41 l 1
 312 41 l 2
 328 41 336 36 336 26 c 0
 336 16 329 0 303 0 c 2
 70 0 l 2
 54 0 46 5 46 16 c 0
 46 26 53 41 79 41 c 2
 133 41 l 1
 235 522 l 1
 181 522 l 2
 165 522 157 527 157 538 c 0
 157 548 164 563 190 563 c 2
 423 563 l 2
 439 563 447 558 447 548 c 0
 447 539 441 522 414 522 c 2
 276 522 l 1
 263 463 l 1
 408 463 l 2
 502 463 565 407 565 330 c 0
336 172 m 2
 436 172 524 243 524 321 c 0
 524 378 474 422 404 422 c 2
 255 422 l 1
 202 172 l 1
 336 172 l 2
EndSplineSet
EndChar
StartChar: germandbls
Encoding: 158 223 168
Width: 600
Flags: W
HStem: -16 41<328.442 424.288> 0 41<53.5938 133 174 211.554> 334 41<328.594 421.244> 563 41<316.01 444.787>
VStem: 46 492<16 209 16 209 16 16> 277 43<32.667 97.6649 94.1846 101.145> 471 42<422.64 536.474> 496 42<111.404 269.618>
Fore
46 16 m 0x78
 46 26 53 41 79 41 c 2
 133 41 l 1
 225 476 l 2
 240 547 316 604 394 604 c 0
 464 604 513 555 513 490 c 0x72
 513 411 458 375 430 359 c 1
 502 327 538 277 538 209 c 0x78
 538 106 461 -16 362 -16 c 0
 311 -16 277 21 277 73 c 0
 277 98 283 124 305 124 c 0
 316 124 322 118 322 107 c 0
 322 102 320 94 320 81 c 0
 320 46 337 25 370 25 c 0
 435 25 496 118 496 198 c 0xb5
 496 294 407 334 350 334 c 2
 345 334 l 2
 329 334 321 339 321 350 c 0
 321 365 335 375 350 375 c 2
 355 375 l 2
 403 375 471 415 471 480 c 0xb2
 471 527 437 563 386 563 c 0
 330 563 277 525 266 476 c 2
 174 41 l 1
 189 41 l 2
 204 41 212 36 212 26 c 0
 212 16 205 0 180 0 c 2
 70 0 l 2
 54 0 46 5 46 16 c 0x78
EndSplineSet
EndChar
StartChar: agrave
Encoding: 159 224 169
Width: 600
Flags: W
HStem: -16 41<157.823 330.832> 0 41<469 545.554> 217 41<218.697 394.896> 390 41<306.344 462.175>
VStem: 93 42<47.9607 151.17> 486 42<308.305 365.294>
Fore
546 26 m 0x7c
 546 16 539 0 514 0 c 2
 419 0 l 1x7c
 433 67 l 1
 360 10 295 -16 225 -16 c 0xbc
 143 -16 93 24 93 86 c 0
 93 189 206 258 338 258 c 0
 384 258 414 253 469 237 c 1
 484 308 l 2
 485 313 486 318 486 323 c 0
 486 364 444 390 379 390 c 0
 314 390 234 358 220 358 c 0
 211 358 205 365 205 374 c 0
 205 389 219 396 227 399 c 0
 286 418 354 431 391 431 c 0
 474 431 528 390 528 331 c 0
 528 324 527 316 525 308 c 2
 469 41 l 1
 523 41 l 2
 538 41 546 36 546 26 c 0x7c
337 217 m 0
 225 217 135 168 135 94 c 0
 135 52 171 25 232 25 c 0xbc
 303 25 362 49 443 112 c 1
 462 202 l 1
 428 211 381 217 337 217 c 0
305 614 m 0
 305 626 316 639 330 639 c 0
 336 639 340 636 347 630 c 2
 440 530 l 1
 448 517 449 518 449 515 c 0
 449 503 436 490 422 490 c 0
 417 490 412 493 406 499 c 2
 313 599 l 2
 308 605 305 609 305 614 c 0
EndSplineSet
EndChar
StartChar: aacute
Encoding: 160 225 170
Width: 600
Flags: W
HStem: -16 41<157.823 330.832> 0 41<469 545.554> 217 41<218.697 394.896> 390 41<306.344 462.175>
VStem: 93 42<47.9607 151.17> 486 42<308.305 365.294>
Fore
546 26 m 0x7c
 546 16 539 0 514 0 c 2
 419 0 l 1x7c
 433 67 l 1
 360 10 295 -16 225 -16 c 0xbc
 143 -16 93 24 93 86 c 0
 93 189 206 258 338 258 c 0
 384 258 414 253 469 237 c 1
 484 308 l 2
 485 313 486 318 486 323 c 0
 486 364 444 390 379 390 c 0
 314 390 234 358 220 358 c 0
 211 358 205 365 205 374 c 0
 205 389 219 396 227 399 c 0
 286 418 354 431 391 431 c 0
 474 431 528 390 528 331 c 0
 528 324 527 316 525 308 c 2
 469 41 l 1
 523 41 l 2
 538 41 546 36 546 26 c 0x7c
337 217 m 0
 225 217 135 168 135 94 c 0
 135 52 171 25 232 25 c 0xbc
 303 25 362 49 443 112 c 1
 462 202 l 1
 428 211 381 217 337 217 c 0
531 623 m 0
 531 609 519 602 514 599 c 2
 379 499 l 2
 369 492 364 490 358 490 c 0
 349 490 342 496 342 506 c 0
 342 520 353 525 359 530 c 2
 494 630 l 2
 504 637 509 639 515 639 c 0
 524 639 531 633 531 623 c 0
EndSplineSet
EndChar
StartChar: acircumflex
Encoding: 161 226 171
Width: 600
Flags: W
HStem: -16 41<157.823 330.832> 0 41<469 545.554> 217 41<218.697 394.896> 390 41<306.344 462.175>
VStem: 93 42<47.9607 151.17> 486 42<308.305 365.294>
Fore
546 26 m 0x7c
 546 16 539 0 514 0 c 2
 419 0 l 1x7c
 433 67 l 1
 360 10 295 -16 225 -16 c 0xbc
 143 -16 93 24 93 86 c 0
 93 189 206 258 338 258 c 0
 384 258 414 253 469 237 c 1
 484 308 l 2
 485 313 486 318 486 323 c 0
 486 364 444 390 379 390 c 0
 314 390 234 358 220 358 c 0
 211 358 205 365 205 374 c 0
 205 389 219 396 227 399 c 0
 286 418 354 431 391 431 c 0
 474 431 528 390 528 331 c 0
 528 324 527 316 525 308 c 2
 469 41 l 1
 523 41 l 2
 538 41 546 36 546 26 c 0x7c
337 217 m 0
 225 217 135 168 135 94 c 0
 135 52 171 25 232 25 c 0xbc
 303 25 362 49 443 112 c 1
 462 202 l 1
 428 211 381 217 337 217 c 0
544 516 m 0
 544 504 534 490 519 490 c 0
 514 490 509 493 503 498 c 2
 415 586 l 1
 289 498 l 2
 281 493 274 490 269 490 c 0
 259 490 253 497 253 506 c 0
 253 521 268 528 271 530 c 2
 426 639 l 1
 535 531 l 2
 542 524 544 521 544 516 c 0
EndSplineSet
EndChar
StartChar: atilde
Encoding: 162 227 172
Width: 600
Flags: W
HStem: -16 41<157.823 330.832> 0 41<469 545.554> 217 41<218.697 394.896> 390 41<306.344 462.175> 516 87<265 358 464 553> 516 41<422.683 515.811> 564 41<303.051 396.582>
VStem: 93 42<47.9607 151.17> 486 42<308.305 365.294>
Fore
546 26 m 0x7180
 546 16 539 0 514 0 c 2
 419 0 l 1x7180
 433 67 l 1
 360 10 295 -16 225 -16 c 0xb180
 143 -16 93 24 93 86 c 0
 93 189 206 258 338 258 c 0
 384 258 414 253 469 237 c 1
 484 308 l 2
 485 313 486 318 486 323 c 0
 486 364 444 390 379 390 c 0
 314 390 234 358 220 358 c 0
 211 358 205 365 205 374 c 0
 205 389 219 396 227 399 c 0
 286 418 354 431 391 431 c 0
 474 431 528 390 528 331 c 0
 528 324 527 316 525 308 c 2
 469 41 l 1
 523 41 l 2
 538 41 546 36 546 26 c 0x7180
337 217 m 0
 225 217 135 168 135 94 c 0
 135 52 171 25 232 25 c 0xb180
 303 25 362 49 443 112 c 1
 462 202 l 1
 428 211 381 217 337 217 c 0
470 557 m 0x3780
 507 557 531 603 553 603 c 0
 562 603 569 596 569 586 c 0
 569 573 550 560 540 552 c 0
 509 526 487 516 464 516 c 0x3980
 411 516 384 564 350 564 c 0
 308 564 290 519 265 519 c 0
 255 519 249 525 249 534 c 0
 249 552 308 605 358 605 c 0
 406 605 436 557 470 557 c 0x3780
EndSplineSet
EndChar
StartChar: adieresis
Encoding: 163 228 173
Width: 600
Flags: W
HStem: -16 41<157.823 330.832> 0 41<469 545.554> 217 41<218.697 394.896> 390 41<306.344 462.175> 511 100<262.886 332.91 483.886 553.91>
VStem: 93 42<47.9607 151.17> 247 102<526.892 594.25> 468 102<526.892 594.25> 486 42<308.305 365.294>
Fore
546 26 m 0x7e80
 546 16 539 0 514 0 c 2
 419 0 l 1x7e80
 433 67 l 1
 360 10 295 -16 225 -16 c 0xbe80
 143 -16 93 24 93 86 c 0
 93 189 206 258 338 258 c 0
 384 258 414 253 469 237 c 1
 484 308 l 2
 485 313 486 318 486 323 c 0
 486 364 444 390 379 390 c 0
 314 390 234 358 220 358 c 0
 211 358 205 365 205 374 c 0
 205 389 219 396 227 399 c 0
 286 418 354 431 391 431 c 0
 474 431 528 390 528 331 c 0
 528 324 527 316 525 308 c 2
 469 41 l 1
 523 41 l 2
 538 41 546 36 546 26 c 0x7e80
337 217 m 0
 225 217 135 168 135 94 c 0
 135 52 171 25 232 25 c 0xbe
 303 25 362 49 443 112 c 1
 462 202 l 1
 428 211 381 217 337 217 c 0
247 552 m 0
 247 586 283 611 309 611 c 0
 333 611 349 594 349 571 c 0
 349 536 315 511 288 511 c 0
 264 511 247 529 247 552 c 0
468 552 m 0x3f
 468 586 504 611 530 611 c 0
 554 611 570 594 570 571 c 0
 570 536 536 511 509 511 c 0
 485 511 468 529 468 552 c 0x3f
EndSplineSet
EndChar
StartChar: aring
Encoding: 164 229 174
Width: 600
Flags: W
HStem: -16 41<157.823 330.832> 0 41<469 545.554> 217 41<218.697 394.896> 390 41<306.344 462.175> 480 33<357.485 449.977> 628 33<372.479 464.813>
VStem: 93 42<47.9607 151.17> 316 34<520.6 605.803> 472 34<534.423 620.246> 486 42<308.305 365.294>
Fore
546 26 m 0x7f40
 546 16 539 0 514 0 c 2
 419 0 l 1x7f40
 433 67 l 1
 360 10 295 -16 225 -16 c 0xbf40
 143 -16 93 24 93 86 c 0
 93 189 206 258 338 258 c 0
 384 258 414 253 469 237 c 1
 484 308 l 2
 485 313 486 318 486 323 c 0
 486 364 444 390 379 390 c 0
 314 390 234 358 220 358 c 0
 211 358 205 365 205 374 c 0
 205 389 219 396 227 399 c 0
 286 418 354 431 391 431 c 0
 474 431 528 390 528 331 c 0
 528 324 527 316 525 308 c 2
 469 41 l 1
 523 41 l 2
 538 41 546 36 546 26 c 0x7f40
337 217 m 0
 225 217 135 168 135 94 c 0
 135 52 171 25 232 25 c 0xbf
 303 25 362 49 443 112 c 1
 462 202 l 1
 428 211 381 217 337 217 c 0
316 553 m 0
 316 605 370 661 430 661 c 0
 475 661 506 631 506 589 c 0x3f80
 506 528 446 480 392 480 c 0
 347 480 316 512 316 553 c 0
399 513 m 0
 432 513 472 541 472 582 c 0
 472 608 452 628 423 628 c 0
 383 628 350 592 350 560 c 0
 350 533 370 513 399 513 c 0
EndSplineSet
EndChar
StartChar: ae
Encoding: 165 230 175
Width: 600
Flags: W
HStem: -16 41<103.65 228.558 396.131 512.376> 199 41<251.312 323 371 586> 216 41<148.874 288.48> 390 41<193.262 329.37 450.664 564.104>
VStem: 36 45<46.8437 146.133> 589 40<240.897 365.22>
Fore
151 375 m 0xbc
 151 406 254 431 291 431 c 0
 340 431 378 398 386 347 c 1
 421 399 474 431 522 431 c 0
 599 431 629 376 629 293 c 0
 629 265 626 233 619 199 c 1
 361 199 l 1xdc
 359 185 358 171 358 158 c 0
 358 78 393 25 451 25 c 0
 507 25 556 87 576 87 c 0
 586 87 592 79 592 70 c 0
 592 60 582 50 553 29 c 0
 506 -2 473 -16 441 -16 c 0
 395 -16 355 12 333 61 c 1
 326 27 l 2
 322 9 313 0 300 0 c 0
 290 0 285 5 285 16 c 0
 285 19 285 23 286 27 c 2
 291 52 l 1
 242 5 201 -16 157 -16 c 0
 84 -16 36 31 36 98 c 0
 36 225 184 257 250 257 c 0
 278 257 305 253 332 245 c 1
 345 305 l 2
 346 311 347 317 347 322 c 0
 347 361 318 390 275 390 c 0
 220 390 179 358 166 358 c 0
 158 358 151 367 151 375 c 0xbc
303 110 m 1
 323 203 l 1
 298 211 270 216 247 216 c 0xbc
 204 216 142 197 115 176 c 0
 90 156 81 127 81 100 c 0
 81 55 114 25 167 25 c 0
 204 25 244 50 303 110 c 1
589 291 m 0
 589 374 543 390 512 390 c 0
 452 390 405 340 371 240 c 1
 586 240 l 1xdc
 588 261 589 277 589 291 c 0
EndSplineSet
EndChar
StartChar: ccedilla
Encoding: 166 231 176
Width: 600
Flags: W
HStem: -173 38<224.14 317.45> 390 41<298.743 486.441>
VStem: 122 42<85.8058 254.69> 321 38<-129.051 -82.7679> 533 62<297.666 406>
Fore
394 390 m 0
 252 390 164 270 164 162 c 0
 164 80 222 25 316 25 c 0
 389 25 456 49 519 97 c 0
 528 105 532 107 539 107 c 0
 548 107 554 100 554 91 c 0
 554 68 462 -8 312 -16 c 1
 305 -47 l 1
 340 -48 359 -64 359 -92 c 0
 359 -141 317 -173 264 -173 c 0
 245 -173 184 -159 184 -139 c 0
 184 -124 198 -114 209 -114 c 0
 222 -114 239 -135 270 -135 c 0
 295 -135 321 -123 321 -100 c 0
 321 -87 307 -81 281 -81 c 2
 260 -81 l 1
 274 -14 l 1
 227 -7 203 3 177 25 c 0
 141 57 122 102 122 155 c 0
 122 293 243 431 406 431 c 0
 468 431 517 412 550 376 c 1
 553 389 l 2
 557 408 566 417 580 417 c 0
 590 417 595 412 595 400 c 0
 595 397 595 393 594 389 c 2
 574 298 l 2
 571 280 562 271 549 271 c 0
 538 271 532 276 532 287 c 0
 532 293 533 295 533 302 c 0
 533 352 474 390 394 390 c 0
EndSplineSet
EndChar
StartChar: egrave
Encoding: 167 232 177
Width: 600
Flags: W
HStem: -16 41<220.81 426.776> 199 41<155 529> 390 41<275.636 461.593>
VStem: 104 41<95.9303 192.416 190.477 194.354> 529 42<240.697 324.431>
Fore
383 431 m 0
 510 431 571 343 571 259 c 0
 571 243 568 225 562 199 c 1
 146 199 l 1
 146 193 145 187 145 182 c 0
 145 87 209 25 311 25 c 0
 373 25 451 47 498 79 c 0
 506 84 510 86 515 86 c 0
 524 86 530 79 530 70 c 0
 530 30 386 -16 302 -16 c 0
 184 -16 104 62 104 169 c 0
 104 305 231 431 383 431 c 0
155 240 m 1
 529 240 l 1
 529 246 l 0
 529 334 469 390 374 390 c 0
 277 390 193 332 155 240 c 1
320 614 m 0
 320 626 331 639 345 639 c 0
 351 639 355 636 362 630 c 2
 455 530 l 1
 463 517 464 518 464 515 c 0
 464 503 451 490 437 490 c 0
 432 490 427 493 421 499 c 2
 328 599 l 2
 323 605 320 609 320 614 c 0
EndSplineSet
EndChar
StartChar: eacute
Encoding: 168 233 178
Width: 600
Flags: W
HStem: -16 41<220.81 426.776> 199 41<155 529> 390 41<275.636 461.593>
VStem: 104 41<95.9303 192.416 190.477 194.354> 529 42<240.697 324.431>
Fore
383 431 m 0
 510 431 571 343 571 259 c 0
 571 243 568 225 562 199 c 1
 146 199 l 1
 146 193 145 187 145 182 c 0
 145 87 209 25 311 25 c 0
 373 25 451 47 498 79 c 0
 506 84 510 86 515 86 c 0
 524 86 530 79 530 70 c 0
 530 30 386 -16 302 -16 c 0
 184 -16 104 62 104 169 c 0
 104 305 231 431 383 431 c 0
155 240 m 1
 529 240 l 1
 529 246 l 0
 529 334 469 390 374 390 c 0
 277 390 193 332 155 240 c 1
546 623 m 0
 546 609 534 602 529 599 c 2
 394 499 l 2
 384 492 379 490 373 490 c 0
 364 490 357 496 357 506 c 0
 357 520 368 525 374 530 c 2
 509 630 l 2
 519 637 524 639 530 639 c 0
 539 639 546 633 546 623 c 0
EndSplineSet
EndChar
StartChar: ecircumflex
Encoding: 169 234 179
Width: 600
Flags: W
HStem: -16 41<220.81 426.776> 199 41<155 529> 390 41<275.636 461.593>
VStem: 104 41<95.9303 192.416 190.477 194.354> 529 42<240.697 324.431>
Fore
383 431 m 0
 510 431 571 343 571 259 c 0
 571 243 568 225 562 199 c 1
 146 199 l 1
 146 193 145 187 145 182 c 0
 145 87 209 25 311 25 c 0
 373 25 451 47 498 79 c 0
 506 84 510 86 515 86 c 0
 524 86 530 79 530 70 c 0
 530 30 386 -16 302 -16 c 0
 184 -16 104 62 104 169 c 0
 104 305 231 431 383 431 c 0
155 240 m 1
 529 240 l 1
 529 246 l 0
 529 334 469 390 374 390 c 0
 277 390 193 332 155 240 c 1
559 516 m 0
 559 504 549 490 534 490 c 0
 529 490 524 493 518 498 c 2
 430 586 l 1
 304 498 l 2
 296 493 289 490 284 490 c 0
 274 490 268 497 268 506 c 0
 268 521 283 528 286 530 c 2
 441 639 l 1
 550 531 l 2
 557 524 559 521 559 516 c 0
EndSplineSet
EndChar
StartChar: edieresis
Encoding: 170 235 180
Width: 600
Flags: W
HStem: -16 41<220.81 426.776> 199 41<155 529> 390 41<275.636 461.593> 511 100<277.886 347.91 498.886 568.91>
VStem: 104 41<95.9303 192.416 190.477 194.354> 262 102<526.892 594.25> 483 102<526.892 594.25> 529 42<240.697 324.431>
Fore
383 431 m 0xfd
 510 431 571 343 571 259 c 0
 571 243 568 225 562 199 c 1
 146 199 l 1
 146 193 145 187 145 182 c 0
 145 87 209 25 311 25 c 0
 373 25 451 47 498 79 c 0
 506 84 510 86 515 86 c 0
 524 86 530 79 530 70 c 0
 530 30 386 -16 302 -16 c 0
 184 -16 104 62 104 169 c 0
 104 305 231 431 383 431 c 0xfd
155 240 m 1
 529 240 l 1
 529 246 l 0
 529 334 469 390 374 390 c 0
 277 390 193 332 155 240 c 1
262 552 m 0
 262 586 298 611 324 611 c 0
 348 611 364 594 364 571 c 0
 364 536 330 511 303 511 c 0
 279 511 262 529 262 552 c 0
483 552 m 0xfe
 483 586 519 611 545 611 c 0
 569 611 585 594 585 571 c 0
 585 536 551 511 524 511 c 0
 500 511 483 529 483 552 c 0xfe
EndSplineSet
EndChar
StartChar: igrave
Encoding: 171 236 181
Width: 600
Flags: W
HStem: 0 41<102.594 288 329 512.551> 376 41<224.594 359>
VStem: 95 418<13.9151 27.7902>
Fore
217 392 m 0
 217 402 224 417 250 417 c 2
 409 417 l 1
 329 41 l 1
 489 41 l 2
 505 41 513 36 513 26 c 0
 513 16 506 0 480 0 c 2
 119 0 l 2
 103 0 95 5 95 16 c 0
 95 26 102 41 128 41 c 2
 288 41 l 1
 359 376 l 1
 241 376 l 2
 225 376 217 381 217 392 c 0
309 614 m 0
 309 626 320 639 334 639 c 0
 340 639 344 636 351 630 c 2
 444 530 l 1
 452 517 453 518 453 515 c 0
 453 503 440 490 426 490 c 0
 421 490 416 493 410 499 c 2
 317 599 l 2
 312 605 309 609 309 614 c 0
EndSplineSet
EndChar
StartChar: iacute
Encoding: 172 237 182
Width: 600
Flags: W
HStem: 0 41<102.594 288 329 512.551> 376 41<224.594 359>
VStem: 95 440<16 623 16 199.551>
Fore
217 392 m 0
 217 402 224 417 250 417 c 2
 409 417 l 1
 329 41 l 1
 489 41 l 2
 505 41 513 36 513 26 c 0
 513 16 506 0 480 0 c 2
 119 0 l 2
 103 0 95 5 95 16 c 0
 95 26 102 41 128 41 c 2
 288 41 l 1
 359 376 l 1
 241 376 l 2
 225 376 217 381 217 392 c 0
535 623 m 0
 535 609 523 602 518 599 c 2
 383 499 l 2
 373 492 368 490 362 490 c 0
 353 490 346 496 346 506 c 0
 346 520 357 525 363 530 c 2
 498 630 l 2
 508 637 513 639 519 639 c 0
 528 639 535 633 535 623 c 0
EndSplineSet
EndChar
StartChar: icircumflex
Encoding: 173 238 183
Width: 600
Flags: W
HStem: 0 41<102.594 288 329 512.551> 376 41<224.594 359>
VStem: 95 442<16 516 16 199.551>
Fore
217 392 m 0
 217 402 224 417 250 417 c 2
 409 417 l 1
 329 41 l 1
 489 41 l 2
 505 41 513 36 513 26 c 0
 513 16 506 0 480 0 c 2
 119 0 l 2
 103 0 95 5 95 16 c 0
 95 26 102 41 128 41 c 2
 288 41 l 1
 359 376 l 1
 241 376 l 2
 225 376 217 381 217 392 c 0
537 516 m 0
 537 504 527 490 512 490 c 0
 507 490 502 493 496 498 c 2
 408 586 l 1
 282 498 l 2
 274 493 267 490 262 490 c 0
 252 490 246 497 246 506 c 0
 246 521 261 528 264 530 c 2
 419 639 l 1
 528 531 l 2
 535 524 537 521 537 516 c 0
EndSplineSet
EndChar
StartChar: idieresis
Encoding: 174 239 184
Width: 600
Flags: W
HStem: 0 41<102.594 288 329 512.551> 376 41<224.594 359> 511 100<259.886 329.91 481.886 551.91>
VStem: 95 473<16 571 191.886 261.91> 244 102<526.892 594.25> 466 102<526.892 594.25>
Fore
217 392 m 0xf0
 217 402 224 417 250 417 c 2
 409 417 l 1
 329 41 l 1
 489 41 l 2
 505 41 513 36 513 26 c 0
 513 16 506 0 480 0 c 2
 119 0 l 2
 103 0 95 5 95 16 c 0
 95 26 102 41 128 41 c 2
 288 41 l 1
 359 376 l 1
 241 376 l 2
 225 376 217 381 217 392 c 0xf0
244 552 m 0xe8
 244 586 280 611 306 611 c 0
 330 611 346 594 346 571 c 0
 346 536 312 511 285 511 c 0
 261 511 244 529 244 552 c 0xe8
466 552 m 0xe4
 466 586 502 611 528 611 c 0
 552 611 568 594 568 571 c 0xf0
 568 536 534 511 507 511 c 0
 483 511 466 529 466 552 c 0xe4
EndSplineSet
EndChar
StartChar: eth
Encoding: 175 240 185
Width: 600
Flags: W
HStem: -17 42<224.495 398.051> 390 40<293.785 468.4> 595 20G<554 565>
VStem: 111 43<93.2079 255.511> 536 46<173.43 322.457>
Fore
286 594 m 0
 286 607 298 620 312 620 c 0
 339 620 397 600 450 572 c 1
 554 614 l 1
 561 615 l 1
 569 615 576 609 576 599 c 0
 576 590 570 580 563 577 c 2
 480 543 l 1
 546 474 582 380 582 288 c 0
 582 100 435 -17 296 -17 c 0
 186 -17 111 58 111 159 c 0
 111 304 250 430 389 430 c 0
 444 430 478 416 524 377 c 1
 504 441 470 495 435 525 c 1
 335 483 l 2
 332 482 330 482 327 482 c 0
 318 482 312 491 312 501 c 0
 312 511 319 519 325 521 c 2
 394 549 l 1
 305 590 286 574 286 594 c 0
306 25 m 0
 424 25 536 129 536 245 c 0
 536 330 475 390 384 390 c 0
 269 390 154 289 154 170 c 0
 154 87 215 25 306 25 c 0
EndSplineSet
EndChar
StartChar: ntilde
Encoding: 176 241 186
Width: 600
Flags: W
HStem: 0 41<63.7478 135 176 243.554 388.594 448 489 545.554> 376 41<155.594 206> 390 41<324.296 472.662> 516 87<265 358 464 553> 516 41<422.683 515.811> 564 41<303.051 396.582>
VStem: 500 43<278.537 288 295 298.5 298.5 308.023 303.262 345.768>
Fore
148 392 m 0xc2
 148 402 155 417 181 417 c 2
 256 417 l 1xc2
 241 348 l 1
 313 412 353 431 415 431 c 0
 494 431 546 385 546 321 c 0
 546 313 545 304 543 295 c 2
 489 41 l 1
 523 41 l 2
 538 41 546 36 546 26 c 0
 546 16 539 0 514 0 c 2
 405 0 l 2
 389 0 381 5 381 16 c 0
 381 26 388 41 414 41 c 2
 448 41 l 1
 500 288 l 2
 502 295 502 302 502 309 c 0
 502 330 494 348 478 364 c 0
 459 384 441 390 402 390 c 0xa2
 331 390 290 355 229 294 c 1
 176 41 l 1
 221 41 l 2
 236 41 244 36 244 26 c 0
 244 16 237 0 212 0 c 2
 81 0 l 2
 65 0 56 5 56 16 c 0
 56 26 63 41 90 41 c 2
 135 41 l 1
 206 376 l 1
 172 376 l 2
 156 376 148 381 148 392 c 0xc2
470 557 m 0x8e
 507 557 531 603 553 603 c 0
 562 603 569 596 569 586 c 0
 569 573 550 560 540 552 c 0
 509 526 487 516 464 516 c 0x92
 411 516 384 564 350 564 c 0
 308 564 290 519 265 519 c 0
 255 519 249 525 249 534 c 0
 249 552 308 605 358 605 c 0
 406 605 436 557 470 557 c 0x8e
EndSplineSet
EndChar
StartChar: ograve
Encoding: 177 242 187
Width: 600
Flags: W
HStem: -16 41<222.08 395.941> 390 41<292.516 467.891>
VStem: 111 42<94.1567 255.018> 535 42<157.585 323.53>
Fore
111 162 m 0
 111 298 243 431 392 431 c 0
 503 431 577 356 577 254 c 0
 577 113 443 -16 297 -16 c 0
 186 -16 111 59 111 162 c 0
305 25 m 0
 423 25 535 129 535 245 c 0
 535 330 474 390 383 390 c 0
 268 390 153 289 153 170 c 0
 153 87 214 25 305 25 c 0
322 614 m 0
 322 626 333 639 347 639 c 0
 353 639 357 636 364 630 c 2
 457 530 l 1
 465 517 466 518 466 515 c 0
 466 503 453 490 439 490 c 0
 434 490 429 493 423 499 c 2
 330 599 l 2
 325 605 322 609 322 614 c 0
EndSplineSet
EndChar
StartChar: oacute
Encoding: 178 243 188
Width: 600
Flags: W
HStem: -16 41<222.08 395.941> 390 41<292.516 467.891>
VStem: 111 42<94.1567 255.018> 535 42<157.585 323.53>
Fore
111 162 m 0
 111 298 243 431 392 431 c 0
 503 431 577 356 577 254 c 0
 577 113 443 -16 297 -16 c 0
 186 -16 111 59 111 162 c 0
305 25 m 0
 423 25 535 129 535 245 c 0
 535 330 474 390 383 390 c 0
 268 390 153 289 153 170 c 0
 153 87 214 25 305 25 c 0
542 623 m 0
 542 609 530 602 525 599 c 2
 390 499 l 2
 380 492 375 490 369 490 c 0
 360 490 353 496 353 506 c 0
 353 520 364 525 370 530 c 2
 505 630 l 2
 515 637 520 639 526 639 c 0
 535 639 542 633 542 623 c 0
EndSplineSet
EndChar
StartChar: ocircumflex
Encoding: 179 244 189
Width: 600
Flags: W
HStem: -16 41<222.08 395.941> 390 41<292.516 467.891>
VStem: 111 42<94.1567 255.018> 535 42<157.585 323.53>
Fore
111 162 m 0
 111 298 243 431 392 431 c 0
 503 431 577 356 577 254 c 0
 577 113 443 -16 297 -16 c 0
 186 -16 111 59 111 162 c 0
305 25 m 0
 423 25 535 129 535 245 c 0
 535 330 474 390 383 390 c 0
 268 390 153 289 153 170 c 0
 153 87 214 25 305 25 c 0
554 516 m 0
 554 504 544 490 529 490 c 0
 524 490 519 493 513 498 c 2
 425 586 l 1
 299 498 l 2
 291 493 284 490 279 490 c 0
 269 490 263 497 263 506 c 0
 263 521 278 528 281 530 c 2
 436 639 l 1
 545 531 l 2
 552 524 554 521 554 516 c 0
EndSplineSet
EndChar
StartChar: otilde
Encoding: 180 245 190
Width: 600
Flags: W
HStem: -16 41<222.08 395.941> 390 41<292.516 467.891> 516 87<281 374 480 569> 516 41<438.683 531.811> 564 41<319.051 412.582>
VStem: 111 42<94.1567 255.018> 535 42<157.585 323.53>
Fore
111 162 m 0xc6
 111 298 243 431 392 431 c 0
 503 431 577 356 577 254 c 0
 577 113 443 -16 297 -16 c 0
 186 -16 111 59 111 162 c 0xc6
305 25 m 0
 423 25 535 129 535 245 c 0
 535 330 474 390 383 390 c 0
 268 390 153 289 153 170 c 0
 153 87 214 25 305 25 c 0
486 557 m 0xde
 523 557 547 603 569 603 c 0
 578 603 585 596 585 586 c 0
 585 573 566 560 556 552 c 0
 525 526 503 516 480 516 c 0xe6
 427 516 400 564 366 564 c 0
 324 564 306 519 281 519 c 0
 271 519 265 525 265 534 c 0
 265 552 324 605 374 605 c 0
 422 605 452 557 486 557 c 0xde
EndSplineSet
EndChar
StartChar: odieresis
Encoding: 181 246 191
Width: 600
Flags: W
HStem: -16 41<222.08 395.941> 390 41<292.516 467.891> 511 100<272.886 342.91 493.886 563.91>
VStem: 111 42<94.1567 255.018> 257 102<526.892 594.25> 478 102<526.892 594.25> 535 42<157.585 323.53>
Fore
111 162 m 0xfa
 111 298 243 431 392 431 c 0
 503 431 577 356 577 254 c 0
 577 113 443 -16 297 -16 c 0
 186 -16 111 59 111 162 c 0xfa
305 25 m 0
 423 25 535 129 535 245 c 0
 535 330 474 390 383 390 c 0
 268 390 153 289 153 170 c 0
 153 87 214 25 305 25 c 0
257 552 m 0
 257 586 293 611 319 611 c 0
 343 611 359 594 359 571 c 0
 359 536 325 511 298 511 c 0
 274 511 257 529 257 552 c 0
478 552 m 0xfc
 478 586 514 611 540 611 c 0
 564 611 580 594 580 571 c 0
 580 536 546 511 519 511 c 0
 495 511 478 529 478 552 c 0xfc
EndSplineSet
EndChar
StartChar: divide
Encoding: 182 247 192
Width: 600
Flags: W
HStem: 25 99<281.683 351.114> 262 40<138.594 581.406> 441 99<370.731 439.219>
VStem: 131 458<275.21 288.79> 266 101<41.5 108.108> 354 101<456.985 523.302>
Fore
589 287 m 0xf0
 589 277 582 262 557 262 c 2
 155 262 l 2
 139 262 131 267 131 277 c 0
 131 287 138 302 163 302 c 2
 565 302 l 2
 581 302 589 297 589 287 c 0xf0
266 64 m 0xe8
 266 99 299 124 326 124 c 0
 350 124 367 107 367 85 c 0
 367 49 332 25 305 25 c 0
 282 25 266 41 266 64 c 0xe8
354 480 m 0xe4
 354 507 381 540 415 540 c 0
 439 540 455 524 455 501 c 0
 455 469 425 441 394 441 c 0
 371 441 354 458 354 480 c 0xe4
EndSplineSet
EndChar
StartChar: oslash
Encoding: 183 248 193
Width: 600
Flags: W
HStem: -16 41<221.413 395.709> 390 41<292.024 467.604>
VStem: 111 42<115.273 254.15> 535 42<159.795 301.632>
Fore
577 254 m 0
 577 115 445 -16 297 -16 c 0
 242 -16 198 1 161 35 c 1
 81 -33 l 2
 71 -41 67 -43 62 -43 c 0
 53 -43 48 -37 48 -29 c 0
 48 -20 52 -16 61 -8 c 2
 142 59 l 1
 122 90 111 125 111 163 c 0
 111 305 250 431 392 431 c 0
 446 431 490 415 525 382 c 1
 603 448 l 2
 614 456 617 458 623 458 c 0
 631 458 637 452 637 443 c 0
 637 435 629 428 623 423 c 2
 545 358 l 1
 566 327 577 292 577 254 c 0
305 25 m 0
 420 25 535 126 535 245 c 0
 535 276 527 304 511 329 c 1
 197 65 l 1
 224 39 261 25 305 25 c 0
383 390 m 0
 259 390 153 279 153 171 c 0
 153 141 161 113 177 89 c 1
 490 352 l 1
 462 377 426 390 383 390 c 0
EndSplineSet
EndChar
StartChar: ugrave
Encoding: 184 249 194
Width: 600
Flags: W
HStem: -16 41<206.897 354.586> 0 41<489 545.554> 376 41<133.594 204 427.748 519>
VStem: 145 42<44.2629 102.488 98.9769 106 106 131.262>
Fore
546 26 m 0x70
 546 16 539 0 514 0 c 2
 439 0 l 1x70
 453 66 l 1
 387 12 320 -16 254 -16 c 0
 185 -16 145 22 145 83 c 0
 145 93 146 104 148 115 c 2
 204 376 l 1
 150 376 l 2
 134 376 126 381 126 392 c 0
 126 402 133 417 159 417 c 2
 254 417 l 1
 189 115 l 2
 188 109 187 103 187 97 c 0
 187 56 216 25 261 25 c 0xb0
 328 25 396 55 463 115 c 1
 519 376 l 1
 445 376 l 2
 429 376 420 381 420 392 c 0
 420 402 427 417 454 417 c 2
 569 417 l 1
 489 41 l 1
 523 41 l 2
 538 41 546 36 546 26 c 0x70
314 614 m 0
 314 626 325 639 339 639 c 0
 345 639 349 636 356 630 c 2
 449 530 l 1
 457 517 458 518 458 515 c 0
 458 503 445 490 431 490 c 0
 426 490 421 493 415 499 c 2
 322 599 l 2
 317 605 314 609 314 614 c 0
EndSplineSet
EndChar
StartChar: uacute
Encoding: 185 250 195
Width: 600
Flags: W
HStem: -16 41<206.897 354.586> 0 41<489 545.554> 376 41<133.594 204 427.748 519>
VStem: 145 42<44.2629 102.488 98.9769 106 106 131.262>
Fore
546 26 m 0x70
 546 16 539 0 514 0 c 2
 439 0 l 1x70
 453 66 l 1
 387 12 320 -16 254 -16 c 0
 185 -16 145 22 145 83 c 0
 145 93 146 104 148 115 c 2
 204 376 l 1
 150 376 l 2
 134 376 126 381 126 392 c 0
 126 402 133 417 159 417 c 2
 254 417 l 1
 189 115 l 2
 188 109 187 103 187 97 c 0
 187 56 216 25 261 25 c 0xb0
 328 25 396 55 463 115 c 1
 519 376 l 1
 445 376 l 2
 429 376 420 381 420 392 c 0
 420 402 427 417 454 417 c 2
 569 417 l 1
 489 41 l 1
 523 41 l 2
 538 41 546 36 546 26 c 0x70
527 623 m 0
 527 609 515 602 510 599 c 2
 375 499 l 2
 365 492 360 490 354 490 c 0
 345 490 338 496 338 506 c 0
 338 520 349 525 355 530 c 2
 490 630 l 2
 500 637 505 639 511 639 c 0
 520 639 527 633 527 623 c 0
EndSplineSet
EndChar
StartChar: ucircumflex
Encoding: 186 251 196
Width: 600
Flags: W
HStem: -16 41<206.897 354.586> 0 41<489 545.554> 376 41<133.594 204 427.748 519>
VStem: 145 42<44.2629 102.488 98.9769 106 106 131.262>
Fore
546 26 m 0x70
 546 16 539 0 514 0 c 2
 439 0 l 1x70
 453 66 l 1
 387 12 320 -16 254 -16 c 0
 185 -16 145 22 145 83 c 0
 145 93 146 104 148 115 c 2
 204 376 l 1
 150 376 l 2
 134 376 126 381 126 392 c 0
 126 402 133 417 159 417 c 2
 254 417 l 1
 189 115 l 2
 188 109 187 103 187 97 c 0
 187 56 216 25 261 25 c 0xb0
 328 25 396 55 463 115 c 1
 519 376 l 1
 445 376 l 2
 429 376 420 381 420 392 c 0
 420 402 427 417 454 417 c 2
 569 417 l 1
 489 41 l 1
 523 41 l 2
 538 41 546 36 546 26 c 0x70
546 516 m 0
 546 504 536 490 521 490 c 0
 516 490 511 493 505 498 c 2
 417 586 l 1
 291 498 l 2
 283 493 276 490 271 490 c 0
 261 490 255 497 255 506 c 0
 255 521 270 528 273 530 c 2
 428 639 l 1
 537 531 l 2
 544 524 546 521 546 516 c 0
EndSplineSet
EndChar
StartChar: udieresis
Encoding: 187 252 197
Width: 600
Flags: W
HStem: -16 41<206.897 354.586> 0 41<489 545.554> 376 41<133.594 204 427.748 519> 511 100<264.886 334.91 485.886 555.91>
VStem: 145 42<44.2629 102.488 98.9769 106 106 131.262> 249 102<526.892 594.25> 470 102<526.892 594.25>
Fore
546 26 m 0x7e
 546 16 539 0 514 0 c 2
 439 0 l 1x7e
 453 66 l 1
 387 12 320 -16 254 -16 c 0
 185 -16 145 22 145 83 c 0
 145 93 146 104 148 115 c 2
 204 376 l 1
 150 376 l 2
 134 376 126 381 126 392 c 0
 126 402 133 417 159 417 c 2
 254 417 l 1
 189 115 l 2
 188 109 187 103 187 97 c 0
 187 56 216 25 261 25 c 0xbe
 328 25 396 55 463 115 c 1
 519 376 l 1
 445 376 l 2
 429 376 420 381 420 392 c 0
 420 402 427 417 454 417 c 2
 569 417 l 1
 489 41 l 1
 523 41 l 2
 538 41 546 36 546 26 c 0x7e
249 552 m 0
 249 586 285 611 311 611 c 0
 335 611 351 594 351 571 c 0
 351 536 317 511 290 511 c 0
 266 511 249 529 249 552 c 0
470 552 m 0
 470 586 506 611 532 611 c 0
 556 611 572 594 572 571 c 0
 572 536 538 511 511 511 c 0
 487 511 470 529 470 552 c 0
EndSplineSet
EndChar
StartChar: yacute
Encoding: 188 253 198
Width: 600
Flags: W
HStem: -186 41<28.8283 180 221 309.551> 376 41<141.594 174 221 304.554 475.594 546 588 633.554>
Fore
21 -171 m 0
 21 -160 28 -145 53 -145 c 2
 180 -145 l 1
 282 0 l 1
 174 376 l 1
 158 376 l 2
 142 376 134 381 134 392 c 0
 134 402 141 417 167 417 c 2
 282 417 l 2
 297 417 305 412 305 402 c 0
 305 392 298 376 273 376 c 2
 221 376 l 1
 315 45 l 1
 546 376 l 1
 492 376 l 2
 476 376 468 381 468 392 c 0
 468 402 475 417 501 417 c 2
 611 417 l 2
 626 417 634 412 634 402 c 0
 634 392 627 376 602 376 c 2
 588 376 l 1
 221 -145 l 1
 286 -145 l 2
 302 -145 310 -150 310 -160 c 0
 310 -170 303 -186 277 -186 c 2
 44 -186 l 2
 29 -186 21 -181 21 -171 c 0
577 623 m 0
 577 609 565 602 560 599 c 2
 425 499 l 2
 415 492 410 490 404 490 c 0
 395 490 388 496 388 506 c 0
 388 520 399 525 405 530 c 2
 540 630 l 2
 550 637 555 639 561 639 c 0
 570 639 577 633 577 623 c 0
EndSplineSet
EndChar
StartChar: thorn
Encoding: 189 254 199
Width: 600
Flags: W
HStem: -186 41<-6.17174 72 113 234.551> 10 41<250.549 423.787> 390 41<315.448 489.121> 549 41<149.594 220>
VStem: 551 42<172.745 329.119>
Fore
142 565 m 0
 142 575 149 590 174 590 c 2
 269 590 l 1
 215 335 l 1
 283 404 339 431 415 431 c 0
 523 431 593 362 593 266 c 0
 593 137 472 10 325 10 c 0
 248 10 199 40 167 106 c 1
 113 -145 l 1
 211 -145 l 2
 227 -145 235 -150 235 -160 c 0
 235 -170 228 -186 202 -186 c 2
 9 -186 l 2
 -6 -186 -14 -181 -14 -171 c 0
 -14 -160 -7 -145 18 -145 c 2
 72 -145 l 1
 220 549 l 1
 166 549 l 2
 150 549 142 554 142 565 c 0
333 51 m 0
 447 51 551 149 551 255 c 0
 551 334 493 390 405 390 c 0
 297 390 187 297 187 186 c 0
 187 108 246 51 333 51 c 0
EndSplineSet
EndChar
StartChar: ydieresis
Encoding: 190 255 200
Width: 600
Flags: W
HStem: -186 41<28.8283 180 221 309.551> 376 41<141.594 174 221 304.554 475.594 546 588 633.554> 511 100<272.886 342.91 493.886 563.91>
VStem: 257 102<526.892 594.25> 478 102<526.892 594.25>
Fore
21 -171 m 0
 21 -160 28 -145 53 -145 c 2
 180 -145 l 1
 282 0 l 1
 174 376 l 1
 158 376 l 2
 142 376 134 381 134 392 c 0
 134 402 141 417 167 417 c 2
 282 417 l 2
 297 417 305 412 305 402 c 0
 305 392 298 376 273 376 c 2
 221 376 l 1
 315 45 l 1
 546 376 l 1
 492 376 l 2
 476 376 468 381 468 392 c 0
 468 402 475 417 501 417 c 2
 611 417 l 2
 626 417 634 412 634 402 c 0
 634 392 627 376 602 376 c 2
 588 376 l 1
 221 -145 l 1
 286 -145 l 2
 302 -145 310 -150 310 -160 c 0
 310 -170 303 -186 277 -186 c 2
 44 -186 l 2
 29 -186 21 -181 21 -171 c 0
257 552 m 0
 257 586 293 611 319 611 c 0
 343 611 359 594 359 571 c 0
 359 536 325 511 298 511 c 0
 274 511 257 529 257 552 c 0
478 552 m 0
 478 586 514 611 540 611 c 0
 564 611 580 594 580 571 c 0
 580 536 546 511 519 511 c 0
 495 511 478 529 478 552 c 0
EndSplineSet
EndChar
StartChar: uni0E01
Encoding: 191 3585 201
Width: 600
Flags: W
HStem: 0 21G<110 174.206 445 509.286> 385 60<280.426 469.79>
VStem: 507 60<263.667 290.023 290.023 292 291.012 352.008>
Fore
402 445 m 0
 510 445 567 372 567 304 c 0
 567 296 567 288 565 280 c 10
 505 0 l 25
 445 0 l 25
 505 280 l 18
 506 287 507 294 507 300 c 0
 507 358 448 385 389 385 c 8
 320 385 254 366 210 330 c 1
 270 330 l 1
 260 280 l 1
 231 266 221 241 215 214 c 10
 170 0 l 25
 110 0 l 25
 155 214 l 18
 161 241 182 273 200 280 c 1
 140 280 l 1
 150 330 l 1
 213 411 311 445 402 445 c 0
EndSplineSet
Comment: "Thai Gogai" 
EndChar
StartChar: uni0E02
Encoding: 192 3586 202
Width: 600
Flags: W
HStem: 0 60<180 240 300 465> 278 42<263.439 334.496> 400 52<280.546 374.042>
VStem: 222 40<322.022 390.765> 344 41<329.758 362> 400 66<289.251 350.108>
Fore
294 320 m 0
 315 320 344 339 344 367 c 0
 344 386 330 400 311 400 c 0
 286 400 262 377 262 351 c 0
 262 333 275 320 294 320 c 0
222 342 m 0
 222 400 285 452 363 452 c 0
 406 452 466 424 466 353 c 0
 466 239 340 250 318 144 c 2
 300 60 l 25
 465 60 l 25
 547 445 l 25
 607 445 l 25
 512 0 l 17
 167 0 l 9
 180 60 l 25
 240 60 l 25
 262 164 l 18
 276 230 313 238 346 264 c 8
 367 285 400 291 400 326 c 0
 400 339 393 347 385 362 c 1
 385 352 l 1
 379 323 332 278 285 278 c 0
 247 278 222 306 222 342 c 0
EndSplineSet
EndChar
StartChar: uni0E03
Encoding: 193 3587 203
Width: 600
Flags: W
HStem: 0 60<174 234 294 459> 204 49<172.389 242.772> 333 113<217.423 285.611>
VStem: 130 40<255.241 322.775> 252 44<269.143 331.376>
Fore
204 253 m 0
 228 253 252 275 252 302 c 0
 252 320 240 333 221 333 c 0
 200 333 170 314 170 286 c 0
 170 267 184 253 204 253 c 0
414 446 m 0
 434 446 464 408 464 371 c 0
 464 357 461 342 457 324 c 0
 437 230 329 225 312 144 c 2
 294 60 l 25
 459 60 l 25
 541 445 l 25
 601 445 l 25
 506 0 l 17
 161 0 l 9
 174 60 l 25
 234 60 l 25
 256 164 l 18
 270 230 307 238 340 264 c 0
 363 283 397 287 402 310 c 0
 402 311 406 365 405 368 c 1
 357 310 l 1
 322 310 l 1
 313 326 308 367 288 378 c 1
 258 366 l 1
 284 356 296 337 296 307 c 0
 296 297 295 285 292 272 c 8
 283 230 222 204 193 204 c 0
 150 204 130 242 130 284 c 0
 130 334 158 380 199 402 c 0
 224 415 258 446 293 446 c 0
 339 446 354 376 355 376 c 1
 363 401 388 446 414 446 c 0
EndSplineSet
EndChar
StartChar: uni0E04
Encoding: 194 3588 204
Width: 600
Flags: W
HStem: 0 21G<55 131.818 444 508.245> 150 35<292.846 362.898> 265 35<300.694 371.225> 385 60<268.711 454.285>
VStem: 373 51<194.67 263.368> 503 60<261.508 285.5 285.5 292.531 289.484 342.741>
Fore
324 185 m 0
 351 185 373 210 373 234 c 0
 373 252 360 265 341 265 c 0
 319 265 291 244 291 217 c 0
 291 199 305 185 324 185 c 0
424 241 m 0
 424 198 378 150 317 150 c 16
 288 150 270 163 263 176 c 9
 115 0 l 25
 55 0 l 25
 114 278 l 18
 135 376 270 445 381 445 c 16
 475 445 566 395 566 308 c 0
 566 298 565 288 563 278 c 10
 504 0 l 25
 444 0 l 25
 503 278 l 18
 504 283 505 288 505 293 c 0
 505 349 437 385 368 385 c 8
 290 385 188 344 174 278 c 10
 138 107 l 17
 236 221 l 2
 270 261 301 300 349 300 c 16
 389 300 424 278 424 241 c 0
EndSplineSet
EndChar
StartChar: uni0E05
Encoding: 195 3589 205
Width: 600
Flags: W
HStem: 0 21G<57 133.818 446 510.267> 150 35<296.286 367.235> 265 35<304.693 374.531> 426 20G<272.027 326.833 423.083 481.179>
VStem: 377 49<195.241 262.63> 510 60<283.594 300 300 306 306 311.644 308.822 351.908>
Fore
327 185 m 0
 349 185 377 206 377 233 c 0
 377 251 363 265 344 265 c 0
 317 265 295 240 295 216 c 0
 295 198 308 185 327 185 c 0
426 244 m 0
 426 188 370 150 320 150 c 16
 292 150 272 163 265 176 c 9
 117 0 l 25
 57 0 l 25
 121 300 l 18
 147 424 296 446 296 446 c 1
 370 398 l 1
 461 446 l 1
 461 446 574 434 574 334 c 0
 574 323 573 312 570 300 c 10
 506 0 l 25
 446 0 l 25
 510 300 l 18
 511 304 511 308 511 312 c 0
 511 360 445 372 445 372 c 1
 388 338 l 1
 333 338 l 1
 280 372 l 1
 280 372 193 358 181 300 c 10
 140 107 l 17
 236 221 l 2
 269 261 301 300 352 300 c 16
 397 300 426 279 426 244 c 0
EndSplineSet
EndChar
StartChar: uni0E06
Encoding: 196 3590 206
Width: 600
Flags: W
HStem: -4 46<181.633 228.437> 132 52<173.561 233.558> 205 41<149.706 220.092> 326 120<187 299.388>
VStem: 108 40<247.929 315.56> 125 43<46.3333 128.047> 230 44<265.63 324.159> 376 68<298.938 386.97>
Fore
181 246 m 0xfb
 207 246 230 271 230 294 c 0
 230 312 217 326 198 326 c 0
 176 326 148 306 148 278 c 0
 148 260 162 246 181 246 c 0xfb
125 82 m 0xf7
 125 163 190 184 210 184 c 0
 226 184 240 177 247 170 c 9
 255 186 256 195 267 210 c 24
 284 235 298 245 319 267 c 16
 348 299 376 294 376 335 c 0
 376 349 375 368 374 369 c 1
 329 307 l 1
 298 307 l 1
 298 307 285 368 267 379 c 1
 236 367 l 1
 262 357 274 338 274 308 c 0
 274 298 273 286 270 273 c 8
 261 231 202 205 172 205 c 0
 128 205 108 244 108 284 c 0xfb
 108 382 229 446 281 446 c 24
 312 446 335 398 335 398 c 1
 348 421 372 446 390 446 c 0
 411 446 444 405 444 368 c 0
 444 291 360 232 339 212 c 0
 325 197 315 169 300 142 c 17
 449 60 l 9
 531 445 l 25
 591 445 l 25
 496 0 l 17
 434 0 l 1
 285 82 l 1
 285 82 277 39 257 22 c 16
 238 6 219 -4 200 -4 c 0
 180 -4 125 14 125 82 c 0xf7
206 42 m 0
 228 42 242 65 242 83 c 0
 242 109 220 132 202 132 c 0
 181 132 168 111 168 84 c 0xf7
 168 51 194 42 206 42 c 0
EndSplineSet
EndChar
StartChar: uni0E07
Encoding: 197 3591 207
Width: 600
Flags: W
HStem: 0 21G<401.437 518.227> 278 46<451.854 504.95> 404 41<459.726 530.236>
VStem: 415 35<326.609 393.807> 532 65<360.599 402.574>
Fore
484 324 m 0
 508 324 532 346 532 373 c 0
 532 391 520 404 501 404 c 0
 480 404 450 385 450 357 c 0
 450 338 464 324 484 324 c 0
415 343 m 0
 415 404 470 445 519 445 c 16
 557 445 597 429 597 398 c 0
 597 395 597 391 596 388 c 10
 514 0 l 25
 417 0 l 25
 189 293 l 25
 246 338 l 25
 465 54 l 25
 516 294 l 17
 504 284 491 278 476 278 c 0
 459 278 415 291 415 343 c 0
EndSplineSet
EndChar
StartChar: uni0E08
Encoding: 198 3592 208
Width: 600
Flags: W
HStem: 0 21G<448.152 517.248> 168 42<309.273 379.598> 290 42<327.155 416.384> 385 60<313.759 486.686>
VStem: 280 27<212.803 279.284> 519 61<305.781 355.014>
Fore
341 210 m 0
 368 210 389 236 389 259 c 0
 389 277 377 290 358 290 c 0
 336 290 307 270 307 242 c 0
 307 224 322 210 341 210 c 0
280 234 m 0
 280 294 353 332 387 332 c 8
 445 332 448 276 453 264 c 25
 483 142 l 25
 518 305 l 18
 519 309 519 312 519 316 c 0
 519 360 456 385 398 385 c 8
 338 385 307 366 245 318 c 9
 211 360 l 17
 281 408 333 445 411 445 c 0
 519 445 580 392 580 328 c 0
 580 321 580 314 578 306 c 10
 513 0 l 25
 453 0 l 25
 405 198 l 17
 388 179 374 168 352 168 c 16
 311 168 280 195 280 234 c 0
EndSplineSet
EndChar
StartChar: uni0E09
Encoding: 199 3593 209
Width: 600
Flags: W
HStem: 0 34<442.308 506.976> 105 54<484.369 516.903> 146 35<166.924 222.005 211.385 232.625> 261 46<184.396 264.838> 385 60<237.539 428.856>
VStem: 138 27<183.056 251.047> 455 61<279.55 305.523 305.523 310.523 308.023 360.316> 517 38<45.8348 120.448>
AnchorPoint: "AboveBase" 567 500 basechar 0
Fore
468 34 m 0xdf
 494 34 517 59 517 82 c 0
 517 96 507 105 493 105 c 0
 478 105 442 96 442 58 c 0
 442 43 450 34 468 34 c 0xdf
198 181 m 0xbf
 225 181 247 206 247 230 c 0
 247 248 234 261 215 261 c 0
 193 261 165 240 165 213 c 0
 165 195 179 181 198 181 c 0xbf
138 205 m 0
 138 251 186 307 250 307 c 0
 284 307 305 288 317 252 c 1
 277 68 l 1
 418 131 l 9
 453 296 l 18
 454 303 455 309 455 315 c 0
 455 371 392 385 334 385 c 8
 269 385 211 355 165 323 c 9
 135 373 l 17
 193 412 264 445 345 445 c 16
 450 445 516 398 516 325 c 0
 516 316 515 306 513 296 c 10
 483 155 l 17
 490 157 500 159 509 159 c 0xdf
 538 159 555 136 555 107 c 0
 555 82 532 0 444 0 c 24
 413 0 403 60 403 60 c 1
 259 0 l 9
 201 0 l 25
 233 152 l 17
 217 152 205 146 192 146 c 0
 177 146 138 165 138 205 c 0
EndSplineSet
EndChar
StartChar: uni0E0A
Encoding: 200 3594 210
Width: 600
Flags: W
HStem: 0 60<118 178 238 403> 278 41<201.368 271.477> 399 53<216.554 318.384>
VStem: 160 39<321.321 388.241> 281 42<328.058 362> 338 67<289.184 350.811> 449 61<274.165 310.102>
Fore
233 319 m 0
 257 319 281 341 281 368 c 0
 281 386 269 399 250 399 c 0
 229 399 199 380 199 352 c 0
 199 333 213 319 233 319 c 0
160 343 m 0
 160 397 217 452 300 452 c 0
 357 452 405 409 405 356 c 0
 405 240 275 235 256 144 c 2
 238 60 l 9
 403 60 l 17
 448 274 l 1
 449 276 449 279 449 281 c 0
 449 303 421 314 401 324 c 1
 463 379 477 440 496 500 c 9
 556 500 l 17
 540 424 506 358 472 328 c 1
 502 320 510 306 510 290 c 0
 510 285 509 279 508 274 c 2
 450 0 l 1
 105 0 l 9
 118 60 l 25
 178 60 l 25
 200 164 l 18
 214 230 251 238 284 264 c 8
 305 285 338 291 338 326 c 0
 338 339 331 347 323 362 c 1
 323 351 l 1
 317 323 271 278 225 278 c 0
 187 278 160 306 160 343 c 0
EndSplineSet
EndChar
StartChar: uni0E0B
Encoding: 201 3595 211
Width: 600
Flags: W
HStem: 0 60<174 234 294 459> 204 38<172.254 242.673> 322 124<216.348 289.936>
VStem: 130 40<244.527 311.742> 252 44<262.801 320.473> 501 60<253.141 303.539>
Fore
203 242 m 0
 230 242 252 267 252 291 c 0
 252 309 239 322 220 322 c 0
 198 322 170 301 170 274 c 0
 170 256 184 242 203 242 c 0
414 446 m 0
 434 446 464 408 464 371 c 0
 464 357 461 342 457 324 c 0
 437 230 329 225 312 144 c 2
 294 60 l 25
 459 60 l 17
 500 253 l 2
 501 256 501 259 501 262 c 0
 501 286 479 305 457 324 c 1
 504 356 542 452 552 500 c 9
 612 500 l 17
 601 447 568 347 517 324 c 1
 542 309 561 288 561 263 c 0
 561 260 561 256 560 253 c 2
 506 0 l 1
 161 0 l 9
 174 60 l 25
 234 60 l 25
 256 164 l 18
 270 230 307 238 340 264 c 0
 359 283 388 289 393 311 c 1
 393 311 396 365 396 368 c 1
 351 307 l 1
 325 307 l 1
 325 307 307 367 288 378 c 1
 258 366 l 1
 284 356 296 337 296 307 c 0
 296 297 295 285 292 272 c 8
 283 230 222 204 193 204 c 0
 150 204 130 242 130 284 c 0
 130 334 158 380 199 402 c 0
 224 415 258 446 291 446 c 0
 340 446 351 370 352 370 c 1
 361 398 386 446 414 446 c 0
EndSplineSet
EndChar
StartChar: uni0E0C
Encoding: 202 3596 212
Width: 600
Flags: W
HStem: -1 37<285.201 338.426> 0 53<145.22 198.783> 98 40<301.506 329> 113 40<171.405 206.491> 385 60<220.824 366.261>
VStem: 84 61<31 92.6386> 207 32<57.3228 112.221> 253 27<36.3533 93.6503> 369 60<308.64 334.546 334.546 338.5 336.523 377.729>
Fore
305 36 m 0xaf80
 324 36 343 54 343 74 c 0
 343 88 333 98 318 98 c 0
 295 98 280 76 280 61 c 0
 280 47 290 36 305 36 c 0xaf80
169 53 m 0x5f80
 186 53 207 67 207 89 c 0
 207 103 197 113 182 113 c 0
 163 113 145 96 145 76 c 0
 145 62 155 53 169 53 c 0x5f80
239 104 m 0
 239 49 190 0 147 0 c 0
 113 0 84 17 84 45 c 0
 84 49 84 52 85 56 c 10
 121 224 l 18
 126 251 146 273 163 280 c 1
 103 280 l 1
 113 330 l 1
 170 411 231 445 308 445 c 0
 386 445 432 410 432 352 c 0
 432 343 431 334 429 325 c 2
 386 124 l 1
 456 60 l 1
 537 444 l 1
 597 444 l 1
 503 0 l 1
 439 0 l 1x5f80
 372 60 l 1
 370 50 l 2
 364 24 353 -1 313 -1 c 0
 293 -1 253 7 253 57 c 0
 253 109 276 120 285 126 c 0
 300 137 315 138 323 138 c 2
 329 138 l 1xaf80
 369 325 l 2
 371 332 371 339 371 344 c 0
 371 380 339 385 295 385 c 8
 248 385 215 365 177 330 c 1
 233 330 l 1
 223 280 l 1
 199 266 186 250 181 224 c 2
 164 145 l 1
 164 145 185 153 201 153 c 0
 219 153 239 138 239 104 c 0
EndSplineSet
EndChar
StartChar: uni0E0D
Encoding: 203 3597 213
Width: 600
Flags: W
HStem: -166 42<304.507 363.863> -76 21<309.014 351.644> 0 60<145.235 203.72 373 456> 113 37<166.141 206.673> 385 60<214.269 350.698>
VStem: 84 61<34 92.6386> 207 34<71.9328 122.41> 271 28<-123.403 -78.7551> 352 25<-106.265 -78.8887> 369 62<308.514 328.477 328.477 332.5 330.488 365.63>
Fore
169 53 m 0xff
 186 53 207 67 207 89 c 0
 207 103 197 113 182 113 c 0
 163 113 145 96 145 76 c 0
 145 62 155 53 169 53 c 0xff
325 -124 m 0
 347 -124 352 -105 352 -93 c 0xff80
 352 -82 347 -76 334 -76 c 0
 319 -76 299 -86 299 -104 c 0
 299 -117 311 -124 325 -124 c 0
271 -115 m 0
 271 -74 316 -55 347 -55 c 0
 371 -55 377 -71 377 -82 c 0
 377 -96 366 -110 362 -116 c 9
 433 -56 l 25
 464 -93 l 17
 428 -125 399 -166 352 -166 c 16
 312 -166 271 -151 271 -115 c 0
241 112 m 0
 241 89 225 0 159 0 c 0
 123 0 84 19 84 49 c 0
 84 51 84 53 85 56 c 10
 121 224 l 18
 126 251 146 273 163 280 c 1
 103 280 l 1
 113 330 l 1
 170 411 220 445 296 445 c 16
 368 445 431 395 431 340 c 0
 431 335 430 330 429 325 c 2
 373 60 l 1
 456 60 l 1
 537 444 l 1
 597 444 l 1
 503 0 l 1
 300 0 l 1
 369 325 l 1xff40
 369 327 370 329 370 332 c 0
 370 362 325 385 283 385 c 8
 239 385 211 365 173 330 c 1
 233 330 l 1
 223 280 l 1
 199 266 190 268 181 224 c 2
 164 145 l 1
 164 145 174 150 191 150 c 0
 232 150 241 132 241 112 c 0
EndSplineSet
Substitution2: "Thai Descender Removal Single Substitution" uni0E0D.descless
EndChar
StartChar: uni0E0E
Encoding: 204 3598 214
Width: 600
Flags: W
HStem: -166 37<197.393 272.557> -58 37<203.554 276.591> 0 50<122.499 179.511> 110 49<126.241 183.761> 385 60<316.182 479.413>
VStem: 86 36<50.6338 106.541> 155 41<-120.929 -65.9161> 513 61<308.565 331 331 334.5 332.75 370.071>
AnchorPoint: "BelowBase" 455 -210 basechar 0
Fore
147 50 m 0
 169 50 184 70 184 87 c 0
 184 100 174 110 159 110 c 0
 137 110 122 90 122 73 c 0
 122 60 132 50 147 50 c 0
239 -58 m 0
 218 -58 196 -82 196 -101 c 0
 196 -113 203 -129 229 -129 c 0
 262 -129 263 -112 289 -94 c 25
 280 -84 263 -58 239 -58 c 0
86 62 m 0
 86 107 121 159 169 159 c 0
 182 159 192 156 195 150 c 1
 211 224 l 2
 216 251 236 273 253 280 c 1
 193 280 l 1
 203 330 l 1
 260 411 342 445 419 445 c 0
 500 445 574 407 574 344 c 0
 574 338 573 331 572 325 c 10
 468 -167 l 25
 408 -167 l 17
 329 -113 l 1
 306 -138 287 -166 230 -166 c 0
 190 -166 155 -142 155 -105 c 0
 155 -70 192 -21 269 -21 c 0
 296 -21 310 -28 319 -36 c 1
 380 40 l 1
 415 20 l 1
 358 -60 l 1
 420 -107 l 1
 512 325 l 2
 513 329 513 333 513 337 c 0
 513 380 453 385 406 385 c 8
 351 385 301 365 263 330 c 1
 323 330 l 1
 313 280 l 1
 289 266 280 268 271 224 c 10
 236 60 l 18
 230 34 182 0 143 0 c 16
 107 0 86 28 86 62 c 0
EndSplineSet
EndChar
StartChar: uni0E0F
Encoding: 205 3599 215
Width: 600
Flags: W
HStem: -166 37<121.17 207.463> -56 35<127.077 204.842> 0 50<129.499 186.511> 110 49<133.241 190.761> 385 60<324.48 486.413>
VStem: 77 42<-118.682 -64.0645> 93 36<50.6338 106.541> 520 61<308.565 331 331 334.5 332.75 370.071>
AnchorPoint: "BelowBase" 455 -210 basechar 0
Fore
154 50 m 0xfb
 176 50 191 70 191 87 c 0
 191 100 181 110 166 110 c 0
 144 110 129 90 129 73 c 0
 129 60 139 50 154 50 c 0xfb
119 -97 m 0xfd
 119 -110 126 -129 158 -129 c 0
 198 -129 202 -110 219 -96 c 25
 210 -88 199 -56 163 -56 c 0
 142 -56 119 -78 119 -97 c 0xfd
93 62 m 0xfb
 93 107 128 159 176 159 c 0
 189 159 199 156 202 150 c 1
 218 224 l 2
 223 251 243 273 260 280 c 1
 201 280 l 1
 211 330 l 1
 268 411 349 445 426 445 c 0
 507 445 581 407 581 344 c 0
 581 338 580 331 579 325 c 10
 475 -167 l 25
 415 -167 l 17
 350 -102 l 1
 303 -150 l 1
 251 -113 l 1
 228 -138 209 -166 152 -166 c 0
 112 -166 77 -142 77 -105 c 0xfd
 77 -70 114 -21 191 -21 c 0
 218 -21 232 -28 241 -36 c 1
 302 40 l 1
 337 20 l 1
 280 -60 l 1
 316 -90 l 1
 363 -42 l 1
 427 -107 l 1
 519 325 l 2
 520 329 520 333 520 337 c 0
 520 380 460 385 413 385 c 8
 358 385 308 365 270 330 c 1
 330 330 l 1
 320 280 l 1
 296 266 287 268 278 224 c 10
 243 60 l 18
 237 34 189 0 150 0 c 16
 114 0 93 28 93 62 c 0xfb
EndSplineSet
EndChar
StartChar: uni0E10
Encoding: 206 3600 216
Width: 600
Flags: W
HStem: -193 87<419.154 470.849> -189 35<74.5734 161.796> -78 34<78.7178 158.474> -44 28<415.587 474.568> 0 21G<440.233 514.205> 99 38<302.578 374.052> 217 46<313.929 381.07> 390 55<365.374 534.497>
VStem: 36 36<-142.989 -84.5591> 268 33<139.015 206.917> 379 32<-105.812 -48.7793> 475 30<-93.8784 -44.1675> 495 60<196.926 283.433>
Fore
333 137 m 0x3fe0
 354 137 383 156 383 184 c 0
 383 203 369 217 350 217 c 0
 325 217 301 194 301 168 c 0
 301 150 314 137 333 137 c 0x3fe0
436 -106 m 0xbff0
 453 -106 475 -90 475 -68 c 0
 475 -54 465 -44 450 -44 c 0
 433 -44 411 -60 411 -82 c 0
 411 -96 421 -106 436 -106 c 0xbff0
36 -129 m 0
 36 -94 71 -44 150 -44 c 0
 177 -44 191 -51 200 -59 c 1
 261 17 l 1
 296 -3 l 1
 239 -83 l 1
 275 -113 l 1
 322 -65 l 1
 419 -136 l 17
 411 -125 379 -105 379 -80 c 0
 379 -49 423 -16 458 -16 c 0
 487 -16 505 -38 505 -66 c 0
 505 -81 480 -184 478 -193 c 1
 413 -193 l 1xbff0
 410 -189 321 -128 309 -125 c 1
 262 -173 l 1
 210 -136 l 1
 187 -161 168 -189 111 -189 c 0x7ff0
 72 -189 36 -166 36 -129 c 0
113 -78 m 0
 94 -78 72 -97 72 -120 c 0
 72 -134 81 -154 111 -154 c 0x7fe0
 153 -154 160 -132 174 -120 c 25
 169 -115 151 -78 113 -78 c 0
268 164 m 0
 268 222 336 263 369 263 c 8
 391 263 401 254 415 240 c 24
 428 226 430 217 435 195 c 10
 470 94 l 25
 491 194 l 18
 494 208 495 220 495 231 c 0
 495 279 466 291 438 307 c 0
 410 324 392 330 342 330 c 0
 312 330 282 329 242 324 c 9
 252 374 l 17
 298 406 332 445 435 445 c 0
 517 445 595 411 595 411 c 1
 570 356 l 1
 570 356 484 390 423 390 c 24
 396 390 354 384 354 384 c 1
 354 384 436 378 479 355 c 0
 509 340 555 297 555 229 c 0x3fe8
 555 219 554 207 551 195 c 10
 510 0 l 25
 450 0 l 25
 387 129 l 17
 370 110 356 99 334 99 c 16
 295 99 268 127 268 164 c 0
EndSplineSet
Substitution2: "Thai Descender Removal Single Substitution" uni0E10.descless
EndChar
StartChar: uni0E11
Encoding: 207 3601 217
Width: 600
Flags: W
HStem: 0 21G<165 270.103 439 504.221> 204 40<114.572 184.811> 324 122<160.423 234.477>
VStem: 74 38<246.375 313.867> 194 46<263.742 322.808>
Fore
146 244 m 0
 170 244 194 266 194 293 c 0
 194 311 182 324 163 324 c 0
 142 324 112 305 112 277 c 0
 112 258 126 244 146 244 c 0
357 445 m 0
 376 445 408 409 408 371 c 0
 408 357 405 342 401 324 c 0
 380 224 276 238 256 144 c 2
 239 68 l 17
 440 332 l 1
 440 332 470 375 517 429 c 0
 527 440 543 445 558 445 c 0
 575 445 591 438 591 424 c 0
 591 418 565 309 565 308 c 2
 500 0 l 9
 439 0 l 1
 511 339 l 1
 255 0 l 9
 165 0 l 1
 200 164 l 18
 214 230 251 238 284 264 c 0
 303 283 332 289 337 311 c 1
 337 311 340 365 340 368 c 1
 296 308 l 1
 267 308 l 1
 267 308 252 366 232 378 c 1
 202 366 l 1
 228 356 240 337 240 307 c 0
 240 297 239 285 236 272 c 8
 227 230 166 204 137 204 c 0
 94 204 74 242 74 284 c 0
 74 334 102 380 143 402 c 0
 168 415 202 446 237 446 c 0
 280 446 294 386 296 386 c 1
 301 395 328 445 357 445 c 0
EndSplineSet
EndChar
StartChar: uni0E12
Encoding: 208 3602 218
Width: 600
Flags: W
HStem: 0 42<286.543 344.721> 114 37<290.787 355.188> 265 42<231.476 302.175> 426 20G<254.356 290.167 337.222 377.879 560.726 625>
VStem: 182 40<186.477 255.219> 256 29<43.1571 109.364> 304 34<196.221 262.856> 397 63<301.33 355.023>
Fore
254 185 m 0
 276 185 304 206 304 233 c 0
 304 251 290 265 271 265 c 0
 244 265 222 240 222 216 c 0
 222 198 235 185 254 185 c 0
322 114 m 0
 303 114 285 94 285 73 c 0
 285 56 297 42 314 42 c 0
 340 42 346 71 360 87 c 1
 350 97 339 114 322 114 c 0
256 56 m 0
 256 117 312 151 333 151 c 0
 348 151 363 144 363 144 c 1
 396 300 l 2
 397 305 397 310 397 314 c 0
 397 360 344 372 344 372 c 1
 314 339 l 1
 282 339 l 1
 260 372 l 1
 260 372 190 358 178 300 c 10
 132 87 l 17
 215 154 l 1
 215 154 182 170 182 209 c 0
 182 256 222 307 281 307 c 16
 316 307 338 282 338 247 c 0
 338 165 250 110 250 110 c 9
 114 0 l 25
 54 0 l 25
 118 300 l 18
 144 424 276 446 276 446 c 1
 310 398 l 1
 359 443 l 1
 359 443 460 434 460 336 c 0
 460 325 459 313 456 300 c 2
 420 130 l 1
 484 66 l 1
 565 445 l 1
 625 445 l 1
 530 0 l 1
 470 0 l 1
 399 66 l 1
 376 40 345 0 304 0 c 16
 273 0 256 25 256 56 c 0
EndSplineSet
EndChar
StartChar: uni0E13
Encoding: 209 3603 219
Width: 600
Flags: W
HStem: 0 31<467.929 540.379> 0 53<127.235 185.156> 113 42<146.114 188.489 524.184 550.372> 385 60<196.055 333.024>
VStem: 66 61<34 92.6386> 189 33<56.9032 112.746> 351 61<325.188 328.477 326.833 366.043> 551 31<39.9874 102.694>
AnchorPoint: "AboveBase" 606 500 basechar 0
Fore
151 53 m 0x7f
 168 53 189 67 189 89 c 0
 189 103 179 113 164 113 c 0
 145 113 127 96 127 76 c 0
 127 62 137 53 151 53 c 0x7f
511 31 m 0xbf
 531 31 551 62 551 84 c 0
 551 96 547 106 535 106 c 0
 525 106 518 100 508 96 c 17
 506 81 495 61 495 46 c 0
 495 33 505 31 511 31 c 0xbf
582 104 m 0
 582 73 561 0 475 0 c 0xbf
 436 0 439 58 439 58 c 1
 341 0 l 1
 282 0 l 17
 351 325 l 1
 351 327 352 329 352 332 c 0
 352 362 307 385 265 385 c 8
 221 385 193 365 155 330 c 1
 213 330 l 1
 203 280 l 1
 179 266 172 268 163 224 c 2
 146 145 l 1
 146 145 155 155 174 155 c 0
 192 155 222 149 222 107 c 0
 222 60 189 0 141 0 c 0x7f
 105 0 66 19 66 49 c 0
 66 51 66 53 67 56 c 10
 103 224 l 18
 108 251 128 273 145 280 c 1
 85 280 l 1
 95 330 l 1
 152 411 201 445 278 445 c 0
 359 445 412 387 412 338 c 0
 412 334 412 329 411 325 c 2
 355 60 l 1
 454 117 l 1
 523 444 l 1
 583 444 l 1
 520 146 l 1
 520 146 532 149 545 149 c 0
 575 149 582 124 582 104 c 0
EndSplineSet
EndChar
StartChar: uni0E14
Encoding: 210 3604 220
Width: 600
Flags: W
HStem: 0 21G<69 165.545 452 516.267> 266 46<310.367 380.68> 385 60<258.636 476.156>
VStem: 244 56<188.399 255.494> 382 47<195.642 264.266> 452 60<12.5183 306.751> 516 63<283.594 303.5 303.5 312.523 308.012 348.678>
Fore
333 186 m 0
 360 186 382 211 382 235 c 0
 382 253 369 266 350 266 c 0
 328 266 300 245 300 218 c 0
 300 200 314 186 333 186 c 0
244 205 m 0
 244 262 295 312 359 312 c 16
 400 312 429 282 429 243 c 0
 429 158.592 330.006 110.035 330 110 c 9
 129 0 l 25
 69 0 l 25
 133 300 l 18
 154 399 274 445 388 445 c 0
 508 445 579 397 579 325 c 0
 579 317 578 309 576 300 c 10
 512 0 l 25
 452 0 l 25
 516 300 l 17
 516 302 517 305 517 307 c 0
 517 337 483 385 375 385 c 0
 267 385 203 348 193 300 c 10
 144 70 l 17
 273 143 l 1
 273 143 244 164 244 205 c 0
EndSplineSet
EndChar
StartChar: uni0E15
Encoding: 211 3605 221
Width: 600
Flags: W
HStem: 0 21G<71 167.727 454 518.267> 266 46<313.28 383.01> 426 20G<283.438 337.833 432.333 489.179>
VStem: 246 57<188.512 255.819> 385 47<195.663 264.534> 518 60<283.594 300 300 306 306 311.644 308.822 351.908>
Fore
336 186 m 0
 363 186 385 211 385 235 c 0
 385 253 372 266 353 266 c 0
 331 266 303 245 303 218 c 0
 303 200 317 186 336 186 c 0
246 207 m 0
 246 262 298 312 362 312 c 16
 404 312 432 282 432 244 c 0
 432 165 336 112 333 110 c 10
 131 0 l 25
 71 0 l 25
 135 300 l 18
 161 424 307 446 307 446 c 1
 381 398 l 1
 469 446 l 1
 469 446 582 434 582 334 c 0
 582 323 581 312 578 300 c 10
 514 0 l 25
 454 0 l 25
 518 300 l 18
 519 304 519 308 519 312 c 0
 519 360 453 372 453 372 c 1
 395 338 l 1
 340 338 l 1
 291 372 l 1
 291 372 207 358 195 300 c 10
 146 70 l 17
 274 143 l 1
 274 143 246 166 246 207 c 0
EndSplineSet
EndChar
StartChar: uni0E16
Encoding: 212 3606 222
Width: 600
Flags: W
HStem: 0 43<206.7 277.893> 123 40<227.082 285.149> 387 60<301.825 501.437>
VStem: 141 64<44.9009 84.4722 55.2809 74.5455> 287 42<52.8764 120.849>
Fore
237 43 m 0
 258 43 287 62 287 90 c 0
 287 109 273 123 254 123 c 0
 229 123 205 100 205 74 c 0
 205 56 218 43 237 43 c 0
591 336 m 0
 591 326 520 0 519 0 c 2
 460 0 l 17
 530 327 l 2
 537 361 466 387 405 387 c 24
 336 387 273 365 230 330 c 1
 299 330 l 1
 289 280 l 1
 259 266 246 258 236 214 c 2
 225 159 l 1
 225 159 238 163 257 163 c 0
 310 163 329 144 329 110 c 0
 329 45 280 0 224 0 c 0
 184 0 141 21 141 51 c 0
 141 53 142 56 142 58 c 9
 175 214 l 18
 181 241 203 273 220 280 c 1
 160 280 l 1
 170 330 l 1
 232 411 332 447 418 447 c 0
 515 447 591 386 591 336 c 0
EndSplineSet
EndChar
StartChar: uni0E17
Encoding: 213 3607 223
Width: 600
Flags: W
HStem: 0 21G<182 248.659 460 524.242> 278 42<180.283 245.381> 382 66<435.042 531.172> 400 49<193.337 258.884>
VStem: 145 34<321.821 390.806> 261 62<358.767 411.542> 530 60<313.5 330 330 340.546 340.546 343.097 341.822 377.766>
Fore
211 320 m 0xde
 232 320 261 339 261 367 c 0
 261 386 247 400 228 400 c 0
 203 400 179 377 179 351 c 0
 179 333 192 320 211 320 c 0xde
145 339 m 0
 145 404 205 449 257 449 c 0xde
 293 449 323 425 323 397 c 0
 323 394 323 391 322 388 c 2
 286 218 l 25
 377 380 l 18
 405 418 460 448 493 448 c 0
 539 448 594 437 594 367 c 0
 594 356 593 344 590 330 c 2
 520 0 l 25
 460 0 l 17
 530 330 l 2
 532 338 533 345 533 351 c 0
 533 376 516 382 479 382 c 0xee
 447 382 427 352 416 334 c 2
 238 0 l 9
 182 0 l 25
 246 300 l 17
 226 293 212 278 196 278 c 0
 180 278 145 296 145 339 c 0
EndSplineSet
EndChar
StartChar: uni0E18
Encoding: 214 3608 224
Width: 600
Flags: MW
HStem: 0 60<178 238 298 463> 279 56<247.449 301.781 274.615 389.89> 387 58<295.775 535.098>
VStem: 493 60<187.395 204 204 212.523 212.523 216.089 214.306 253.52>
Fore
435 445 m 0
 321 445 251 420 186 335 c 9
 173 275 l 17
 194 275 242 279 295 279 c 0
 334 279 376 277 413 270 c 0
 467 260 495 252 495 221 c 0
 495 216 494 210 493 204 c 2
 463 60 l 25
 298 60 l 17
 332 220 l 1
 272 220 l 1
 238 60 l 1
 178 60 l 1
 165 0 l 9
 510 0 l 1
 553 204 l 2
 556 217 557 228 557 238 c 0
 557 297 515 320 453 332 c 0
 424 338 394 340 366 340 c 0
 321 340 279 335 246 335 c 1
 301 382 338 387 395 387 c 24
 466 387 570 356 570 356 c 1
 595 411 l 1
 595 411 517 445 435 445 c 0
EndSplineSet
EndChar
StartChar: uni0E19
Encoding: 215 3609 225
Width: 600
Flags: W
HStem: 0 54<462.414 527.45> 134 65<485.46 541.367> 284 34<165.854 213.627 202.885 224.369> 398 47<175.738 244.13>
VStem: 129 35<319.824 387.699> 404 57<56.1337 102.843> 543 37<64.9153 131.527>
AnchorPoint: "AboveBase" 560 500 basechar 0
Fore
493 54 m 0
 515 54 543 75 543 102 c 0
 543 120 529 134 510 134 c 0
 483 134 461 109 461 85 c 0
 461 67 474 54 493 54 c 0
197 318 m 0
 224 318 246 343 246 367 c 0
 246 385 233 398 214 398 c 0
 192 398 164 377 164 350 c 0
 164 332 178 318 197 318 c 0
129 343 m 0
 129 390 178 445 242 445 c 0
 276 445 297 426 308 390 c 1
 244 89 l 1
 422 182 l 9
 478 445 l 1
 538 445 l 9
 484 195 l 17
 492 197 502 199 512 199 c 0
 546 199 580 171 580 129 c 0
 580 84 540 0 471 0 c 16
 424 0 404 64 404 94 c 0
 404 97 404 101 405 103 c 1
 221 0 l 9
 163 0 l 25
 225 290 l 17
 209 290 196 284 183 284 c 0
 168 284 129 303 129 343 c 0
EndSplineSet
EndChar
StartChar: uni0E1A
Encoding: 216 3610 226
Width: 600
Flags: W
HStem: 0 60<120 175 235 455> 284 35<165.158 213.568> 399 46<173.983 243.568>
VStem: 127 36<321.055 389.251>
Fore
196 319 m 0
 221 319 245 342 245 368 c 0
 245 386 232 399 213 399 c 0
 192 399 163 380 163 352 c 0
 163 333 177 319 196 319 c 0
127 343 m 0
 127 374 172 445 225 445 c 8
 267 445 292 433 305 391 c 1
 235 60 l 1
 455 60 l 9
 537 445 l 1
 597 445 l 9
 502 0 l 17
 107 0 l 1
 120 60 l 1
 175 60 l 9
 224 291 l 17
 209 290 195 284 183 284 c 0
 170 284 127 310 127 343 c 0
EndSplineSet
EndChar
StartChar: uni0E1B
Encoding: 217 3611 227
Width: 600
Flags: W
HStem: 0 60<123 178 238 458> 284 35<164.92 216.49> 399 46<177.118 243.319> 595 20G<571.748 636>
VStem: 130 33<321.055 389.251>
AnchorPoint: "AboveBase" 546 500 basechar 0
Fore
196 319 m 0
 221 319 245 342 245 368 c 0
 245 386 232 399 213 399 c 0
 192 399 163 380 163 352 c 0
 163 333 177 319 196 319 c 0
130 343 m 0
 130 374 175 445 228 445 c 8
 270 445 295 433 308 391 c 1
 238 60 l 1
 458 60 l 9
 576 615 l 1
 636 615 l 9
 505 0 l 17
 110 0 l 1
 123 60 l 1
 178 60 l 9
 227 291 l 17
 212 290 198 284 186 284 c 0
 173 284 130 310 130 343 c 0
EndSplineSet
EndChar
StartChar: uni0E1C
Encoding: 218 3612 228
Width: 600
Flags: W
HStem: 0 21G<117 228.342 404.772 516.27> 277 46<250.633 315.564> 403 43<258.371 329.378>
VStem: 331 25<332.698 401.178>
Fore
282 323 m 0
 309 323 331 348 331 372 c 0
 331 390 318 403 299 403 c 0
 277 403 249 382 249 355 c 0
 249 337 263 323 282 323 c 0
356 383 m 0
 356 321 301 277 266 277 c 0
 256 277 247 280 237 282 c 9
 190 60 l 17
 329 220 l 9
 389 220 l 25
 465 60 l 1
 547 445 l 25
 607 445 l 25
 512 0 l 17
 413 0 l 1
 348 158 l 1
 211 0 l 1
 117 0 l 9
 199 386 l 17
 220 426 254 446 294 446 c 16
 332 446 356 419 356 383 c 0
EndSplineSet
EndChar
StartChar: uni0E1D
Encoding: 219 3613 229
Width: 600
Flags: W
HStem: 0 21G<117 228.342 404.772 516.262> 277 46<253.693 315.285> 403 43<261.55 332.693>
VStem: 334 22<332.698 401.178>
AnchorPoint: "AboveBase" 546 500 basechar 0
Fore
285 323 m 0
 312 323 334 348 334 372 c 0
 334 390 321 403 302 403 c 0
 280 403 252 382 252 355 c 0
 252 337 266 323 285 323 c 0
356 383 m 0
 356 321 301 277 266 277 c 0
 256 277 247 280 237 282 c 9
 190 60 l 17
 329 220 l 9
 389 220 l 25
 465 60 l 1
 582 610 l 25
 642 610 l 25
 512 0 l 17
 413 0 l 1
 348 158 l 1
 211 0 l 1
 117 0 l 9
 199 386 l 17
 220 426 254 446 294 446 c 16
 332 446 356 419 356 383 c 0
EndSplineSet
EndChar
StartChar: uni0E1E
Encoding: 220 3614 230
Width: 600
Flags: W
HStem: 0 21G<115 219.485 409.242 514.27> 277 46<124.402 171.096> 403 43<131.43 197.004>
VStem: 90 27<325.091 392.717>
Fore
150 323 m 0
 177 323 199 348 199 372 c 0
 199 390 186 403 167 403 c 0
 145 403 117 382 117 355 c 0
 117 337 131 323 150 323 c 0
90 340 m 0
 90 398 139 446 189 446 c 8
 229 446 255 426 258 386 c 9
 198 105 l 17
 375 445 l 9
 435 445 l 25
 472 105 l 1
 545 445 l 25
 605 445 l 25
 510 0 l 17
 411 0 l 1
 382 330 l 1
 209 0 l 1
 115 0 l 9
 175 282 l 17
 165 280 154 277 144 277 c 0
 141 277 90 283 90 340 c 0
EndSplineSet
EndChar
StartChar: uni0E1F
Encoding: 221 3615 231
Width: 600
Flags: W
HStem: 0 21G<120 224.485 414.242 519.262> 277 46<129.902 176.079> 403 43<136.503 203.395>
VStem: 95 28<325.091 392.717>
AnchorPoint: "AboveBase" 546 500 basechar 0
Fore
156 323 m 0
 183 323 205 348 205 372 c 0
 205 390 192 403 173 403 c 0
 151 403 123 382 123 355 c 0
 123 337 137 323 156 323 c 0
95 340 m 0
 95 398 144 446 194 446 c 8
 234 446 260 426 263 386 c 9
 203 105 l 17
 380 445 l 9
 440 445 l 25
 477 105 l 1
 585 610 l 25
 645 610 l 25
 515 0 l 17
 416 0 l 1
 387 330 l 1
 214 0 l 1
 120 0 l 9
 180 282 l 17
 170 280 159 277 149 277 c 0
 146 277 95 283 95 340 c 0
EndSplineSet
EndChar
StartChar: uni0E20
Encoding: 222 3616 232
Width: 600
Flags: W
HStem: 0 38<71.9019 142.792> 118 41<80.3233 150.128> 385 60<299.019 496.061>
VStem: 37 33<39.7725 108.051> 539 60<308.514 330.023 330.023 333.523 331.773 367.546>
Fore
102 38 m 0
 123 38 152 57 152 85 c 0
 152 104 138 118 119 118 c 0
 94 118 70 95 70 69 c 0
 70 51 83 38 102 38 c 0
37 63 m 0
 37 95 62 159 132 159 c 0
 147 159 159 156 164 150 c 1
 177 214 l 2
 183 241 206 273 224 280 c 1
 155 280 l 1
 165 330 l 1
 229 411 332 445 423 445 c 0
 519 445 601 406 601 342 c 0
 601 337 600 331 599 325 c 10
 530 0 l 25
 470 0 l 25
 539 325 l 18
 540 329 540 332 540 335 c 0
 540 380 463 385 403 385 c 8
 337 385 278 365 234 330 c 1
 302 330 l 1
 292 280 l 1
 262 266 249 258 239 214 c 10
 207 60 l 18
 201 34 150 0 108 0 c 16
 65 0 37 29 37 63 c 0
EndSplineSet
EndChar
StartChar: uni0E21
Encoding: 223 3617 233
Width: 600
Flags: W
HStem: -4 49<179.799 238.733> 133 51<182.037 242.119> 274 46<238.659 282.049> 400 46<234.566 304.44>
VStem: 137 36<51.1226 112.389> 191 34<321.713 390.633>
Fore
257 320 m 0
 278 320 307 339 307 367 c 0
 307 386 293 400 274 400 c 0
 249 400 225 377 225 351 c 0
 225 333 238 320 257 320 c 0
137 84 m 0
 137 162 201 184 223 184 c 0
 240 184 254 177 261 170 c 9
 283 274 l 1
 273 274 l 2
 259 274 236 275 224 284 c 0
 204 299 191 317 191 341 c 0
 191 393 239 446 291 446 c 16
 339 446 360 422 362 386 c 1
 312 150 l 17
 463 72 l 9
 543 445 l 25
 603 445 l 25
 508 0 l 17
 446 0 l 1
 297 82 l 1
 297 82 289 39 269 22 c 16
 250 6 231 -4 212 -4 c 0
 182 -4 137 24 137 84 c 0
213 45 m 0
 234 45 248 64 252 83 c 1
 252 87 253 92 252 96 c 1
 242 109 234 133 213 133 c 0
 181 133 173 89 173 85 c 0
 173 71 191 45 213 45 c 0
EndSplineSet
EndChar
StartChar: uni0E22
Encoding: 224 3618 234
Width: 600
Flags: W
HStem: 0 60<249 466> 155 50<298.559 329> 277 46<311.747 374.244> 403 43<320.05 390.601>
VStem: 230 60<214.653 255.407 254 256.813> 392 23<332.698 401.178>
Fore
343 323 m 0
 370 323 392 348 392 372 c 0
 392 390 379 403 360 403 c 0
 338 403 310 382 310 355 c 0
 310 337 324 323 343 323 c 0
415 383 m 0
 415 321 360 277 325 277 c 0
 315 277 306 280 296 282 c 1
 291 257 l 18
 291 255 290 253 290 251 c 0
 290 230 310 205 340 205 c 1
 329 155 l 1
 269 155 l 9
 249 60 l 1
 466 60 l 1
 548 445 l 25
 608 445 l 25
 513 0 l 17
 176 0 l 1
 209 155 l 18
 218 199 267 205 278 205 c 1
 258 210 230 219 230 247 c 0
 230 250 230 253 231 257 c 10
 258 386 l 1
 279 426 313 446 353 446 c 16
 391 446 415 419 415 383 c 0
EndSplineSet
EndChar
StartChar: uni0E23
Encoding: 225 3619 235
Width: 600
Flags: W
HStem: 0 42<392.499 462.213> 122 47<398.971 470.702> 279 56<250.449 304.781 277.615 392.89> 387 58<298.775 538.098>
VStem: 176 422<275 411 303.615 418.89> 356 34<44.074 111.661> 498 62<205.348 253.52>
Fore
423 42 m 0xf4
 448 42 472 65 472 91 c 0
 472 109 459 122 440 122 c 0
 419 122 390 103 390 75 c 0
 390 56 404 42 423 42 c 0xf4
356 66 m 0
 356 113 397 169 459 169 c 8
 472 169 475 162 486 157 c 25
 496 204 l 2
 497 210 498 216 498 221 c 0xf6
 498 252 470 260 416 270 c 0
 379 277 337 279 298 279 c 0
 245 279 197 275 176 275 c 9
 189 335 l 17
 254 420 324 445 438 445 c 0
 520 445 598 411 598 411 c 1xf8
 573 356 l 1
 573 356 469 387 398 387 c 24
 341 387 304 382 249 335 c 1
 282 335 324 340 369 340 c 0
 397 340 427 338 456 332 c 0
 518 320 560 297 560 238 c 0xf2
 560 228 559 217 556 204 c 2
 530 82 l 1
 503 26 451 0 423 0 c 0
 384 0 356 28 356 66 c 0
EndSplineSet
EndChar
StartChar: uni0E24
Encoding: 226 3620 236
Width: 600
Flags: W
HStem: 0 44<208.137 278.166> 124 39<227.711 285.778> 386 61<301.631 502.474>
VStem: 141 65<45.4009 85.3091 55.7939 74.5455> 288 41<54.7524 121.667>
Fore
238 44 m 0
 260 44 288 65 288 92 c 0
 288 110 274 124 255 124 c 0
 228 124 206 99 206 75 c 0
 206 57 219 44 238 44 c 0
329 108 m 0
 329 51 285 0 224 0 c 0
 184 0 141 21 141 51 c 0
 141 53 142 56 142 58 c 9
 175 214 l 18
 181 241 203 273 220 280 c 1
 160 280 l 1
 170 330 l 1
 232 411 332 447 418 447 c 0
 515 447 591 386 591 336 c 0
 591 333 591 330 590 327 c 2
 485 -165 l 1
 425 -165 l 17
 530 327 l 2
 536 359 475 386 400 386 c 0
 344 386 280 371 230 330 c 1
 299 330 l 1
 289 280 l 1
 259 266 246 258 236 214 c 2
 225 159 l 1
 225 159 238 163 257 163 c 0
 310 163 329 141 329 108 c 0
EndSplineSet
EndChar
StartChar: uni0E25
Encoding: 227 3621 237
Width: 600
Flags: W
HStem: 0 43<188.319 250.806> 123 39<207.248 267.067> 214 64<225.821 376.096> 387 60<289.527 479.42>
VStem: 128 59<45.0554 101.738> 269 20<53.3571 120.548> 511 59<318.234 359.384>
Fore
219 43 m 0
 240 43 269 62 269 90 c 0
 269 109 255 123 236 123 c 0
 211 123 187 100 187 74 c 0
 187 56 200 43 219 43 c 0
289 109 m 0
 289 58 254 0 195 0 c 0
 146 0 128 44 128 76 c 0
 128 81 128 86 129 90 c 2
 145 166 l 2
 151 195 182 278 341 278 c 0
 445 278 477 163 477 163 c 1
 510 318 l 2
 511 321 511 323 511 326 c 0
 511 368 436 387 377 387 c 8
 308 387 240 350 197 322 c 9
 176 371 l 17
 182 383 313 447 390 447 c 0
 471 447 570 416 570 338 c 0
 570 332 569 325 568 318 c 2
 500 0 l 1
 442 0 l 17
 442 0 429 214 327 214 c 0
 197 214 206 159 203 157 c 1
 203 157 214 162 231 162 c 0
 261 162 289 151 289 109 c 0
EndSplineSet
EndChar
StartChar: uni0E26
Encoding: 228 3622 238
Width: 600
Flags: W
HStem: 0 38<113.323 184.565> 118 41<126.21 191.988> 385 60<327.159 487.005>
VStem: 93 19<39.3716 108.429> 519 60<308.51 331 331 335 333 370.389>
Fore
144 38 m 0
 165 38 194 57 194 85 c 0
 194 104 180 118 161 118 c 0
 136 118 112 95 112 69 c 0
 112 51 125 38 144 38 c 0
93 60 m 0
 93 103 126 159 176 159 c 0
 189 159 199 156 202 150 c 1
 215 214 l 2
 221 241 243 273 260 280 c 1
 200 280 l 1
 210 330 l 1
 267 411 355 445 432 445 c 0
 513 445 581 407 581 345 c 0
 581 338 580 332 579 325 c 10
 475 -165 l 25
 415 -165 l 25
 519 325 l 18
 520 329 520 333 520 337 c 0
 520 380 460 385 413 385 c 8
 358 385 308 365 270 330 c 1
 330 330 l 1
 320 280 l 1
 296 266 285 258 275 214 c 10
 243 60 l 18
 237 34 189 0 150 0 c 16
 115 0 93 27 93 60 c 0
EndSplineSet
EndChar
StartChar: uni0E27
Encoding: 229 3623 239
Width: 600
Flags: W
HStem: 0 43<392.262 464.15> 123 47<400.491 470.983> 385 60<324.203 480.249>
VStem: 246 331<307 368 358.523 359.977> 357 34<44.5186 113.566> 516 61<269.056 294.523 294.523 295.977 295.25 352.343>
Fore
423 43 m 0xe8
 444 43 473 62 473 90 c 0
 473 109 459 123 440 123 c 0
 415 123 391 100 391 74 c 0
 391 56 404 43 423 43 c 0xe8
357 71 m 0
 357 135 422 170 449 170 c 0
 468 170 487 162 487 162 c 9
 514 285 l 18
 515 292 516 298 516 304 c 0xec
 516 362 453 385 394 385 c 8
 345 385 317 360 272 325 c 9
 246 368 l 17
 246 368 319 445 407 445 c 0
 515 445 577 375 577 307 c 0xf0
 577 299 576 292 575 285 c 10
 532 83 l 17
 535 76 480 0 422 0 c 0
 379 0 357 35 357 71 c 0
EndSplineSet
EndChar
StartChar: uni0E28
Encoding: 230 3624 240
Width: 600
Flags: W
HStem: 0 21G<69 145.818 458 522.245> 150 35<306.846 377.736> 265 35<314.447 385.236> 385 60<282.496 452.448>
VStem: 387 51<194.634 263.163> 517 60<261.508 285.5 285.5 292.531 289.484 342.66>
Fore
338 185 m 0
 365 185 387 210 387 234 c 0
 387 252 374 265 355 265 c 0
 333 265 305 244 305 217 c 0
 305 199 319 185 338 185 c 0
438 243 m 0
 438 188 380 150 331 150 c 16
 302 150 284 163 277 176 c 9
 129 0 l 25
 69 0 l 25
 128 278 l 18
 149 376 284 445 395 445 c 16
 422 445 449 441 473 433 c 1
 485 453 491 478 491 500 c 9
 551 500 l 17
 544 465 532 437 518 412 c 1
 555 389 580 354 580 308 c 0
 580 298 579 288 577 278 c 10
 518 0 l 25
 458 0 l 25
 517 278 l 18
 518 283 519 288 519 293 c 0
 519 349 450 385 382 385 c 8
 303 385 202 344 188 278 c 10
 152 107 l 17
 238 211 l 2
 271 251 309 300 363 300 c 16
 408 300 438 278 438 243 c 0
EndSplineSet
EndChar
StartChar: uni0E29
Encoding: 231 3625 241
Width: 600
Flags: W
HStem: 0 60<120 175 235 455> 154 55<340.528 422.365> 284 34<164.854 212.627 201.885 223.369> 289 49<348.98 418.982> 398 46<172.401 243.101>
VStem: 128 35<319.824 387.976> 296 43<210.918 279.401> 421 47<238.082 287.125>
AnchorPoint: "AboveBase" 619 500 basechar 0
Fore
371 209 m 0xdf
 393 209 421 230 421 257 c 0
 421 275 407 289 388 289 c 0
 361 289 339 264 339 240 c 0
 339 222 352 209 371 209 c 0xdf
196 318 m 0xef
 223 318 245 343 245 367 c 0
 245 385 232 398 213 398 c 0
 191 398 163 377 163 350 c 0
 163 332 177 318 196 318 c 0xef
296 230 m 0
 296 284 347 338 399 338 c 16xdf
 432 338 441 329 455 309 c 16
 464 295 468 284 468 270 c 0
 468 259 465 247 462 231 c 1
 472 231 483 235 493 240 c 1
 537 445 l 1
 597 445 l 1
 564 294 l 1
 580 309 592 323 603 333 c 9
 638 285 l 17
 603 247 578 220 544 198 c 1
 502 0 l 1
 107 0 l 1
 120 60 l 1
 175 60 l 9
 224 290 l 17
 208 290 195 284 182 284 c 0
 167 284 128 303 128 343 c 0
 128 387 176 444 224 444 c 8
 266 444 292 432 305 390 c 1
 235 60 l 1
 455 60 l 1
 477 166 l 1
 454 158 433 154 412 154 c 0
 354 154 296 177 296 230 c 0
EndSplineSet
EndChar
StartChar: uni0E2A
Encoding: 232 3626 242
Width: 600
Flags: W
HStem: 0 43<188.319 250.806> 123 39<207.248 267.067> 214 64<225.821 376.096> 387 60<289.527 458.459>
VStem: 128 59<45.0554 101.738> 269 20<53.3571 120.548> 496 60<466.071 500> 510 58<301.632 322 322 328.023 325.012 359.872>
Fore
219 43 m 0xfc
 240 43 269 62 269 90 c 0
 269 109 255 123 236 123 c 0
 211 123 187 100 187 74 c 0
 187 56 200 43 219 43 c 0xfc
469 437 m 1
 499 481 494 493 496 500 c 9
 556 500 l 17xfe
 550 470 535 442 520 417 c 1
 550 399 570 373 570 338 c 0
 570 332 569 325 568 318 c 2
 500 0 l 1
 442 0 l 17
 442 0 429 214 327 214 c 0
 197 214 206 159 203 157 c 1
 203 157 214 162 231 162 c 0
 261 162 289 151 289 109 c 0
 289 58 254 0 195 0 c 0
 146 0 128 44 128 76 c 0
 128 81 128 86 129 90 c 2
 145 166 l 2
 151 195 182 278 341 278 c 0
 445 278 477 163 477 163 c 1
 510 318 l 2xfd
 511 321 511 323 511 326 c 0
 511 368 436 387 377 387 c 8
 308 387 240 350 197 322 c 9
 176 371 l 17
 182 383 313 447 390 447 c 0
 416 447 443 444 469 437 c 1
EndSplineSet
EndChar
StartChar: uni0E2B
Encoding: 233 3627 243
Width: 600
Flags: W
HStem: 0 21G<167 241.676 445 509.216> 277 43<166.389 217.454> 400 48<174.84 245.105 458.482 528.97>
VStem: 130 35<321.482 390.101> 247 61<358.767 397.742> 399 50<321.407 390.278> 490 62<187.395 204 204 214 214 216.565 215.282 260.379> 531 49<329.658 397.861>
Fore
481 320 m 0xfd
 502 320 531 339 531 367 c 0
 531 386 517 400 498 400 c 0
 473 400 449 377 449 351 c 0
 449 333 462 320 481 320 c 0xfd
197 320 m 0
 218 320 247 339 247 367 c 0
 247 386 233 400 214 400 c 0
 189 400 165 377 165 351 c 0
 165 333 178 320 197 320 c 0
580 378 m 0
 580 348 561 300 526 292 c 1
 543 281 552 262 552 235 c 0
 552 226 550 215 548 204 c 2
 505 0 l 9
 445 0 l 17
 488 204 l 2
 489 211 490 217 490 224 c 0xfe
 490 241 486 257 477 272 c 1
 223 0 l 9
 167 0 l 25
 231 300 l 17
 219 285 203 277 188 277 c 0
 167 277 130 294 130 339 c 0
 130 396 180 448 233 448 c 16
 270 448 308 426 308 396 c 0
 308 394 308 391 307 388 c 2
 250 116 l 17
 420 290 l 1
 404 298 399 318 399 336 c 0
 399 399 453 448 508 448 c 0
 551 448 580 418 580 378 c 0
EndSplineSet
EndChar
StartChar: uni0E2C
Encoding: 234 3628 244
Width: 600
Flags: W
HStem: 0 21G<115 219.485 409.242 514.241> 277 46<123.841 171.096> 403 43<131.43 197.004> 446 51<485.938 544.432> 448 73<620 677.909> 577 51<498.455 563.604>
VStem: 90 27<325.065 392.566> 453 30<499.123 566.76> 565 60<525.462 575.514>
AnchorPoint: "AboveBase" 436 500 basechar 0
Fore
516 497 m 0xe780
 541 497 565 521 565 547 c 0
 565 564 552 577 533 577 c 0
 511 577 483 557 483 531 c 0
 483 512 497 497 516 497 c 0xe780
150 323 m 0
 177 323 199 348 199 372 c 0
 199 390 186 403 167 403 c 0
 145 403 117 382 117 355 c 0
 117 337 131 323 150 323 c 0
453 521 m 0xef80
 453 572 503 628 556 628 c 16
 589 628 599 619 612 599 c 16
 621 585 625 573 625 559 c 0
 625 548 623 536 620 521 c 1
 678 527 729 594 760 623 c 9
 795 575 l 17
 746 523 696 467 605 448 c 1
 510 0 l 1
 411 0 l 1
 382 330 l 1
 209 0 l 1
 115 0 l 9
 175 282 l 17
 165 280 154 277 144 277 c 0
 136 277 90 286 90 339 c 0
 90 398 139 446 189 446 c 8
 229 446 255 426 258 386 c 9
 198 105 l 17
 375 445 l 9
 435 445 l 25
 472 105 l 1
 545 446 l 1
 520 446 453 464 453 521 c 0xef80
EndSplineSet
EndChar
StartChar: uni0E2D
Encoding: 235 3629 245
Width: 600
Flags: W
HStem: 0 56<239 459> 111 48<267.981 327.003> 239 39<274.711 346.383> 387 60<327.848 496.055>
VStem: 348 29<168.778 237.375> 517 61<327.141 330 328.571 365.513>
Fore
299 159 m 0
 324 159 348 182 348 208 c 0
 348 226 335 239 316 239 c 0
 295 239 266 220 266 192 c 0
 266 173 280 159 299 159 c 0
377 214 m 0
 377 146 294 111 275 111 c 0
 265 111 258 116 253 122 c 9
 239 56 l 17
 459 56 l 1
 517 327 l 1
 517 329 518 331 518 333 c 0
 518 364 465 387 419 387 c 8
 360 387 304 369 267 334 c 9
 240 378 l 17
 240 381 334 447 432 447 c 0
 515 447 578 387 578 338 c 0
 578 334 578 330 577 327 c 2
 507 0 l 1
 167 0 l 9
 209 199 l 17
 227 240 264 278 308 278 c 16
 345 278 377 252 377 214 c 0
EndSplineSet
EndChar
StartChar: uni0E2E
Encoding: 236 3630 246
Width: 600
Flags: W
HStem: 0 56<242 462> 111 48<270.981 330.003> 239 39<277.711 349.383> 387 60<330.848 499.375>
VStem: 351 29<168.778 237.375> 520 61<327.141 330 328.57 359.592>
Fore
302 159 m 0
 327 159 351 182 351 208 c 0
 351 226 338 239 319 239 c 0
 298 239 269 220 269 192 c 0
 269 173 283 159 302 159 c 0
380 214 m 0
 380 146 297 111 278 111 c 0
 268 111 261 116 256 122 c 9
 242 56 l 17
 462 56 l 1
 520 327 l 1
 520 329 521 331 521 333 c 0
 521 364 468 387 422 387 c 8
 363 387 307 369 270 334 c 9
 243 378 l 17
 243 381 337 447 435 447 c 0
 470 447 502 436 526 420 c 1
 539 442 549 465 556 500 c 9
 616 500 l 17
 607 454 588 417 565 383 c 1
 575 367 581 352 581 336 c 0
 581 333 581 330 580 327 c 2
 510 0 l 1
 170 0 l 9
 212 199 l 17
 230 240 267 278 311 278 c 16
 348 278 380 252 380 214 c 0
EndSplineSet
EndChar
StartChar: uni0E2F
Encoding: 237 3631 247
Width: 600
Flags: W
HStem: 0 21G<334 424.5> 269 71<176.389 248.184> 420 31<185.121 254.922>
VStem: 130 45<341.587 404.469> 257 45<356.174 411.028>
Fore
207 340 m 0
 228 340 257 359 257 387 c 0
 257 406 243 420 224 420 c 0
 199 420 175 397 175 371 c 0
 175 353 188 340 207 340 c 0
130 344 m 0
 130 395 180 451 233 451 c 16
 266 451 275 443 289 423 c 16
 298 409 302 398 302 383 c 0
 302 372 299 360 296 344 c 1
 408 357 475 440 485 445 c 9
 545 445 l 17
 464 67 l 1
 460 67 449 14 400 0 c 1
 334 0 l 1
 380 28 399 50 404 67 c 2
 465 354 l 1
 415 311 387 301 328 285 c 0
 292 276 265 269 236 269 c 0
 172 269 130 298 130 344 c 0
EndSplineSet
EndChar
StartChar: uni0E30
Encoding: 238 3632 248
Width: 600
Flags: W
HStem: 41 75<209.929 280.729> 196 29<218.265 288.733> 262 75<256.929 327.729> 417 29<265.265 335.733>
VStem: 161 47<90.9525 178.964> 208 47<311.953 399.964> 290 43<132.573 185.884> 337 43<353.573 406.884>
Fore
241 116 m 0
 268 116 290 141 290 165 c 0
 290 183 277 196 258 196 c 0
 236 196 208 175 208 148 c 0
 208 130 222 116 241 116 c 0
161 117 m 0
 161 171 212 225 264 225 c 16
 297 225 306 216 320 196 c 16
 329 182 333 171 333 157 c 0
 333 146 330 134 327 118 c 1
 385 124 437 191 468 220 c 9
 503 172 l 17
 452 118 423 85 359 59 c 16
 327 47 302 41 277 41 c 0
 219 41 161 64 161 117 c 0
288 337 m 0
 315 337 337 362 337 386 c 0
 337 404 324 417 305 417 c 0
 283 417 255 396 255 369 c 0
 255 351 269 337 288 337 c 0
208 338 m 0
 208 392 259 446 311 446 c 16
 344 446 353 437 367 417 c 16
 376 403 380 392 380 378 c 0
 380 367 377 355 374 339 c 1
 432 345 484 412 515 441 c 9
 550 393 l 17
 499 339 470 306 406 280 c 16
 374 268 349 262 324 262 c 0
 266 262 208 285 208 338 c 0
EndSplineSet
EndChar
StartChar: uni0E32
Encoding: 240 3634 249
Width: 600
Flags: W
HStem: 0 21G<410.281 466> 385 60<280.507 434.648>
VStem: 467 60<268.648 285 285 294.523 294.523 295.977 295.25 352.343>
Fore
359 445 m 0
 289 445 261 418 216 386 c 9
 245 342 l 17
 245 342 307 385 346 385 c 16
 406 385 469 362 469 304 c 0
 469 298 468 292 467 285 c 10
 406 0 l 25
 466 0 l 25
 527 285 l 18
 528 292 529 299 529 307 c 0
 529 375 467 445 359 445 c 0
EndSplineSet
EndChar
StartChar: uni0E33
Encoding: 241 3635 250
Width: 600
Flags: W
HStem: 0 21G<400.281 456> 385 60<271.319 424.897> 444 43<215.264 285.48> 567 45<222.545 293.078>
VStem: 169 44<489.015 556.775> 295 46<496.69 565.488> 457 60<268.648 285 285 294.523 294.523 296 295.262 352.343>
Fore
246 487 m 0xbe
 273 487 295 512 295 536 c 0
 295 554 282 567 263 567 c 0
 241 567 213 546 213 519 c 0
 213 501 227 487 246 487 c 0xbe
169 511 m 0
 169 566 224 612 273 612 c 0
 313 612 341 583 341 545 c 0
 341 490 286 444 237 444 c 0
 197 444 169 473 169 511 c 0
236 342 m 17
 236 342 297 385 337 385 c 16
 396 385 459 362 459 304 c 0
 459 298 458 292 457 285 c 10
 396 0 l 25
 456 0 l 25
 517 285 l 18
 518 292 519 300 519 307 c 0
 519 375 457 445 350 445 c 0xde
 280 445 252 418 207 386 c 9
 236 342 l 17
EndSplineSet
MultipleSubs2: "Thai Sara Am Decomposition" uni0E4D uni0E32
Substitution2: "Thai Sara Am Lakkhang" uni0E32
EndChar
StartChar: uni0E36
Encoding: 244 3638 251
Width: 0
Flags: W
HStem: 500 54<-317 -151> 500 44<-100.312 -39.7478> 612 54<-284.288 -169.189> 634 32<-89.8158 -13.438>
VStem: -11 28<556.843 631.091>
AnchorPoint: "AboveMark" -33 700 basemark 0
AnchorPoint: "AboveBase" 6 500 mark 0
Fore
-66 544 m 0x58
 -38 544 -11 570 -11 599 c 0
 -11 619 -26 634 -47 634 c 0
 -77 634 -103 606 -103 580 c 0
 -103 559 -88 544 -66 544 c 0x58
-227 612 m 0xa8
 -263 612 -292 590 -317 554 c 9
 -151 554 l 17
 -160 594 -187 612 -227 612 c 0xa8
-219 666 m 16
 -173 666 -118 616 -118 616 c 1
 -118 616 -77 666 -47 666 c 16
 -8 666 17 639 17 603 c 0
 17 551 -22 531 -39 518 c 24
 -55 506 -68 507 -87 500 c 25
 -390 500 l 17x58
 -367 606 -302 666 -219 666 c 16
EndSplineSet
EndChar
StartChar: uni0E38
Encoding: 246 3640 252
Width: 0
Flags: W
HStem: -139 21<-239.922 -205.835 -213.046 -198.623> -62 22<-237.106 -182.467>
VStem: -263 23<-117.911 -65.1524>
AnchorPoint: "BelowBase" -109 -40 mark 0
Fore
-217 -118 m 0
 -202 -118 -182 -104 -182 -85 c 0
 -182 -72 -192 -62 -205 -62 c 0
 -220 -62 -240 -76 -240 -95 c 0
 -240 -108 -230 -118 -217 -118 c 0
-263 -102 m 0
 -263 -77 -234 -40 -191 -40 c 16
 -155 -40 -138 -52 -129 -83 c 9
 -152 -194 l 25
 -210 -194 l 25
 -198 -136 l 17
 -209 -136 -219 -139 -228 -139 c 0
 -245 -139 -263 -122 -263 -102 c 0
EndSplineSet
Substitution2: "Thai Sara U Mai Ek Reordering" uni0E48.low
Substitution2: "Thai Sara U Mai Tho Reordering" uni0E49.low
Substitution2: "Thai Sara U Mai Tri Reordering" uni0E4A.low
Substitution2: "Thai Sara U Mai Chattawa Reordering" uni0E4B.low
Substitution2: "Thai Sara U Thanthakhat Reordering" uni0E4C.low
Substitution2: "Thai Sara U Nikhahit Reordering" uni0E4D
EndChar
